<svg width="1363" height="297" viewBox="0 0 1363 297" fill="none" xmlns="http://www.w3.org/2000/svg">
<g clip-path="url(#clip0_403_43)">
<rect x="1001" width="362" height="297" rx="20" fill="white"/>
<path d="M0 15C0 6.71573 6.71573 0 15 0H37V297H15C6.71573 297 0 290.284 0 282V15Z" fill="#20B573"/>
<path d="M37 0H1066V297H37V0Z" fill="#F0F0F0"/>
<g clip-path="url(#clip1_403_43)">
<path d="M1000 182H103C97.4772 182 93 186.477 93 192V249C93 254.523 97.4772 259 103 259H1000C1005.52 259 1010 254.523 1010 249V192C1010 186.477 1005.52 182 1000 182Z" fill="#D3D3D3"/>
<path d="M206 200H114C112.343 200 111 201.343 111 203V238C111 239.657 112.343 241 114 241H206C207.657 241 209 239.657 209 238V203C209 201.343 207.657 200 206 200Z" fill="#424242"/>
<path d="M206 200H114C112.343 200 111 201.343 111 203V238C111 239.657 112.343 241 114 241H206C207.657 241 209 239.657 209 238V203C209 201.343 207.657 200 206 200Z" stroke="#424242" stroke-width="4"/>
<path d="M137.078 214.203V227H133.993V214.203H137.078ZM142.053 219.529V221.902H136.199V219.529H142.053ZM142.554 214.203V216.585H136.199V214.203H142.554ZM146.825 213.5V227H143.855V213.5H146.825ZM154.208 224.688V217.49H157.179V227H154.401L154.208 224.688ZM154.489 222.755L155.263 222.737C155.263 223.376 155.187 223.968 155.034 224.513C154.882 225.052 154.656 225.52 154.357 225.919C154.065 226.317 153.701 226.628 153.268 226.851C152.84 227.067 152.345 227.176 151.782 227.176C151.314 227.176 150.883 227.111 150.49 226.982C150.104 226.848 149.77 226.64 149.488 226.358C149.207 226.071 148.987 225.705 148.829 225.26C148.677 224.809 148.601 224.27 148.601 223.643V217.49H151.563V223.66C151.563 223.871 151.589 224.053 151.642 224.205C151.694 224.357 151.771 224.486 151.87 224.592C151.97 224.691 152.093 224.768 152.239 224.82C152.392 224.867 152.565 224.891 152.758 224.891C153.203 224.891 153.552 224.797 153.804 224.609C154.056 224.422 154.231 224.167 154.331 223.845C154.437 223.522 154.489 223.159 154.489 222.755ZM163.823 217.49V219.547H158.093V217.49H163.823ZM159.297 215.126H162.259V223.897C162.259 224.149 162.288 224.346 162.347 224.486C162.405 224.621 162.505 224.718 162.646 224.776C162.792 224.829 162.985 224.855 163.226 224.855C163.396 224.855 163.536 224.852 163.648 224.847C163.759 224.835 163.864 224.82 163.964 224.803V226.921C163.712 227.003 163.448 227.064 163.173 227.105C162.898 227.152 162.605 227.176 162.294 227.176C161.661 227.176 161.119 227.076 160.668 226.877C160.223 226.678 159.883 226.364 159.648 225.937C159.414 225.509 159.297 224.952 159.297 224.267V215.126ZM170.011 217.49V219.547H164.28V217.49H170.011ZM165.484 215.126H168.446V223.897C168.446 224.149 168.476 224.346 168.534 224.486C168.593 224.621 168.692 224.718 168.833 224.776C168.98 224.829 169.173 224.855 169.413 224.855C169.583 224.855 169.724 224.852 169.835 224.847C169.946 224.835 170.052 224.82 170.151 224.803V226.921C169.899 227.003 169.636 227.064 169.36 227.105C169.085 227.152 168.792 227.176 168.481 227.176C167.849 227.176 167.307 227.076 166.856 226.877C166.41 226.678 166.07 226.364 165.836 225.937C165.602 225.509 165.484 224.952 165.484 224.267V215.126ZM175.794 227.176C175.021 227.176 174.329 227.056 173.72 226.815C173.11 226.569 172.595 226.232 172.173 225.805C171.757 225.377 171.438 224.885 171.215 224.328C170.998 223.771 170.89 223.183 170.89 222.562V222.228C170.89 221.53 170.986 220.886 171.18 220.294C171.373 219.696 171.66 219.175 172.041 218.729C172.422 218.284 172.899 217.939 173.474 217.692C174.048 217.44 174.716 217.314 175.478 217.314C176.151 217.314 176.755 217.423 177.288 217.64C177.821 217.856 178.273 218.167 178.642 218.571C179.017 218.976 179.301 219.465 179.494 220.039C179.693 220.613 179.793 221.258 179.793 221.973V223.177H172.023V221.322H176.901V221.094C176.907 220.777 176.852 220.508 176.734 220.285C176.623 220.062 176.459 219.893 176.242 219.775C176.025 219.658 175.762 219.6 175.451 219.6C175.129 219.6 174.862 219.67 174.651 219.811C174.446 219.951 174.285 220.144 174.168 220.391C174.057 220.631 173.978 220.909 173.931 221.226C173.884 221.542 173.86 221.876 173.86 222.228V222.562C173.86 222.913 173.907 223.232 174.001 223.52C174.101 223.807 174.241 224.053 174.423 224.258C174.61 224.457 174.833 224.612 175.091 224.724C175.355 224.835 175.653 224.891 175.987 224.891C176.392 224.891 176.79 224.815 177.183 224.662C177.575 224.51 177.912 224.258 178.193 223.906L179.538 225.506C179.345 225.781 179.069 226.048 178.712 226.306C178.36 226.563 177.939 226.774 177.446 226.938C176.954 227.097 176.403 227.176 175.794 227.176ZM183.985 219.846V227H181.023V217.49H183.792L183.985 219.846ZM186.798 217.42L186.745 220.171C186.628 220.159 186.47 220.144 186.271 220.127C186.071 220.109 185.904 220.101 185.77 220.101C185.424 220.101 185.125 220.142 184.873 220.224C184.627 220.3 184.422 220.417 184.258 220.575C184.1 220.727 183.982 220.921 183.906 221.155C183.836 221.39 183.804 221.662 183.81 221.973L183.273 221.621C183.273 220.982 183.335 220.402 183.458 219.881C183.587 219.354 183.769 218.899 184.003 218.519C184.237 218.132 184.522 217.836 184.856 217.631C185.19 217.42 185.565 217.314 185.981 217.314C186.127 217.314 186.271 217.323 186.411 217.341C186.558 217.358 186.687 217.385 186.798 217.42Z" fill="white"/>
<path d="M330 200H232C230.343 200 229 201.343 229 203V238C229 239.657 230.343 241 232 241H330C331.657 241 333 239.657 333 238V203C333 201.343 331.657 200 330 200Z" fill="#424242"/>
<path d="M330 200H232C230.343 200 229 201.343 229 203V238C229 239.657 230.343 241 232 241H330C331.657 241 333 239.657 333 238V203C333 201.343 331.657 200 330 200Z" stroke="#424242" stroke-width="4"/>
<path d="M260.812 224.627V227H254.343V224.627H260.812ZM255.441 214.203V227H252.356V214.203H255.441ZM266.911 224.609V220.689C266.911 220.42 266.873 220.188 266.797 219.995C266.721 219.802 266.601 219.652 266.437 219.547C266.272 219.436 266.053 219.38 265.777 219.38C265.555 219.38 265.364 219.418 265.206 219.494C265.048 219.57 264.928 219.685 264.846 219.837C264.764 219.989 264.723 220.183 264.723 220.417H261.761C261.761 219.977 261.857 219.57 262.051 219.195C262.25 218.815 262.531 218.483 262.895 218.202C263.264 217.921 263.703 217.704 264.213 217.552C264.729 217.394 265.303 217.314 265.936 217.314C266.691 217.314 267.365 217.44 267.957 217.692C268.555 217.944 269.026 218.322 269.372 218.826C269.718 219.324 269.891 219.951 269.891 220.707V224.601C269.891 225.222 269.926 225.693 269.996 226.016C270.066 226.332 270.166 226.61 270.295 226.851V227H267.324C267.184 226.707 267.078 226.35 267.008 225.928C266.943 225.5 266.911 225.061 266.911 224.609ZM267.271 221.19L267.289 222.772H265.979C265.704 222.772 265.47 222.81 265.276 222.887C265.089 222.963 264.937 223.068 264.819 223.203C264.708 223.332 264.626 223.479 264.573 223.643C264.526 223.807 264.503 223.979 264.503 224.161C264.503 224.337 264.544 224.495 264.626 224.636C264.714 224.771 264.831 224.876 264.978 224.952C265.124 225.028 265.288 225.066 265.47 225.066C265.798 225.066 266.076 225.005 266.305 224.882C266.539 224.753 266.718 224.598 266.841 224.416C266.964 224.234 267.025 224.065 267.025 223.906L267.676 225.119C267.559 225.353 267.424 225.591 267.271 225.831C267.125 226.071 266.94 226.294 266.718 226.499C266.501 226.698 266.234 226.862 265.918 226.991C265.602 227.114 265.218 227.176 264.767 227.176C264.181 227.176 263.642 227.056 263.149 226.815C262.663 226.575 262.273 226.241 261.98 225.813C261.688 225.38 261.541 224.882 261.541 224.319C261.541 223.827 261.629 223.388 261.805 223.001C261.986 222.614 262.259 222.286 262.622 222.017C262.985 221.747 263.448 221.542 264.011 221.401C264.573 221.261 265.235 221.19 265.997 221.19H267.271ZM274.522 219.846V227H271.561V217.49H274.329L274.522 219.846ZM277.335 217.42L277.282 220.171C277.165 220.159 277.007 220.144 276.808 220.127C276.608 220.109 276.441 220.101 276.307 220.101C275.961 220.101 275.662 220.142 275.41 220.224C275.164 220.3 274.959 220.417 274.795 220.575C274.637 220.727 274.52 220.921 274.443 221.155C274.373 221.39 274.341 221.662 274.347 221.973L273.811 221.621C273.811 220.982 273.872 220.402 273.995 219.881C274.124 219.354 274.306 218.899 274.54 218.519C274.774 218.132 275.059 217.836 275.393 217.631C275.727 217.42 276.102 217.314 276.518 217.314C276.664 217.314 276.808 217.323 276.948 217.341C277.095 217.358 277.224 217.385 277.335 217.42ZM283.03 224.609V220.689C283.03 220.42 282.992 220.188 282.916 219.995C282.84 219.802 282.72 219.652 282.556 219.547C282.392 219.436 282.172 219.38 281.896 219.38C281.674 219.38 281.483 219.418 281.325 219.494C281.167 219.57 281.047 219.685 280.965 219.837C280.883 219.989 280.842 220.183 280.842 220.417H277.88C277.88 219.977 277.977 219.57 278.17 219.195C278.369 218.815 278.65 218.483 279.014 218.202C279.383 217.921 279.822 217.704 280.332 217.552C280.848 217.394 281.422 217.314 282.055 217.314C282.811 217.314 283.484 217.44 284.076 217.692C284.674 217.944 285.146 218.322 285.491 218.826C285.837 219.324 286.01 219.951 286.01 220.707V224.601C286.01 225.222 286.045 225.693 286.115 226.016C286.186 226.332 286.285 226.61 286.414 226.851V227H283.443C283.303 226.707 283.197 226.35 283.127 225.928C283.062 225.5 283.03 225.061 283.03 224.609ZM283.391 221.19L283.408 222.772H282.099C281.823 222.772 281.589 222.81 281.396 222.887C281.208 222.963 281.056 223.068 280.938 223.203C280.827 223.332 280.745 223.479 280.692 223.643C280.646 223.807 280.622 223.979 280.622 224.161C280.622 224.337 280.663 224.495 280.745 224.636C280.833 224.771 280.95 224.876 281.097 224.952C281.243 225.028 281.407 225.066 281.589 225.066C281.917 225.066 282.195 225.005 282.424 224.882C282.658 224.753 282.837 224.598 282.96 224.416C283.083 224.234 283.145 224.065 283.145 223.906L283.795 225.119C283.678 225.353 283.543 225.591 283.391 225.831C283.244 226.071 283.06 226.294 282.837 226.499C282.62 226.698 282.354 226.862 282.037 226.991C281.721 227.114 281.337 227.176 280.886 227.176C280.3 227.176 279.761 227.056 279.269 226.815C278.782 226.575 278.393 226.241 278.1 225.813C277.807 225.38 277.66 224.882 277.66 224.319C277.66 223.827 277.748 223.388 277.924 223.001C278.105 222.614 278.378 222.286 278.741 222.017C279.104 221.747 279.567 221.542 280.13 221.401C280.692 221.261 281.354 221.19 282.116 221.19H283.391ZM290.94 224.97L292.812 217.49H295.933L292.821 227H290.976L290.94 224.97ZM289.833 217.49L291.679 224.97L291.661 227H289.807L286.704 217.49H289.833ZM301.294 227.176C300.521 227.176 299.829 227.056 299.22 226.815C298.61 226.569 298.095 226.232 297.673 225.805C297.257 225.377 296.938 224.885 296.715 224.328C296.498 223.771 296.39 223.183 296.39 222.562V222.228C296.39 221.53 296.486 220.886 296.68 220.294C296.873 219.696 297.16 219.175 297.541 218.729C297.922 218.284 298.399 217.939 298.974 217.692C299.548 217.44 300.216 217.314 300.978 217.314C301.651 217.314 302.255 217.423 302.788 217.64C303.321 217.856 303.772 218.167 304.142 218.571C304.517 218.976 304.801 219.465 304.994 220.039C305.193 220.613 305.293 221.258 305.293 221.973V223.177H297.523V221.322H302.401V221.094C302.407 220.777 302.352 220.508 302.234 220.285C302.123 220.062 301.959 219.893 301.742 219.775C301.525 219.658 301.262 219.6 300.951 219.6C300.629 219.6 300.362 219.67 300.151 219.811C299.946 219.951 299.785 220.144 299.668 220.391C299.557 220.631 299.478 220.909 299.431 221.226C299.384 221.542 299.36 221.876 299.36 222.228V222.562C299.36 222.913 299.407 223.232 299.501 223.52C299.601 223.807 299.741 224.053 299.923 224.258C300.11 224.457 300.333 224.612 300.591 224.724C300.854 224.835 301.153 224.891 301.487 224.891C301.892 224.891 302.29 224.815 302.683 224.662C303.075 224.51 303.412 224.258 303.693 223.906L305.038 225.506C304.845 225.781 304.569 226.048 304.212 226.306C303.86 226.563 303.438 226.774 302.946 226.938C302.454 227.097 301.903 227.176 301.294 227.176ZM309.626 213.5V227H306.655V213.5H309.626Z" fill="white"/>
<path d="M441 200H356C354.343 200 353 201.343 353 203V238C353 239.657 354.343 241 356 241H441C442.657 241 444 239.657 444 238V203C444 201.343 442.657 200 441 200Z" fill="#424242"/>
<path d="M441 200H356C354.343 200 353 201.343 353 203V238C353 239.657 354.343 241 356 241H441C442.657 241 444 239.657 444 238V203C444 201.343 442.657 200 441 200Z" stroke="#424242" stroke-width="4"/>
<path d="M376.141 214.203H381.177C382.161 214.203 383.017 214.35 383.743 214.643C384.47 214.936 385.029 215.369 385.422 215.943C385.82 216.518 386.02 217.227 386.02 218.07C386.02 218.803 385.905 219.415 385.677 219.907C385.448 220.399 385.129 220.807 384.719 221.129C384.314 221.445 383.843 221.706 383.304 221.911L382.293 222.482H378.065L378.048 220.101H381.177C381.569 220.101 381.895 220.03 382.152 219.89C382.41 219.749 382.604 219.55 382.732 219.292C382.867 219.028 382.935 218.715 382.935 218.352C382.935 217.982 382.867 217.666 382.732 217.402C382.598 217.139 382.398 216.937 382.135 216.796C381.877 216.655 381.558 216.585 381.177 216.585H379.226V227H376.141V214.203ZM383.146 227L380.315 221.34L383.585 221.322L386.45 226.868V227H383.146ZM392.348 227.176C391.574 227.176 390.883 227.056 390.273 226.815C389.664 226.569 389.148 226.232 388.727 225.805C388.311 225.377 387.991 224.885 387.769 224.328C387.552 223.772 387.443 223.183 387.443 222.562V222.228C387.443 221.53 387.54 220.886 387.733 220.294C387.927 219.696 388.214 219.175 388.595 218.73C388.976 218.284 389.453 217.939 390.027 217.692C390.602 217.44 391.27 217.315 392.031 217.315C392.705 217.315 393.309 217.423 393.842 217.64C394.375 217.856 394.826 218.167 395.195 218.571C395.57 218.976 395.854 219.465 396.048 220.039C396.247 220.613 396.347 221.258 396.347 221.973V223.177H388.577V221.322H393.455V221.094C393.461 220.777 393.405 220.508 393.288 220.285C393.177 220.063 393.013 219.893 392.796 219.775C392.579 219.658 392.315 219.6 392.005 219.6C391.683 219.6 391.416 219.67 391.205 219.811C391 219.951 390.839 220.145 390.722 220.391C390.61 220.631 390.531 220.909 390.484 221.226C390.438 221.542 390.414 221.876 390.414 222.228V222.562C390.414 222.913 390.461 223.232 390.555 223.52C390.654 223.807 390.795 224.053 390.977 224.258C391.164 224.457 391.387 224.612 391.645 224.724C391.908 224.835 392.207 224.891 392.541 224.891C392.945 224.891 393.344 224.815 393.736 224.662C394.129 224.51 394.466 224.258 394.747 223.906L396.092 225.506C395.898 225.781 395.623 226.048 395.266 226.306C394.914 226.564 394.492 226.774 394 226.939C393.508 227.097 392.957 227.176 392.348 227.176ZM402.49 224.609V220.69C402.49 220.42 402.452 220.189 402.376 219.995C402.3 219.802 402.18 219.652 402.016 219.547C401.852 219.436 401.632 219.38 401.356 219.38C401.134 219.38 400.943 219.418 400.785 219.494C400.627 219.57 400.507 219.685 400.425 219.837C400.343 219.989 400.302 220.183 400.302 220.417H397.34C397.34 219.978 397.437 219.57 397.63 219.195C397.829 218.815 398.11 218.483 398.474 218.202C398.843 217.921 399.282 217.704 399.792 217.552C400.308 217.394 400.882 217.315 401.515 217.315C402.271 217.315 402.944 217.44 403.536 217.692C404.134 217.944 404.605 218.322 404.951 218.826C405.297 219.324 405.47 219.951 405.47 220.707V224.601C405.47 225.222 405.505 225.693 405.575 226.016C405.646 226.332 405.745 226.61 405.874 226.851V227H402.903C402.763 226.707 402.657 226.35 402.587 225.928C402.522 225.5 402.49 225.061 402.49 224.609ZM402.851 221.19L402.868 222.773H401.559C401.283 222.773 401.049 222.811 400.855 222.887C400.668 222.963 400.516 223.068 400.398 223.203C400.287 223.332 400.205 223.479 400.152 223.643C400.105 223.807 400.082 223.98 400.082 224.161C400.082 224.337 400.123 224.495 400.205 224.636C400.293 224.771 400.41 224.876 400.557 224.952C400.703 225.028 400.867 225.066 401.049 225.066C401.377 225.066 401.655 225.005 401.884 224.882C402.118 224.753 402.297 224.598 402.42 224.416C402.543 224.234 402.604 224.065 402.604 223.906L403.255 225.119C403.138 225.354 403.003 225.591 402.851 225.831C402.704 226.071 402.52 226.294 402.297 226.499C402.08 226.698 401.813 226.862 401.497 226.991C401.181 227.114 400.797 227.176 400.346 227.176C399.76 227.176 399.221 227.056 398.729 226.815C398.242 226.575 397.853 226.241 397.56 225.814C397.267 225.38 397.12 224.882 397.12 224.319C397.12 223.827 397.208 223.388 397.384 223.001C397.565 222.614 397.838 222.286 398.201 222.017C398.564 221.747 399.027 221.542 399.59 221.401C400.152 221.261 400.814 221.19 401.576 221.19H402.851ZM411.13 224.891C411.405 224.891 411.64 224.841 411.833 224.741C412.032 224.636 412.182 224.489 412.281 224.302C412.387 224.108 412.437 223.877 412.431 223.607H415.217C415.223 224.322 415.047 224.949 414.689 225.488C414.338 226.022 413.857 226.438 413.248 226.736C412.645 227.029 411.962 227.176 411.2 227.176C410.456 227.176 409.806 227.056 409.249 226.815C408.692 226.569 408.227 226.23 407.852 225.796C407.482 225.356 407.204 224.844 407.017 224.258C406.835 223.672 406.744 223.036 406.744 222.351V222.148C406.744 221.463 406.835 220.827 407.017 220.241C407.204 219.649 407.482 219.137 407.852 218.703C408.227 218.264 408.689 217.924 409.24 217.684C409.797 217.438 410.444 217.315 411.183 217.315C411.974 217.315 412.671 217.464 413.274 217.763C413.884 218.062 414.361 218.495 414.707 219.064C415.053 219.632 415.223 220.32 415.217 221.129H412.431C412.437 220.842 412.393 220.584 412.299 220.356C412.205 220.127 412.059 219.945 411.859 219.811C411.666 219.67 411.417 219.6 411.112 219.6C410.808 219.6 410.562 219.667 410.374 219.802C410.187 219.937 410.043 220.124 409.943 220.364C409.85 220.599 409.785 220.868 409.75 221.173C409.721 221.478 409.706 221.803 409.706 222.148V222.351C409.706 222.702 409.721 223.033 409.75 223.344C409.785 223.648 409.853 223.918 409.952 224.152C410.052 224.381 410.195 224.563 410.383 224.697C410.57 224.826 410.819 224.891 411.13 224.891ZM421.492 217.49V219.547H415.762V217.49H421.492ZM416.966 215.126H419.928V223.898C419.928 224.149 419.957 224.346 420.016 224.486C420.074 224.621 420.174 224.718 420.314 224.776C420.461 224.829 420.654 224.856 420.895 224.856C421.064 224.856 421.205 224.853 421.316 224.847C421.428 224.835 421.533 224.82 421.633 224.803V226.921C421.381 227.003 421.117 227.065 420.842 227.106C420.566 227.152 420.273 227.176 419.963 227.176C419.33 227.176 418.788 227.076 418.337 226.877C417.892 226.678 417.552 226.364 417.317 225.937C417.083 225.509 416.966 224.952 416.966 224.267V215.126Z" fill="white"/>
<path d="M570 200H467C465.343 200 464 201.343 464 203V238C464 239.657 465.343 241 467 241H570C571.657 241 573 239.657 573 238V203C573 201.343 571.657 200 570 200Z" fill="#424242"/>
<path d="M570 200H467C465.343 200 464 201.343 464 203V238C464 239.657 465.343 241 467 241H570C571.657 241 573 239.657 573 238V203C573 201.343 571.657 200 570 200Z" stroke="#424242" stroke-width="4"/>
<path d="M492.678 216.893L489.558 227H486.244L490.946 214.203H493.047L492.678 216.893ZM495.262 227L492.133 216.893L491.729 214.203H493.855L498.584 227H495.262ZM495.139 222.228V224.609H488.573V222.228H495.139ZM502.372 219.846V227H499.41V217.49H502.179L502.372 219.846ZM505.185 217.42L505.132 220.171C505.015 220.159 504.856 220.144 504.657 220.127C504.458 220.109 504.291 220.101 504.156 220.101C503.811 220.101 503.512 220.142 503.26 220.224C503.014 220.3 502.809 220.417 502.645 220.575C502.486 220.727 502.369 220.921 502.293 221.155C502.223 221.39 502.19 221.662 502.196 221.973L501.66 221.621C501.66 220.982 501.722 220.402 501.845 219.881C501.974 219.354 502.155 218.899 502.39 218.519C502.624 218.132 502.908 217.836 503.242 217.631C503.576 217.42 503.951 217.314 504.367 217.314C504.514 217.314 504.657 217.323 504.798 217.341C504.944 217.358 505.073 217.385 505.185 217.42ZM511.495 224.82V213.5H514.475V227H511.803L511.495 224.82ZM505.659 222.359V222.175C505.659 221.454 505.738 220.798 505.896 220.206C506.055 219.608 506.289 219.096 506.6 218.668C506.91 218.234 507.297 217.9 507.76 217.666C508.223 217.432 508.756 217.314 509.359 217.314C509.898 217.314 510.37 217.44 510.774 217.692C511.179 217.939 511.524 218.284 511.812 218.729C512.099 219.175 512.333 219.696 512.515 220.294C512.696 220.886 512.834 221.524 512.928 222.21V222.43C512.834 223.074 512.696 223.684 512.515 224.258C512.333 224.826 512.099 225.33 511.812 225.77C511.524 226.209 511.176 226.555 510.766 226.807C510.361 227.053 509.887 227.176 509.342 227.176C508.738 227.176 508.205 227.056 507.742 226.815C507.285 226.575 506.901 226.238 506.591 225.805C506.286 225.371 506.055 224.861 505.896 224.275C505.738 223.689 505.659 223.051 505.659 222.359ZM508.621 222.175V222.359C508.621 222.717 508.645 223.048 508.691 223.353C508.738 223.657 508.817 223.927 508.929 224.161C509.046 224.39 509.198 224.568 509.386 224.697C509.579 224.826 509.816 224.891 510.098 224.891C510.479 224.891 510.792 224.8 511.038 224.618C511.29 224.436 511.475 224.179 511.592 223.845C511.715 223.511 511.768 223.118 511.75 222.667V221.973C511.762 221.586 511.735 221.246 511.671 220.953C511.606 220.654 511.504 220.405 511.363 220.206C511.229 220.007 511.056 219.857 510.845 219.758C510.64 219.652 510.396 219.6 510.115 219.6C509.84 219.6 509.605 219.664 509.412 219.793C509.225 219.922 509.072 220.103 508.955 220.338C508.838 220.566 508.753 220.839 508.7 221.155C508.647 221.466 508.621 221.806 508.621 222.175ZM521.708 224.688V217.49H524.679V227H521.901L521.708 224.688ZM521.989 222.755L522.763 222.737C522.763 223.376 522.687 223.968 522.534 224.513C522.382 225.052 522.156 225.52 521.857 225.919C521.564 226.317 521.201 226.628 520.768 226.851C520.34 227.067 519.845 227.176 519.282 227.176C518.813 227.176 518.383 227.111 517.99 226.982C517.604 226.848 517.27 226.64 516.988 226.358C516.707 226.071 516.487 225.705 516.329 225.26C516.177 224.809 516.101 224.27 516.101 223.643V217.49H519.062V223.66C519.062 223.871 519.089 224.053 519.142 224.205C519.194 224.357 519.271 224.486 519.37 224.592C519.47 224.691 519.593 224.768 519.739 224.82C519.892 224.867 520.064 224.891 520.258 224.891C520.703 224.891 521.052 224.797 521.304 224.609C521.556 224.422 521.731 224.167 521.831 223.845C521.937 223.522 521.989 223.159 521.989 222.755ZM529.442 217.49V227H526.472V217.49H529.442ZM526.296 215.038C526.296 214.616 526.448 214.27 526.753 214.001C527.058 213.731 527.453 213.597 527.939 213.597C528.426 213.597 528.821 213.731 529.126 214.001C529.431 214.27 529.583 214.616 529.583 215.038C529.583 215.46 529.431 215.806 529.126 216.075C528.821 216.345 528.426 216.479 527.939 216.479C527.453 216.479 527.058 216.345 526.753 216.075C526.448 215.806 526.296 215.46 526.296 215.038ZM534.18 219.521V227H531.218V217.49H533.995L534.18 219.521ZM533.828 221.92L533.134 221.938C533.134 221.211 533.222 220.563 533.397 219.995C533.573 219.421 533.822 218.935 534.145 218.536C534.467 218.138 534.851 217.836 535.296 217.631C535.747 217.42 536.248 217.314 536.799 217.314C537.238 217.314 537.64 217.379 538.003 217.508C538.372 217.637 538.688 217.845 538.952 218.132C539.222 218.419 539.427 218.8 539.567 219.274C539.714 219.743 539.787 220.323 539.787 221.015V227H536.808V221.006C536.808 220.625 536.755 220.335 536.649 220.136C536.544 219.931 536.392 219.79 536.192 219.714C535.993 219.638 535.75 219.6 535.463 219.6C535.158 219.6 534.9 219.658 534.689 219.775C534.479 219.893 534.309 220.057 534.18 220.268C534.057 220.473 533.966 220.716 533.907 220.997C533.854 221.278 533.828 221.586 533.828 221.92ZM541.062 222.342V222.157C541.062 221.46 541.161 220.818 541.36 220.232C541.56 219.641 541.853 219.128 542.239 218.694C542.626 218.261 543.104 217.924 543.672 217.684C544.24 217.438 544.896 217.314 545.641 217.314C546.391 217.314 547.05 217.438 547.618 217.684C548.192 217.924 548.673 218.261 549.06 218.694C549.446 219.128 549.739 219.641 549.938 220.232C550.138 220.818 550.237 221.46 550.237 222.157V222.342C550.237 223.033 550.138 223.675 549.938 224.267C549.739 224.853 549.446 225.365 549.06 225.805C548.673 226.238 548.195 226.575 547.627 226.815C547.059 227.056 546.402 227.176 545.658 227.176C544.914 227.176 544.255 227.056 543.681 226.815C543.106 226.575 542.626 226.238 542.239 225.805C541.853 225.365 541.56 224.853 541.36 224.267C541.161 223.675 541.062 223.033 541.062 222.342ZM544.023 222.157V222.342C544.023 222.699 544.05 223.033 544.103 223.344C544.155 223.654 544.243 223.927 544.366 224.161C544.489 224.39 544.656 224.568 544.867 224.697C545.078 224.826 545.342 224.891 545.658 224.891C545.969 224.891 546.227 224.826 546.432 224.697C546.643 224.568 546.81 224.39 546.933 224.161C547.056 223.927 547.144 223.654 547.196 223.344C547.249 223.033 547.275 222.699 547.275 222.342V222.157C547.275 221.811 547.249 221.486 547.196 221.182C547.144 220.871 547.056 220.599 546.933 220.364C546.81 220.124 546.643 219.936 546.432 219.802C546.221 219.667 545.957 219.6 545.641 219.6C545.33 219.6 545.069 219.667 544.858 219.802C544.653 219.936 544.489 220.124 544.366 220.364C544.243 220.599 544.155 220.871 544.103 221.182C544.05 221.486 544.023 221.811 544.023 222.157Z" fill="white"/>
<path d="M704 200H596C594.343 200 593 201.343 593 203V238C593 239.657 594.343 241 596 241H704C705.657 241 707 239.657 707 238V203C707 201.343 705.657 200 704 200Z" fill="#424242"/>
<path d="M704 200H596C594.343 200 593 201.343 593 203V238C593 239.657 594.343 241 596 241H704C705.657 241 707 239.657 707 238V203C707 201.343 705.657 200 704 200Z" stroke="#424242" stroke-width="4"/>
<path d="M619.062 214.203V227H615.978V214.203H619.062ZM624.037 219.529V221.902H618.184V219.529H624.037ZM624.538 214.203V216.585H618.184V214.203H624.538ZM628.81 217.49V227H625.839V217.49H628.81ZM625.663 215.038C625.663 214.616 625.815 214.27 626.12 214.001C626.425 213.731 626.82 213.597 627.307 213.597C627.793 213.597 628.188 213.731 628.493 214.001C628.798 214.27 628.95 214.616 628.95 215.038C628.95 215.46 628.798 215.806 628.493 216.075C628.188 216.345 627.793 216.479 627.307 216.479C626.82 216.479 626.425 216.345 626.12 216.075C625.815 215.806 625.663 215.46 625.663 215.038ZM633.626 219.846V227H630.664V217.49H633.433L633.626 219.846ZM636.438 217.42L636.386 220.171C636.269 220.159 636.11 220.144 635.911 220.127C635.712 220.109 635.545 220.101 635.41 220.101C635.064 220.101 634.766 220.142 634.514 220.224C634.268 220.3 634.062 220.417 633.898 220.575C633.74 220.727 633.623 220.921 633.547 221.155C633.477 221.39 633.444 221.662 633.45 221.973L632.914 221.621C632.914 220.982 632.976 220.402 633.099 219.881C633.228 219.354 633.409 218.899 633.644 218.519C633.878 218.132 634.162 217.836 634.496 217.631C634.83 217.42 635.205 217.314 635.621 217.314C635.768 217.314 635.911 217.323 636.052 217.341C636.198 217.358 636.327 217.385 636.438 217.42ZM641.888 227.176C641.114 227.176 640.423 227.056 639.813 226.815C639.204 226.569 638.688 226.232 638.267 225.805C637.851 225.377 637.531 224.885 637.309 224.328C637.092 223.771 636.983 223.183 636.983 222.562V222.228C636.983 221.53 637.08 220.886 637.273 220.294C637.467 219.696 637.754 219.175 638.135 218.729C638.516 218.284 638.993 217.939 639.567 217.692C640.142 217.44 640.81 217.314 641.571 217.314C642.245 217.314 642.849 217.423 643.382 217.64C643.915 217.856 644.366 218.167 644.735 218.571C645.11 218.976 645.395 219.465 645.588 220.039C645.787 220.613 645.887 221.258 645.887 221.973V223.177H638.117V221.322H642.995V221.094C643.001 220.777 642.945 220.508 642.828 220.285C642.717 220.062 642.553 219.893 642.336 219.775C642.119 219.658 641.855 219.6 641.545 219.6C641.223 219.6 640.956 219.67 640.745 219.811C640.54 219.951 640.379 220.144 640.262 220.391C640.15 220.631 640.071 220.909 640.024 221.226C639.978 221.542 639.954 221.876 639.954 222.228V222.562C639.954 222.913 640.001 223.232 640.095 223.52C640.194 223.807 640.335 224.053 640.517 224.258C640.704 224.457 640.927 224.612 641.185 224.724C641.448 224.835 641.747 224.891 642.081 224.891C642.485 224.891 642.884 224.815 643.276 224.662C643.669 224.51 644.006 224.258 644.287 223.906L645.632 225.506C645.438 225.781 645.163 226.048 644.806 226.306C644.454 226.563 644.032 226.774 643.54 226.938C643.048 227.097 642.497 227.176 641.888 227.176ZM647.117 213.5H650.079V224.662L649.771 227H647.117V213.5ZM655.915 222.14V222.324C655.915 223.045 655.842 223.701 655.695 224.293C655.549 224.885 655.323 225.398 655.019 225.831C654.714 226.259 654.33 226.59 653.867 226.824C653.404 227.059 652.856 227.176 652.224 227.176C651.649 227.176 651.157 227.053 650.747 226.807C650.337 226.555 649.994 226.209 649.719 225.77C649.443 225.324 649.221 224.811 649.051 224.231C648.881 223.645 648.746 223.019 648.646 222.351V222.131C648.746 221.469 648.881 220.848 649.051 220.268C649.221 219.682 649.443 219.169 649.719 218.729C649.994 218.284 650.334 217.939 650.738 217.692C651.148 217.44 651.638 217.314 652.206 217.314C652.845 217.314 653.396 217.435 653.858 217.675C654.327 217.915 654.714 218.252 655.019 218.686C655.323 219.119 655.549 219.629 655.695 220.215C655.842 220.801 655.915 221.442 655.915 222.14ZM652.953 222.324V222.14C652.953 221.794 652.933 221.469 652.892 221.164C652.851 220.859 652.777 220.59 652.672 220.355C652.566 220.121 652.417 219.936 652.224 219.802C652.03 219.667 651.778 219.6 651.468 219.6C651.151 219.6 650.885 219.652 650.668 219.758C650.457 219.863 650.287 220.016 650.158 220.215C650.035 220.408 649.947 220.648 649.895 220.936C649.842 221.217 649.818 221.536 649.824 221.894V222.588C649.812 223.074 649.856 223.49 649.956 223.836C650.056 224.182 650.229 224.445 650.475 224.627C650.721 224.809 651.058 224.899 651.485 224.899C651.802 224.899 652.057 224.838 652.25 224.715C652.449 224.592 652.599 224.416 652.698 224.188C652.798 223.959 652.865 223.686 652.9 223.37C652.936 223.054 652.953 222.705 652.953 222.324ZM662.173 224.609V220.689C662.173 220.42 662.135 220.188 662.059 219.995C661.982 219.802 661.862 219.652 661.698 219.547C661.534 219.436 661.314 219.38 661.039 219.38C660.816 219.38 660.626 219.418 660.468 219.494C660.31 219.57 660.189 219.685 660.107 219.837C660.025 219.989 659.984 220.183 659.984 220.417H657.022C657.022 219.977 657.119 219.57 657.312 219.195C657.512 218.815 657.793 218.483 658.156 218.202C658.525 217.921 658.965 217.704 659.475 217.552C659.99 217.394 660.564 217.314 661.197 217.314C661.953 217.314 662.627 217.44 663.219 217.692C663.816 217.944 664.288 218.322 664.634 218.826C664.979 219.324 665.152 219.951 665.152 220.707V224.601C665.152 225.222 665.188 225.693 665.258 226.016C665.328 226.332 665.428 226.61 665.557 226.851V227H662.586C662.445 226.707 662.34 226.35 662.27 225.928C662.205 225.5 662.173 225.061 662.173 224.609ZM662.533 221.19L662.551 222.772H661.241C660.966 222.772 660.731 222.81 660.538 222.887C660.351 222.963 660.198 223.068 660.081 223.203C659.97 223.332 659.888 223.479 659.835 223.643C659.788 223.807 659.765 223.979 659.765 224.161C659.765 224.337 659.806 224.495 659.888 224.636C659.976 224.771 660.093 224.876 660.239 224.952C660.386 225.028 660.55 225.066 660.731 225.066C661.06 225.066 661.338 225.005 661.566 224.882C661.801 224.753 661.979 224.598 662.103 224.416C662.226 224.234 662.287 224.065 662.287 223.906L662.938 225.119C662.82 225.353 662.686 225.591 662.533 225.831C662.387 226.071 662.202 226.294 661.979 226.499C661.763 226.698 661.496 226.862 661.18 226.991C660.863 227.114 660.479 227.176 660.028 227.176C659.442 227.176 658.903 227.056 658.411 226.815C657.925 226.575 657.535 226.241 657.242 225.813C656.949 225.38 656.803 224.882 656.803 224.319C656.803 223.827 656.891 223.388 657.066 223.001C657.248 222.614 657.521 222.286 657.884 222.017C658.247 221.747 658.71 221.542 659.272 221.401C659.835 221.261 660.497 221.19 661.259 221.19H662.533ZM671.779 224.328C671.779 224.164 671.724 224.023 671.612 223.906C671.507 223.783 671.319 223.672 671.05 223.572C670.78 223.467 670.402 223.361 669.916 223.256C669.453 223.156 669.017 223.024 668.606 222.86C668.202 222.696 667.848 222.497 667.543 222.263C667.238 222.028 666.998 221.75 666.822 221.428C666.652 221.106 666.567 220.736 666.567 220.32C666.567 219.916 666.652 219.535 666.822 219.178C666.998 218.815 667.253 218.495 667.587 218.22C667.927 217.938 668.34 217.719 668.826 217.561C669.312 217.397 669.866 217.314 670.487 217.314C671.343 217.314 672.081 217.446 672.702 217.71C673.323 217.968 673.801 218.331 674.135 218.8C674.475 219.263 674.645 219.799 674.645 220.408H671.683C671.683 220.168 671.642 219.963 671.56 219.793C671.483 219.623 671.357 219.494 671.182 219.406C671.006 219.313 670.771 219.266 670.479 219.266C670.273 219.266 670.086 219.304 669.916 219.38C669.752 219.456 669.62 219.562 669.521 219.696C669.421 219.831 669.371 219.989 669.371 220.171C669.371 220.3 669.4 220.417 669.459 220.522C669.523 220.622 669.62 220.716 669.749 220.804C669.878 220.886 670.042 220.962 670.241 221.032C670.44 221.097 670.681 221.155 670.962 221.208C671.601 221.325 672.198 221.492 672.755 221.709C673.312 221.926 673.763 222.233 674.108 222.632C674.46 223.03 674.636 223.566 674.636 224.24C674.636 224.662 674.539 225.052 674.346 225.409C674.152 225.761 673.874 226.071 673.511 226.341C673.147 226.605 672.711 226.81 672.201 226.956C671.691 227.103 671.117 227.176 670.479 227.176C669.57 227.176 668.803 227.015 668.176 226.692C667.549 226.364 667.074 225.954 666.752 225.462C666.436 224.964 666.277 224.46 666.277 223.95H669.037C669.049 224.243 669.119 224.483 669.248 224.671C669.383 224.858 669.562 224.996 669.784 225.084C670.007 225.172 670.265 225.216 670.558 225.216C670.827 225.216 671.05 225.178 671.226 225.102C671.407 225.025 671.545 224.923 671.639 224.794C671.732 224.659 671.779 224.504 671.779 224.328ZM680.63 227.176C679.856 227.176 679.165 227.056 678.556 226.815C677.946 226.569 677.431 226.232 677.009 225.805C676.593 225.377 676.273 224.885 676.051 224.328C675.834 223.771 675.726 223.183 675.726 222.562V222.228C675.726 221.53 675.822 220.886 676.016 220.294C676.209 219.696 676.496 219.175 676.877 218.729C677.258 218.284 677.735 217.939 678.31 217.692C678.884 217.44 679.552 217.314 680.313 217.314C680.987 217.314 681.591 217.423 682.124 217.64C682.657 217.856 683.108 218.167 683.478 218.571C683.853 218.976 684.137 219.465 684.33 220.039C684.529 220.613 684.629 221.258 684.629 221.973V223.177H676.859V221.322H681.737V221.094C681.743 220.777 681.688 220.508 681.57 220.285C681.459 220.062 681.295 219.893 681.078 219.775C680.861 219.658 680.598 219.6 680.287 219.6C679.965 219.6 679.698 219.67 679.487 219.811C679.282 219.951 679.121 220.144 679.004 220.391C678.893 220.631 678.813 220.909 678.767 221.226C678.72 221.542 678.696 221.876 678.696 222.228V222.562C678.696 222.913 678.743 223.232 678.837 223.52C678.937 223.807 679.077 224.053 679.259 224.258C679.446 224.457 679.669 224.612 679.927 224.724C680.19 224.835 680.489 224.891 680.823 224.891C681.228 224.891 681.626 224.815 682.019 224.662C682.411 224.51 682.748 224.258 683.029 223.906L684.374 225.506C684.181 225.781 683.905 226.048 683.548 226.306C683.196 226.563 682.774 226.774 682.282 226.938C681.79 227.097 681.239 227.176 680.63 227.176Z" fill="white"/>
</g>
<path d="M105.639 67.1426V49.4062H110.895V67.1426C110.895 68.8535 110.52 70.3242 109.77 71.5547C109.02 72.7734 107.994 73.7109 106.693 74.3672C105.404 75.0234 103.951 75.3516 102.334 75.3516C100.658 75.3516 99.1758 75.0703 97.8867 74.5078C96.5977 73.9453 95.584 73.084 94.8457 71.9238C94.1074 70.752 93.7383 69.2695 93.7383 67.4766H99.0293C99.0293 68.4141 99.1582 69.1582 99.416 69.709C99.6855 70.2598 100.066 70.6523 100.559 70.8867C101.051 71.1211 101.643 71.2383 102.334 71.2383C103.002 71.2383 103.582 71.0801 104.074 70.7637C104.566 70.4473 104.947 69.9844 105.217 69.375C105.498 68.7656 105.639 68.0215 105.639 67.1426ZM123.832 75.3516C122.355 75.3516 121.031 75.1172 119.859 74.6484C118.688 74.168 117.691 73.5059 116.871 72.6621C116.062 71.8184 115.441 70.8398 115.008 69.7266C114.574 68.6016 114.357 67.4062 114.357 66.1406V65.4375C114.357 63.9961 114.562 62.6777 114.973 61.4824C115.383 60.2871 115.969 59.25 116.73 58.3711C117.504 57.4922 118.441 56.8184 119.543 56.3496C120.645 55.8691 121.887 55.6289 123.27 55.6289C124.617 55.6289 125.812 55.8516 126.855 56.2969C127.898 56.7422 128.771 57.375 129.475 58.1953C130.189 59.0156 130.729 60 131.092 61.1484C131.455 62.2852 131.637 63.5508 131.637 64.9453V67.0547H116.52V63.6797H126.662V63.293C126.662 62.5898 126.533 61.9629 126.275 61.4121C126.029 60.8496 125.654 60.4043 125.15 60.0762C124.646 59.748 124.002 59.584 123.217 59.584C122.549 59.584 121.975 59.7305 121.494 60.0234C121.014 60.3164 120.621 60.7266 120.316 61.2539C120.023 61.7812 119.801 62.4023 119.648 63.1172C119.508 63.8203 119.438 64.5938 119.438 65.4375V66.1406C119.438 66.9023 119.543 67.6055 119.754 68.25C119.977 68.8945 120.287 69.4512 120.686 69.9199C121.096 70.3887 121.588 70.752 122.162 71.0098C122.748 71.2676 123.41 71.3965 124.148 71.3965C125.062 71.3965 125.912 71.2207 126.697 70.8691C127.494 70.5059 128.18 69.9609 128.754 69.2344L131.215 71.9062C130.816 72.4805 130.271 73.0312 129.58 73.5586C128.9 74.0859 128.08 74.5195 127.119 74.8594C126.158 75.1875 125.062 75.3516 123.832 75.3516ZM144.785 70.7109V62.2383C144.785 61.6289 144.686 61.1074 144.486 60.6738C144.287 60.2285 143.977 59.8828 143.555 59.6367C143.145 59.3906 142.611 59.2676 141.955 59.2676C141.393 59.2676 140.906 59.3672 140.496 59.5664C140.086 59.7539 139.77 60.0293 139.547 60.3926C139.324 60.7441 139.213 61.1602 139.213 61.6406H134.15C134.15 60.832 134.338 60.0645 134.713 59.3379C135.088 58.6113 135.633 57.9727 136.348 57.4219C137.062 56.8594 137.912 56.4199 138.896 56.1035C139.893 55.7871 141.006 55.6289 142.236 55.6289C143.713 55.6289 145.025 55.875 146.174 56.3672C147.322 56.8594 148.225 57.5977 148.881 58.582C149.549 59.5664 149.883 60.7969 149.883 62.2734V70.4121C149.883 71.4551 149.947 72.3105 150.076 72.9785C150.205 73.6348 150.393 74.209 150.639 74.7012V75H145.523C145.277 74.4844 145.09 73.8398 144.961 73.0664C144.844 72.2812 144.785 71.4961 144.785 70.7109ZM145.453 63.416L145.488 66.2812H142.658C141.99 66.2812 141.41 66.3574 140.918 66.5098C140.426 66.6621 140.021 66.8789 139.705 67.1602C139.389 67.4297 139.154 67.7461 139.002 68.1094C138.861 68.4727 138.791 68.8711 138.791 69.3047C138.791 69.7383 138.891 70.1309 139.09 70.4824C139.289 70.8223 139.576 71.0918 139.951 71.291C140.326 71.4785 140.766 71.5723 141.27 71.5723C142.031 71.5723 142.693 71.4199 143.256 71.1152C143.818 70.8105 144.252 70.4355 144.557 69.9902C144.873 69.5449 145.037 69.123 145.049 68.7246L146.385 70.8691C146.197 71.3496 145.939 71.8477 145.611 72.3633C145.295 72.8789 144.891 73.3652 144.398 73.8223C143.906 74.2676 143.314 74.6367 142.623 74.9297C141.932 75.2109 141.111 75.3516 140.162 75.3516C138.955 75.3516 137.859 75.1113 136.875 74.6309C135.902 74.1387 135.129 73.4648 134.555 72.6094C133.992 71.7422 133.711 70.7578 133.711 69.6562C133.711 68.6602 133.898 67.7754 134.273 67.002C134.648 66.2285 135.199 65.5781 135.926 65.0508C136.664 64.5117 137.584 64.1074 138.686 63.8379C139.787 63.5566 141.064 63.416 142.518 63.416H145.453ZM158.742 60.041V75H153.68V55.9805H158.426L158.742 60.041ZM158.004 64.8223H156.633C156.633 63.416 156.814 62.1504 157.178 61.0254C157.541 59.8887 158.051 58.9219 158.707 58.125C159.363 57.3164 160.143 56.7012 161.045 56.2793C161.959 55.8457 162.979 55.6289 164.104 55.6289C164.994 55.6289 165.809 55.7578 166.547 56.0156C167.285 56.2734 167.918 56.6836 168.445 57.2461C168.984 57.8086 169.395 58.5527 169.676 59.4785C169.969 60.4043 170.115 61.5352 170.115 62.8711V75H165.018V62.8535C165.018 62.0098 164.9 61.3535 164.666 60.8848C164.432 60.416 164.086 60.0879 163.629 59.9004C163.184 59.7012 162.633 59.6016 161.977 59.6016C161.297 59.6016 160.705 59.7363 160.201 60.0059C159.709 60.2754 159.299 60.6504 158.971 61.1309C158.654 61.5996 158.414 62.1504 158.25 62.7832C158.086 63.416 158.004 64.0957 158.004 64.8223ZM179.027 59.6367V82.3125H173.965V55.9805H178.658L179.027 59.6367ZM191.068 65.2793V65.6484C191.068 67.0312 190.904 68.3145 190.576 69.498C190.26 70.6816 189.791 71.7129 189.17 72.5918C188.549 73.459 187.775 74.1387 186.85 74.6309C185.936 75.1113 184.881 75.3516 183.686 75.3516C182.525 75.3516 181.518 75.1172 180.662 74.6484C179.807 74.1797 179.086 73.5234 178.5 72.6797C177.926 71.8242 177.463 70.834 177.111 69.709C176.76 68.584 176.49 67.377 176.303 66.0879V65.1211C176.49 63.7383 176.76 62.4727 177.111 61.3242C177.463 60.1641 177.926 59.1621 178.5 58.3184C179.086 57.4629 179.801 56.8008 180.645 56.332C181.5 55.8633 182.502 55.6289 183.65 55.6289C184.857 55.6289 185.918 55.8574 186.832 56.3145C187.758 56.7715 188.531 57.4277 189.152 58.2832C189.785 59.1387 190.26 60.1582 190.576 61.3418C190.904 62.5254 191.068 63.8379 191.068 65.2793ZM185.988 65.6484V65.2793C185.988 64.4707 185.918 63.7266 185.777 63.0469C185.648 62.3555 185.438 61.752 185.145 61.2363C184.863 60.7207 184.488 60.3223 184.02 60.041C183.562 59.748 183.006 59.6016 182.35 59.6016C181.658 59.6016 181.066 59.7129 180.574 59.9355C180.094 60.1582 179.701 60.4805 179.396 60.9023C179.092 61.3242 178.863 61.8281 178.711 62.4141C178.559 63 178.465 63.6621 178.43 64.4004V66.8438C178.488 67.7109 178.652 68.4902 178.922 69.1816C179.191 69.8613 179.607 70.4004 180.17 70.7988C180.732 71.1973 181.471 71.3965 182.385 71.3965C183.053 71.3965 183.615 71.25 184.072 70.957C184.529 70.6523 184.898 70.2363 185.18 69.709C185.473 69.1816 185.678 68.5723 185.795 67.8809C185.924 67.1895 185.988 66.4453 185.988 65.6484ZM199.559 55.9805V75H194.479V55.9805H199.559ZM194.162 51.0234C194.162 50.2852 194.42 49.6758 194.936 49.1953C195.451 48.7148 196.143 48.4746 197.01 48.4746C197.865 48.4746 198.551 48.7148 199.066 49.1953C199.594 49.6758 199.857 50.2852 199.857 51.0234C199.857 51.7617 199.594 52.3711 199.066 52.8516C198.551 53.332 197.865 53.5723 197.01 53.5723C196.143 53.5723 195.451 53.332 194.936 52.8516C194.42 52.3711 194.162 51.7617 194.162 51.0234ZM212.496 75.3516C211.02 75.3516 209.695 75.1172 208.523 74.6484C207.352 74.168 206.355 73.5059 205.535 72.6621C204.727 71.8184 204.105 70.8398 203.672 69.7266C203.238 68.6016 203.021 67.4062 203.021 66.1406V65.4375C203.021 63.9961 203.227 62.6777 203.637 61.4824C204.047 60.2871 204.633 59.25 205.395 58.3711C206.168 57.4922 207.105 56.8184 208.207 56.3496C209.309 55.8691 210.551 55.6289 211.934 55.6289C213.281 55.6289 214.477 55.8516 215.52 56.2969C216.562 56.7422 217.436 57.375 218.139 58.1953C218.854 59.0156 219.393 60 219.756 61.1484C220.119 62.2852 220.301 63.5508 220.301 64.9453V67.0547H205.184V63.6797H215.326V63.293C215.326 62.5898 215.197 61.9629 214.939 61.4121C214.693 60.8496 214.318 60.4043 213.814 60.0762C213.311 59.748 212.666 59.584 211.881 59.584C211.213 59.584 210.639 59.7305 210.158 60.0234C209.678 60.3164 209.285 60.7266 208.98 61.2539C208.688 61.7812 208.465 62.4023 208.312 63.1172C208.172 63.8203 208.102 64.5938 208.102 65.4375V66.1406C208.102 66.9023 208.207 67.6055 208.418 68.25C208.641 68.8945 208.951 69.4512 209.35 69.9199C209.76 70.3887 210.252 70.752 210.826 71.0098C211.412 71.2676 212.074 71.3965 212.812 71.3965C213.727 71.3965 214.576 71.2207 215.361 70.8691C216.158 70.5059 216.844 69.9609 217.418 69.2344L219.879 71.9062C219.48 72.4805 218.936 73.0312 218.244 73.5586C217.564 74.0859 216.744 74.5195 215.783 74.8594C214.822 75.1875 213.727 75.3516 212.496 75.3516ZM228.246 60.1289V75H223.184V55.9805H227.947L228.246 60.1289ZM233.977 55.8574L233.889 60.5508C233.643 60.5156 233.344 60.4863 232.992 60.4629C232.652 60.4277 232.342 60.4102 232.061 60.4102C231.346 60.4102 230.725 60.5039 230.197 60.6914C229.682 60.8672 229.248 61.1309 228.896 61.4824C228.557 61.834 228.299 62.2617 228.123 62.7656C227.959 63.2695 227.865 63.8438 227.842 64.4883L226.822 64.1719C226.822 62.9414 226.945 61.8105 227.191 60.7793C227.438 59.7363 227.795 58.8281 228.264 58.0547C228.744 57.2812 229.33 56.6836 230.021 56.2617C230.713 55.8398 231.504 55.6289 232.395 55.6289C232.676 55.6289 232.963 55.6523 233.256 55.6992C233.549 55.7344 233.789 55.7871 233.977 55.8574ZM241.43 60.1289V75H236.367V55.9805H241.131L241.43 60.1289ZM247.16 55.8574L247.072 60.5508C246.826 60.5156 246.527 60.4863 246.176 60.4629C245.836 60.4277 245.525 60.4102 245.244 60.4102C244.529 60.4102 243.908 60.5039 243.381 60.6914C242.865 60.8672 242.432 61.1309 242.08 61.4824C241.74 61.834 241.482 62.2617 241.307 62.7656C241.143 63.2695 241.049 63.8438 241.025 64.4883L240.006 64.1719C240.006 62.9414 240.129 61.8105 240.375 60.7793C240.621 59.7363 240.979 58.8281 241.447 58.0547C241.928 57.2812 242.514 56.6836 243.205 56.2617C243.896 55.8398 244.688 55.6289 245.578 55.6289C245.859 55.6289 246.146 55.6523 246.439 55.6992C246.732 55.7344 246.973 55.7871 247.16 55.8574ZM257.953 75.3516C256.477 75.3516 255.152 75.1172 253.98 74.6484C252.809 74.168 251.812 73.5059 250.992 72.6621C250.184 71.8184 249.562 70.8398 249.129 69.7266C248.695 68.6016 248.479 67.4062 248.479 66.1406V65.4375C248.479 63.9961 248.684 62.6777 249.094 61.4824C249.504 60.2871 250.09 59.25 250.852 58.3711C251.625 57.4922 252.562 56.8184 253.664 56.3496C254.766 55.8691 256.008 55.6289 257.391 55.6289C258.738 55.6289 259.934 55.8516 260.977 56.2969C262.02 56.7422 262.893 57.375 263.596 58.1953C264.311 59.0156 264.85 60 265.213 61.1484C265.576 62.2852 265.758 63.5508 265.758 64.9453V67.0547H250.641V63.6797H260.783V63.293C260.783 62.5898 260.654 61.9629 260.396 61.4121C260.15 60.8496 259.775 60.4043 259.271 60.0762C258.768 59.748 258.123 59.584 257.338 59.584C256.67 59.584 256.096 59.7305 255.615 60.0234C255.135 60.3164 254.742 60.7266 254.438 61.2539C254.145 61.7812 253.922 62.4023 253.77 63.1172C253.629 63.8203 253.559 64.5938 253.559 65.4375V66.1406C253.559 66.9023 253.664 67.6055 253.875 68.25C254.098 68.8945 254.408 69.4512 254.807 69.9199C255.217 70.3887 255.709 70.752 256.283 71.0098C256.869 71.2676 257.531 71.3965 258.27 71.3965C259.184 71.3965 260.033 71.2207 260.818 70.8691C261.615 70.5059 262.301 69.9609 262.875 69.2344L265.336 71.9062C264.938 72.4805 264.393 73.0312 263.701 73.5586C263.021 74.0859 262.201 74.5195 261.24 74.8594C260.279 75.1875 259.184 75.3516 257.953 75.3516ZM298.752 49.4062V75H293.479L283.195 57.8438V75H277.922V49.4062H283.195L293.496 66.5801V49.4062H298.752ZM313.289 70.7109V62.2383C313.289 61.6289 313.189 61.1074 312.99 60.6738C312.791 60.2285 312.48 59.8828 312.059 59.6367C311.648 59.3906 311.115 59.2676 310.459 59.2676C309.896 59.2676 309.41 59.3672 309 59.5664C308.59 59.7539 308.273 60.0293 308.051 60.3926C307.828 60.7441 307.717 61.1602 307.717 61.6406H302.654C302.654 60.832 302.842 60.0645 303.217 59.3379C303.592 58.6113 304.137 57.9727 304.852 57.4219C305.566 56.8594 306.416 56.4199 307.4 56.1035C308.396 55.7871 309.51 55.6289 310.74 55.6289C312.217 55.6289 313.529 55.875 314.678 56.3672C315.826 56.8594 316.729 57.5977 317.385 58.582C318.053 59.5664 318.387 60.7969 318.387 62.2734V70.4121C318.387 71.4551 318.451 72.3105 318.58 72.9785C318.709 73.6348 318.896 74.209 319.143 74.7012V75H314.027C313.781 74.4844 313.594 73.8398 313.465 73.0664C313.348 72.2812 313.289 71.4961 313.289 70.7109ZM313.957 63.416L313.992 66.2812H311.162C310.494 66.2812 309.914 66.3574 309.422 66.5098C308.93 66.6621 308.525 66.8789 308.209 67.1602C307.893 67.4297 307.658 67.7461 307.506 68.1094C307.365 68.4727 307.295 68.8711 307.295 69.3047C307.295 69.7383 307.395 70.1309 307.594 70.4824C307.793 70.8223 308.08 71.0918 308.455 71.291C308.83 71.4785 309.27 71.5723 309.773 71.5723C310.535 71.5723 311.197 71.4199 311.76 71.1152C312.322 70.8105 312.756 70.4355 313.061 69.9902C313.377 69.5449 313.541 69.123 313.553 68.7246L314.889 70.8691C314.701 71.3496 314.443 71.8477 314.115 72.3633C313.799 72.8789 313.395 73.3652 312.902 73.8223C312.41 74.2676 311.818 74.6367 311.127 74.9297C310.436 75.2109 309.615 75.3516 308.666 75.3516C307.459 75.3516 306.363 75.1113 305.379 74.6309C304.406 74.1387 303.633 73.4648 303.059 72.6094C302.496 71.7422 302.215 70.7578 302.215 69.6562C302.215 68.6602 302.402 67.7754 302.777 67.002C303.152 66.2285 303.703 65.5781 304.43 65.0508C305.168 64.5117 306.088 64.1074 307.189 63.8379C308.291 63.5566 309.568 63.416 311.021 63.416H313.957ZM332.572 69.7441C332.572 69.3809 332.467 69.0527 332.256 68.7598C332.045 68.4668 331.652 68.1973 331.078 67.9512C330.516 67.6934 329.701 67.459 328.635 67.248C327.674 67.0371 326.777 66.7734 325.945 66.457C325.125 66.1289 324.41 65.7363 323.801 65.2793C323.203 64.8223 322.734 64.2832 322.395 63.6621C322.055 63.0293 321.885 62.3086 321.885 61.5C321.885 60.7031 322.055 59.9531 322.395 59.25C322.746 58.5469 323.244 57.9258 323.889 57.3867C324.545 56.8359 325.342 56.4082 326.279 56.1035C327.229 55.7871 328.295 55.6289 329.479 55.6289C331.131 55.6289 332.549 55.8926 333.732 56.4199C334.928 56.9473 335.842 57.6738 336.475 58.5996C337.119 59.5137 337.441 60.5566 337.441 61.7285H332.379C332.379 61.2363 332.273 60.7969 332.062 60.4102C331.863 60.0117 331.547 59.7012 331.113 59.4785C330.691 59.2441 330.141 59.127 329.461 59.127C328.898 59.127 328.412 59.2266 328.002 59.4258C327.592 59.6133 327.275 59.8711 327.053 60.1992C326.842 60.5156 326.736 60.8672 326.736 61.2539C326.736 61.5469 326.795 61.8105 326.912 62.0449C327.041 62.2676 327.246 62.4727 327.527 62.6602C327.809 62.8477 328.172 63.0234 328.617 63.1875C329.074 63.3398 329.637 63.4805 330.305 63.6094C331.676 63.8906 332.9 64.2598 333.979 64.7168C335.057 65.1621 335.912 65.7715 336.545 66.5449C337.178 67.3066 337.494 68.3086 337.494 69.5508C337.494 70.3945 337.307 71.168 336.932 71.8711C336.557 72.5742 336.018 73.1895 335.314 73.7168C334.611 74.2324 333.768 74.6367 332.783 74.9297C331.811 75.2109 330.715 75.3516 329.496 75.3516C327.727 75.3516 326.227 75.0352 324.996 74.4023C323.777 73.7695 322.852 72.9668 322.219 71.9941C321.598 71.0098 321.287 70.002 321.287 68.9707H326.086C326.109 69.6621 326.285 70.2188 326.613 70.6406C326.953 71.0625 327.381 71.3672 327.896 71.5547C328.424 71.7422 328.992 71.8359 329.602 71.8359C330.258 71.8359 330.803 71.748 331.236 71.5723C331.67 71.3848 331.998 71.1387 332.221 70.834C332.455 70.5176 332.572 70.1543 332.572 69.7441ZM345.721 48V75H340.658V48H345.721ZM345 64.8223H343.611C343.623 63.498 343.799 62.2793 344.139 61.166C344.479 60.041 344.965 59.0684 345.598 58.248C346.23 57.416 346.986 56.7715 347.865 56.3145C348.756 55.8574 349.74 55.6289 350.818 55.6289C351.756 55.6289 352.605 55.7637 353.367 56.0332C354.141 56.291 354.803 56.7129 355.354 57.2988C355.916 57.873 356.35 58.6289 356.654 59.5664C356.959 60.5039 357.111 61.6406 357.111 62.9766V75H352.014V62.9414C352.014 62.0977 351.891 61.4355 351.645 60.9551C351.41 60.4629 351.064 60.1172 350.607 59.918C350.162 59.707 349.611 59.6016 348.955 59.6016C348.229 59.6016 347.607 59.7363 347.092 60.0059C346.588 60.2754 346.184 60.6504 345.879 61.1309C345.574 61.5996 345.352 62.1504 345.211 62.7832C345.07 63.416 345 64.0957 345 64.8223ZM369.715 75.3516C368.238 75.3516 366.914 75.1172 365.742 74.6484C364.57 74.168 363.574 73.5059 362.754 72.6621C361.945 71.8184 361.324 70.8398 360.891 69.7266C360.457 68.6016 360.24 67.4062 360.24 66.1406V65.4375C360.24 63.9961 360.445 62.6777 360.855 61.4824C361.266 60.2871 361.852 59.25 362.613 58.3711C363.387 57.4922 364.324 56.8184 365.426 56.3496C366.527 55.8691 367.77 55.6289 369.152 55.6289C370.5 55.6289 371.695 55.8516 372.738 56.2969C373.781 56.7422 374.654 57.375 375.357 58.1953C376.072 59.0156 376.611 60 376.975 61.1484C377.338 62.2852 377.52 63.5508 377.52 64.9453V67.0547H362.402V63.6797H372.545V63.293C372.545 62.5898 372.416 61.9629 372.158 61.4121C371.912 60.8496 371.537 60.4043 371.033 60.0762C370.529 59.748 369.885 59.584 369.1 59.584C368.432 59.584 367.857 59.7305 367.377 60.0234C366.896 60.3164 366.504 60.7266 366.199 61.2539C365.906 61.7812 365.684 62.4023 365.531 63.1172C365.391 63.8203 365.32 64.5938 365.32 65.4375V66.1406C365.32 66.9023 365.426 67.6055 365.637 68.25C365.859 68.8945 366.17 69.4512 366.568 69.9199C366.979 70.3887 367.471 70.752 368.045 71.0098C368.631 71.2676 369.293 71.3965 370.031 71.3965C370.945 71.3965 371.795 71.2207 372.58 70.8691C373.377 70.5059 374.062 69.9609 374.637 69.2344L377.098 71.9062C376.699 72.4805 376.154 73.0312 375.463 73.5586C374.783 74.0859 373.963 74.5195 373.002 74.8594C372.041 75.1875 370.945 75.3516 369.715 75.3516ZM386.854 75H381.756V54.293C381.756 52.8516 382.037 51.6387 382.6 50.6543C383.174 49.6582 383.977 48.9082 385.008 48.4043C386.051 47.8887 387.287 47.6309 388.717 47.6309C389.186 47.6309 389.637 47.666 390.07 47.7363C390.504 47.7949 390.926 47.8711 391.336 47.9648L391.283 51.7793C391.061 51.7207 390.826 51.6797 390.58 51.6562C390.334 51.6328 390.047 51.6211 389.719 51.6211C389.109 51.6211 388.588 51.7266 388.154 51.9375C387.732 52.1367 387.41 52.4355 387.188 52.834C386.965 53.2324 386.854 53.7188 386.854 54.293V75ZM390.65 55.9805V59.5664H378.926V55.9805H390.65Z" fill="#888888"/>
<path d="M111.922 126.492H102.023V119.082H111.922C113.271 119.082 114.365 118.854 115.203 118.398C116.042 117.943 116.652 117.314 117.035 116.512C117.436 115.691 117.637 114.771 117.637 113.75C117.637 112.656 117.436 111.645 117.035 110.715C116.652 109.785 116.042 109.038 115.203 108.473C114.365 107.889 113.271 107.598 111.922 107.598H105.633V140H96.0352V100.188H111.922C115.112 100.188 117.855 100.771 120.152 101.938C122.467 103.104 124.245 104.708 125.484 106.75C126.724 108.773 127.344 111.089 127.344 113.695C127.344 116.266 126.724 118.508 125.484 120.422C124.245 122.336 122.467 123.831 120.152 124.906C117.855 125.964 115.112 126.492 111.922 126.492ZM141.098 98V140H131.883V98H141.098ZM140.004 124.195L137.844 124.25C137.844 122.172 138.099 120.258 138.609 118.508C139.12 116.758 139.849 115.236 140.797 113.941C141.745 112.647 142.884 111.645 144.215 110.934C145.546 110.223 147.022 109.867 148.645 109.867C150.103 109.867 151.434 110.077 152.637 110.496C153.858 110.915 154.906 111.59 155.781 112.52C156.674 113.449 157.358 114.661 157.832 116.156C158.324 117.651 158.57 119.474 158.57 121.625V140H149.301V121.57C149.301 120.367 149.128 119.438 148.781 118.781C148.453 118.107 147.979 117.642 147.359 117.387C146.74 117.113 145.983 116.977 145.09 116.977C144.014 116.977 143.139 117.159 142.465 117.523C141.79 117.888 141.271 118.398 140.906 119.055C140.56 119.693 140.323 120.449 140.195 121.324C140.068 122.199 140.004 123.156 140.004 124.195ZM179.051 132.562V120.367C179.051 119.529 178.932 118.809 178.695 118.207C178.458 117.605 178.085 117.141 177.574 116.812C177.064 116.466 176.38 116.293 175.523 116.293C174.831 116.293 174.238 116.411 173.746 116.648C173.254 116.885 172.88 117.241 172.625 117.715C172.37 118.189 172.242 118.79 172.242 119.52H163.027C163.027 118.152 163.328 116.885 163.93 115.719C164.549 114.534 165.424 113.504 166.555 112.629C167.703 111.754 169.07 111.079 170.656 110.605C172.26 110.113 174.047 109.867 176.016 109.867C178.367 109.867 180.464 110.259 182.305 111.043C184.164 111.827 185.632 113.003 186.707 114.57C187.783 116.12 188.32 118.07 188.32 120.422V132.535C188.32 134.467 188.43 135.935 188.648 136.938C188.867 137.922 189.177 138.788 189.578 139.535V140H180.336C179.898 139.089 179.57 137.977 179.352 136.664C179.151 135.333 179.051 133.966 179.051 132.562ZM180.172 121.926L180.227 126.848H176.152C175.296 126.848 174.566 126.966 173.965 127.203C173.382 127.44 172.908 127.768 172.543 128.188C172.197 128.589 171.941 129.044 171.777 129.555C171.632 130.065 171.559 130.603 171.559 131.168C171.559 131.715 171.686 132.207 171.941 132.645C172.215 133.064 172.579 133.392 173.035 133.629C173.491 133.866 174.001 133.984 174.566 133.984C175.587 133.984 176.453 133.793 177.164 133.41C177.893 133.009 178.449 132.526 178.832 131.961C179.215 131.396 179.406 130.867 179.406 130.375L181.43 134.148C181.065 134.878 180.646 135.616 180.172 136.363C179.716 137.111 179.142 137.803 178.449 138.441C177.775 139.061 176.945 139.572 175.961 139.973C174.977 140.355 173.783 140.547 172.379 140.547C170.556 140.547 168.879 140.173 167.348 139.426C165.835 138.678 164.622 137.639 163.711 136.309C162.799 134.96 162.344 133.41 162.344 131.66C162.344 130.129 162.617 128.762 163.164 127.559C163.729 126.355 164.577 125.335 165.707 124.496C166.837 123.658 168.277 123.02 170.027 122.582C171.777 122.145 173.837 121.926 176.207 121.926H180.172ZM202.73 117.742V140H193.516V110.414H202.129L202.73 117.742ZM211.48 110.195L211.316 118.754C210.952 118.717 210.46 118.672 209.84 118.617C209.22 118.562 208.701 118.535 208.281 118.535C207.206 118.535 206.276 118.663 205.492 118.918C204.727 119.155 204.089 119.52 203.578 120.012C203.086 120.486 202.721 121.087 202.484 121.816C202.266 122.546 202.165 123.393 202.184 124.359L200.516 123.266C200.516 121.279 200.707 119.474 201.09 117.852C201.491 116.211 202.056 114.798 202.785 113.613C203.514 112.41 204.398 111.49 205.438 110.852C206.477 110.195 207.643 109.867 208.938 109.867C209.393 109.867 209.84 109.895 210.277 109.949C210.733 110.004 211.134 110.086 211.48 110.195ZM223.949 116.676V140H214.734V110.414H223.375L223.949 116.676ZM222.828 124.195L220.723 124.25C220.723 122.172 220.969 120.258 221.461 118.508C221.953 116.758 222.682 115.236 223.648 113.941C224.615 112.647 225.799 111.645 227.203 110.934C228.625 110.223 230.266 109.867 232.125 109.867C233.419 109.867 234.595 110.068 235.652 110.469C236.71 110.852 237.621 111.462 238.387 112.301C239.152 113.121 239.736 114.197 240.137 115.527C240.556 116.84 240.766 118.417 240.766 120.258V140H231.551V121.434C231.551 120.176 231.405 119.228 231.113 118.59C230.84 117.952 230.439 117.523 229.91 117.305C229.382 117.086 228.734 116.977 227.969 116.977C227.167 116.977 226.447 117.159 225.809 117.523C225.171 117.888 224.624 118.398 224.168 119.055C223.73 119.693 223.393 120.449 223.156 121.324C222.938 122.199 222.828 123.156 222.828 124.195ZM239.727 124.195L237.156 124.25C237.156 122.172 237.384 120.258 237.84 118.508C238.314 116.758 239.016 115.236 239.945 113.941C240.893 112.647 242.069 111.645 243.473 110.934C244.876 110.223 246.508 109.867 248.367 109.867C249.716 109.867 250.956 110.068 252.086 110.469C253.216 110.87 254.191 111.517 255.012 112.41C255.832 113.303 256.47 114.488 256.926 115.965C257.382 117.423 257.609 119.228 257.609 121.379V140H248.367V121.379C248.367 120.158 248.221 119.237 247.93 118.617C247.656 117.979 247.255 117.551 246.727 117.332C246.198 117.095 245.569 116.977 244.84 116.977C243.965 116.977 243.208 117.159 242.57 117.523C241.932 117.888 241.395 118.398 240.957 119.055C240.538 119.693 240.228 120.449 240.027 121.324C239.827 122.199 239.727 123.156 239.727 124.195ZM278.254 132.562V120.367C278.254 119.529 278.135 118.809 277.898 118.207C277.661 117.605 277.288 117.141 276.777 116.812C276.267 116.466 275.583 116.293 274.727 116.293C274.034 116.293 273.441 116.411 272.949 116.648C272.457 116.885 272.083 117.241 271.828 117.715C271.573 118.189 271.445 118.79 271.445 119.52H262.23C262.23 118.152 262.531 116.885 263.133 115.719C263.753 114.534 264.628 113.504 265.758 112.629C266.906 111.754 268.273 111.079 269.859 110.605C271.464 110.113 273.25 109.867 275.219 109.867C277.57 109.867 279.667 110.259 281.508 111.043C283.367 111.827 284.835 113.003 285.91 114.57C286.986 116.12 287.523 118.07 287.523 120.422V132.535C287.523 134.467 287.633 135.935 287.852 136.938C288.07 137.922 288.38 138.788 288.781 139.535V140H279.539C279.102 139.089 278.773 137.977 278.555 136.664C278.354 135.333 278.254 133.966 278.254 132.562ZM279.375 121.926L279.43 126.848H275.355C274.499 126.848 273.77 126.966 273.168 127.203C272.585 127.44 272.111 127.768 271.746 128.188C271.4 128.589 271.145 129.044 270.98 129.555C270.835 130.065 270.762 130.603 270.762 131.168C270.762 131.715 270.889 132.207 271.145 132.645C271.418 133.064 271.783 133.392 272.238 133.629C272.694 133.866 273.204 133.984 273.77 133.984C274.79 133.984 275.656 133.793 276.367 133.41C277.096 133.009 277.652 132.526 278.035 131.961C278.418 131.396 278.609 130.867 278.609 130.375L280.633 134.148C280.268 134.878 279.849 135.616 279.375 136.363C278.919 137.111 278.345 137.803 277.652 138.441C276.978 139.061 276.148 139.572 275.164 139.973C274.18 140.355 272.986 140.547 271.582 140.547C269.759 140.547 268.082 140.173 266.551 139.426C265.038 138.678 263.826 137.639 262.914 136.309C262.003 134.96 261.547 133.41 261.547 131.66C261.547 130.129 261.82 128.762 262.367 127.559C262.932 126.355 263.78 125.335 264.91 124.496C266.04 123.658 267.48 123.02 269.23 122.582C270.98 122.145 273.04 121.926 275.41 121.926H279.375ZM308.141 130.621L316.426 100.188H327.172L313.746 140H306.801L308.141 130.621ZM300.621 100.188L308.906 130.621L310.301 140H303.273L289.93 100.188H300.621ZM342.785 140.547C340.379 140.547 338.228 140.173 336.332 139.426C334.436 138.66 332.832 137.612 331.52 136.281C330.225 134.951 329.232 133.419 328.539 131.688C327.865 129.956 327.527 128.124 327.527 126.191V125.152C327.527 122.983 327.828 120.978 328.43 119.137C329.031 117.277 329.924 115.655 331.109 114.27C332.294 112.884 333.78 111.809 335.566 111.043C337.353 110.259 339.431 109.867 341.801 109.867C343.897 109.867 345.775 110.204 347.434 110.879C349.092 111.553 350.496 112.52 351.645 113.777C352.811 115.035 353.695 116.557 354.297 118.344C354.917 120.13 355.227 122.135 355.227 124.359V128.105H331.055V122.336H346.23V121.625C346.249 120.641 346.076 119.802 345.711 119.109C345.365 118.417 344.854 117.888 344.18 117.523C343.505 117.159 342.685 116.977 341.719 116.977C340.716 116.977 339.887 117.195 339.23 117.633C338.592 118.07 338.091 118.672 337.727 119.438C337.38 120.185 337.134 121.051 336.988 122.035C336.842 123.02 336.77 124.059 336.77 125.152V126.191C336.77 127.285 336.915 128.279 337.207 129.172C337.517 130.065 337.954 130.831 338.52 131.469C339.103 132.089 339.796 132.572 340.598 132.918C341.418 133.264 342.348 133.438 343.387 133.438C344.645 133.438 345.884 133.201 347.105 132.727C348.327 132.253 349.375 131.469 350.25 130.375L354.434 135.352C353.832 136.208 352.975 137.038 351.863 137.84C350.77 138.642 349.457 139.298 347.926 139.809C346.395 140.301 344.681 140.547 342.785 140.547ZM368.023 116.73V140H358.809V110.414H367.449L368.023 116.73ZM366.93 124.195L364.77 124.25C364.77 121.99 365.043 119.975 365.59 118.207C366.137 116.421 366.911 114.908 367.914 113.668C368.917 112.428 370.111 111.49 371.496 110.852C372.9 110.195 374.458 109.867 376.172 109.867C377.539 109.867 378.788 110.068 379.918 110.469C381.066 110.87 382.051 111.517 382.871 112.41C383.71 113.303 384.348 114.488 384.785 115.965C385.241 117.423 385.469 119.228 385.469 121.379V140H376.199V121.352C376.199 120.167 376.035 119.264 375.707 118.645C375.379 118.007 374.905 117.569 374.285 117.332C373.665 117.095 372.909 116.977 372.016 116.977C371.068 116.977 370.266 117.159 369.609 117.523C368.953 117.888 368.424 118.398 368.023 119.055C367.641 119.693 367.358 120.449 367.176 121.324C367.012 122.199 366.93 123.156 366.93 124.195ZM407.59 133.219V98H416.859V140H408.547L407.59 133.219ZM389.434 125.562V124.988C389.434 122.746 389.68 120.704 390.172 118.863C390.664 117.004 391.393 115.409 392.359 114.078C393.326 112.729 394.529 111.69 395.969 110.961C397.409 110.232 399.068 109.867 400.945 109.867C402.622 109.867 404.09 110.259 405.348 111.043C406.605 111.809 407.681 112.884 408.574 114.27C409.467 115.655 410.197 117.277 410.762 119.137C411.327 120.978 411.755 122.965 412.047 125.098V125.781C411.755 127.786 411.327 129.682 410.762 131.469C410.197 133.237 409.467 134.805 408.574 136.172C407.681 137.539 406.596 138.615 405.32 139.398C404.062 140.164 402.586 140.547 400.891 140.547C399.013 140.547 397.354 140.173 395.914 139.426C394.492 138.678 393.298 137.63 392.332 136.281C391.384 134.932 390.664 133.346 390.172 131.523C389.68 129.701 389.434 127.714 389.434 125.562ZM398.648 124.988V125.562C398.648 126.674 398.721 127.704 398.867 128.652C399.013 129.6 399.259 130.439 399.605 131.168C399.97 131.879 400.444 132.435 401.027 132.836C401.629 133.237 402.367 133.438 403.242 133.438C404.427 133.438 405.402 133.155 406.168 132.59C406.952 132.025 407.526 131.223 407.891 130.184C408.273 129.145 408.438 127.923 408.383 126.52V124.359C408.419 123.156 408.337 122.099 408.137 121.188C407.936 120.258 407.617 119.483 407.18 118.863C406.76 118.243 406.223 117.779 405.566 117.469C404.928 117.141 404.172 116.977 403.297 116.977C402.44 116.977 401.711 117.177 401.109 117.578C400.526 117.979 400.052 118.544 399.688 119.273C399.323 119.984 399.059 120.832 398.895 121.816C398.73 122.783 398.648 123.84 398.648 124.988Z" fill="black"/>
<mask id="mask0_403_43" style="mask-type:luminance" maskUnits="userSpaceOnUse" x="1066" y="0" width="297" height="297">
<path d="M1066 5.00001C1066 2.23858 1068.24 0 1071 0H1348C1356.28 0 1363 6.71573 1363 15V282C1363 290.284 1356.28 297 1348 297H1071C1068.24 297 1066 294.761 1066 292V5.00001Z" fill="white"/>
</mask>
<g mask="url(#mask0_403_43)">
<path d="M1066 10C1066 7.23858 1068.24 5 1071 5H1348C1356.28 5 1363 11.467 1363 19.4444V276.556C1363 284.533 1356.28 291 1348 291H1071C1068.24 291 1066 288.761 1066 286V10Z" fill="white"/>
<path d="M1216.86 230.178C1197.47 230.178 1181.69 213.901 1181.69 193.886V82.6871C1181.69 62.6718 1197.47 46.3953 1216.86 46.3953C1236.25 46.3953 1252.03 62.6718 1252.03 82.6871V193.886C1252.03 213.891 1236.25 230.178 1216.86 230.178Z" stroke="#006937" stroke-width="5" stroke-miterlimit="10"/>
<path d="M1176.85 138.282H1256.69C1259.45 138.282 1261.69 140.503 1261.69 143.264C1261.69 155.009 1261.69 184.293 1261.69 195.632C1261.69 209.967 1249.2 240.806 1216.85 240.495C1184.51 240.196 1172.41 209.636 1172.21 198.286C1172.05 189.12 1172.02 155.684 1172.01 143.108C1172.01 140.435 1174.18 138.282 1176.85 138.282V138.282Z" fill="#22B573"/>
<path d="M1216.86 235.342C1194.8 235.342 1176.85 216.742 1176.85 193.886V82.6871C1176.85 59.8317 1194.8 41.2313 1216.86 41.2313C1238.92 41.2313 1256.87 59.8317 1256.87 82.6871V193.886C1256.87 216.742 1238.92 235.342 1216.86 235.342Z" stroke="white" stroke-width="5" stroke-miterlimit="10"/>
<path d="M1261.7 138.282H1172.03" stroke="#006937" stroke-width="5" stroke-miterlimit="10"/>
<path d="M1259.28 133.169H1174.46" stroke="white" stroke-width="5" stroke-miterlimit="10"/>
<path d="M1248.99 140.915H1256.7C1259.46 140.915 1261.7 143.138 1261.7 145.899C1261.7 157.546 1261.7 186.407 1261.7 197.604C1261.7 210.855 1249.6 236.966 1225.7 241.36C1222.9 241.875 1220.5 239.568 1220.5 236.716V145.915C1220.5 143.154 1222.74 140.915 1225.5 140.915H1248.99Z" fill="#22B573"/>
<path d="M1216.86 36.0675C1192.09 36.0675 1172.02 56.9399 1172.02 82.687V193.886C1172.02 219.634 1192.09 240.506 1216.86 240.506C1241.63 240.506 1261.7 219.634 1261.7 193.886V82.687C1261.7 56.9399 1241.63 36.0675 1216.86 36.0675Z" stroke="#006937" stroke-width="5" stroke-miterlimit="10"/>
<path d="M1223.1 41.8313C1219.93 41.0246 1216.86 43.4132 1216.86 46.6761V49.2127C1216.86 51.2284 1218.07 53.0469 1219.93 53.8251L1235.93 60.5196C1237.4 61.1385 1238.5 62.4289 1238.86 63.9896L1242.47 79.3437C1242.54 79.6374 1242.58 79.9367 1242.59 80.238L1243.88 106.162L1246.48 126.628C1246.79 129.023 1248.76 130.858 1251.17 130.99L1251.46 131.006C1254.38 131.165 1256.81 128.804 1256.73 125.887L1255.39 72.7218C1255.37 71.8679 1255.13 71.0338 1254.7 70.2989L1244.63 53.3152C1244.23 52.6362 1243.67 52.0621 1243.01 51.6399L1231.17 44.1449C1230.73 43.8638 1230.24 43.6543 1229.73 43.5244L1223.1 41.8313Z" fill="white"/>
<path d="M1188.54 99.5625C1188.54 96.8011 1186.3 94.5537 1183.54 94.5537H1181.85C1179.09 94.5537 1176.85 96.8011 1176.85 99.5625V99.5625C1176.85 102.324 1179.09 104.571 1181.85 104.571H1183.54C1186.3 104.571 1188.54 102.324 1188.54 99.5625V99.5625Z" fill="white"/>
<path d="M1216.87 189.528C1230.47 189.528 1241.49 181.774 1241.49 172.208C1241.49 162.643 1230.47 154.889 1216.87 154.889C1203.27 154.889 1192.25 162.643 1192.25 172.208C1192.25 181.774 1203.27 189.528 1216.87 189.528Z" fill="#006838"/>
<path d="M1231.55 201.035C1231.55 198.273 1229.31 196.035 1226.55 196.035H1207.65C1204.89 196.035 1202.65 198.273 1202.65 201.035V210.11C1202.65 212.871 1204.89 215.11 1207.65 215.11H1226.55C1229.31 215.11 1231.55 212.871 1231.55 210.11V201.035Z" fill="#006838"/>
<path d="M1202.65 214.155C1202.65 214.676 1203.07 215.099 1203.59 215.099H1226.55C1229.31 215.099 1231.55 212.861 1231.55 210.099V196.785C1231.55 196.37 1231.21 196.035 1230.8 196.035V196.035C1230.39 196.035 1230.05 196.37 1230.05 196.785V208.21C1230.05 210.971 1227.81 213.21 1225.05 213.21H1203.59C1203.07 213.21 1202.65 213.633 1202.65 214.155V214.155Z" fill="white"/>
<path d="M1232.91 163.724C1232.91 162.9 1232.24 162.232 1231.42 162.232H1202.78C1201.96 162.232 1201.29 162.9 1201.29 163.724V163.724C1201.29 164.549 1201.96 165.217 1202.78 165.217H1231.42C1232.24 165.217 1232.91 164.549 1232.91 163.724V163.724Z" fill="white"/>
<path d="M1232.67 170.406C1232.67 169.582 1232 168.914 1231.18 168.914H1202.54C1201.72 168.914 1201.05 169.582 1201.05 170.406V170.406C1201.05 171.231 1201.72 171.899 1202.54 171.899H1231.18C1232 171.899 1232.67 171.231 1232.67 170.406V170.406Z" fill="white"/>
<path d="M1232.67 177.884C1232.67 177.059 1232 176.391 1231.18 176.391H1202.54C1201.72 176.391 1201.05 177.059 1201.05 177.884V177.884C1201.05 178.708 1201.72 179.376 1202.54 179.376H1231.18C1232 179.376 1232.67 178.708 1232.67 177.884V177.884Z" fill="white"/>
</g>
</g>
<defs>
<clipPath id="clip0_403_43">
<rect width="1363" height="297" fill="white"/>
</clipPath>
<clipPath id="clip1_403_43">
<rect width="917" height="77" fill="white" transform="translate(93 182)"/>
</clipPath>
</defs>
</svg>
