<svg width="1363" height="163" viewBox="0 0 1363 163" fill="none" xmlns="http://www.w3.org/2000/svg">
<path d="M0 15C0 6.71573 6.71573 0 15 0H37V163H15C6.71573 163 0 156.284 0 148V15Z" fill="#424242"/>
<rect width="1097" height="163" transform="translate(37)" fill="#F0F0F0"/>
<path d="M101.906 53.9219L94.3945 51.2383V48.0859L104.602 52.375V54.6367L101.906 53.9219ZM94.3945 56.1719L101.918 53.4297L104.602 52.7852V55.0352L94.3945 59.3242V56.1719ZM119.543 54.918H115.195V52.1758H119.543C120.215 52.1758 120.762 52.0664 121.184 51.8477C121.605 51.6211 121.914 51.3086 122.109 50.9102C122.305 50.5117 122.402 50.0625 122.402 49.5625C122.402 49.0547 122.305 48.582 122.109 48.1445C121.914 47.707 121.605 47.3555 121.184 47.0898C120.762 46.8242 120.215 46.6914 119.543 46.6914H116.414V61H112.898V43.9375H119.543C120.879 43.9375 122.023 44.1797 122.977 44.6641C123.938 45.1406 124.672 45.8008 125.18 46.6445C125.688 47.4883 125.941 48.4531 125.941 49.5391C125.941 50.6406 125.688 51.5938 125.18 52.3984C124.672 53.2031 123.938 53.8242 122.977 54.2617C122.023 54.6992 120.879 54.918 119.543 54.918ZM131.449 43V61H128.074V43H131.449ZM130.969 54.2148H130.043C130.051 53.332 130.168 52.5195 130.395 51.7773C130.621 51.0273 130.945 50.3789 131.367 49.832C131.789 49.2773 132.293 48.8477 132.879 48.543C133.473 48.2383 134.129 48.0859 134.848 48.0859C135.473 48.0859 136.039 48.1758 136.547 48.3555C137.062 48.5273 137.504 48.8086 137.871 49.1992C138.246 49.582 138.535 50.0859 138.738 50.7109C138.941 51.3359 139.043 52.0938 139.043 52.9844V61H135.645V52.9609C135.645 52.3984 135.562 51.957 135.398 51.6367C135.242 51.3086 135.012 51.0781 134.707 50.9453C134.41 50.8047 134.043 50.7344 133.605 50.7344C133.121 50.7344 132.707 50.8242 132.363 51.0039C132.027 51.1836 131.758 51.4336 131.555 51.7539C131.352 52.0664 131.203 52.4336 131.109 52.8555C131.016 53.2773 130.969 53.7305 130.969 54.2148ZM148.453 58.1406V52.4922C148.453 52.0859 148.387 51.7383 148.254 51.4492C148.121 51.1523 147.914 50.9219 147.633 50.7578C147.359 50.5938 147.004 50.5117 146.566 50.5117C146.191 50.5117 145.867 50.5781 145.594 50.7109C145.32 50.8359 145.109 51.0195 144.961 51.2617C144.812 51.4961 144.738 51.7734 144.738 52.0938H141.363C141.363 51.5547 141.488 51.043 141.738 50.5586C141.988 50.0742 142.352 49.6484 142.828 49.2812C143.305 48.9062 143.871 48.6133 144.527 48.4023C145.191 48.1914 145.934 48.0859 146.754 48.0859C147.738 48.0859 148.613 48.25 149.379 48.5781C150.145 48.9062 150.746 49.3984 151.184 50.0547C151.629 50.7109 151.852 51.5312 151.852 52.5156V57.9414C151.852 58.6367 151.895 59.207 151.98 59.6523C152.066 60.0898 152.191 60.4727 152.355 60.8008V61H148.945C148.781 60.6562 148.656 60.2266 148.57 59.7109C148.492 59.1875 148.453 58.6641 148.453 58.1406ZM148.898 53.2773L148.922 55.1875H147.035C146.59 55.1875 146.203 55.2383 145.875 55.3398C145.547 55.4414 145.277 55.5859 145.066 55.7734C144.855 55.9531 144.699 56.1641 144.598 56.4062C144.504 56.6484 144.457 56.9141 144.457 57.2031C144.457 57.4922 144.523 57.7539 144.656 57.9883C144.789 58.2148 144.98 58.3945 145.23 58.5273C145.48 58.6523 145.773 58.7148 146.109 58.7148C146.617 58.7148 147.059 58.6133 147.434 58.4102C147.809 58.207 148.098 57.957 148.301 57.6602C148.512 57.3633 148.621 57.082 148.629 56.8164L149.52 58.2461C149.395 58.5664 149.223 58.8984 149.004 59.2422C148.793 59.5859 148.523 59.9102 148.195 60.2148C147.867 60.5117 147.473 60.7578 147.012 60.9531C146.551 61.1406 146.004 61.2344 145.371 61.2344C144.566 61.2344 143.836 61.0742 143.18 60.7539C142.531 60.4258 142.016 59.9766 141.633 59.4062C141.258 58.8281 141.07 58.1719 141.07 57.4375C141.07 56.7734 141.195 56.1836 141.445 55.668C141.695 55.1523 142.062 54.7188 142.547 54.3672C143.039 54.0078 143.652 53.7383 144.387 53.5586C145.121 53.3711 145.973 53.2773 146.941 53.2773H148.898ZM157.828 51.0859V61H154.453V48.3203H157.629L157.828 51.0859ZM161.648 48.2383L161.59 51.3672C161.426 51.3438 161.227 51.3242 160.992 51.3086C160.766 51.2852 160.559 51.2734 160.371 51.2734C159.895 51.2734 159.48 51.3359 159.129 51.4609C158.785 51.5781 158.496 51.7539 158.262 51.9883C158.035 52.2227 157.863 52.5078 157.746 52.8438C157.637 53.1797 157.574 53.5625 157.559 53.9922L156.879 53.7812C156.879 52.9609 156.961 52.207 157.125 51.5195C157.289 50.8242 157.527 50.2188 157.84 49.7031C158.16 49.1875 158.551 48.7891 159.012 48.5078C159.473 48.2266 160 48.0859 160.594 48.0859C160.781 48.0859 160.973 48.1016 161.168 48.1328C161.363 48.1562 161.523 48.1914 161.648 48.2383ZM166.617 50.9453V61H163.23V48.3203H166.406L166.617 50.9453ZM166.148 54.2148H165.211C165.211 53.332 165.316 52.5195 165.527 51.7773C165.746 51.0273 166.062 50.3789 166.477 49.832C166.898 49.2773 167.418 48.8477 168.035 48.543C168.652 48.2383 169.367 48.0859 170.18 48.0859C170.742 48.0859 171.258 48.1719 171.727 48.3438C172.195 48.5078 172.598 48.7695 172.934 49.1289C173.277 49.4805 173.543 49.9414 173.73 50.5117C173.918 51.0742 174.012 51.75 174.012 52.5391V61H170.637V52.9141C170.637 52.3359 170.559 51.8906 170.402 51.5781C170.246 51.2656 170.023 51.0469 169.734 50.9219C169.453 50.7969 169.113 50.7344 168.715 50.7344C168.277 50.7344 167.895 50.8242 167.566 51.0039C167.246 51.1836 166.98 51.4336 166.77 51.7539C166.559 52.0664 166.402 52.4336 166.301 52.8555C166.199 53.2773 166.148 53.7305 166.148 54.2148ZM173.695 53.8281L172.488 53.9805C172.488 53.1523 172.59 52.3828 172.793 51.6719C173.004 50.9609 173.312 50.3359 173.719 49.7969C174.133 49.2578 174.645 48.8398 175.254 48.543C175.863 48.2383 176.566 48.0859 177.363 48.0859C177.973 48.0859 178.527 48.1758 179.027 48.3555C179.527 48.5273 179.953 48.8047 180.305 49.1875C180.664 49.5625 180.938 50.0547 181.125 50.6641C181.32 51.2734 181.418 52.0195 181.418 52.9023V61H178.031V52.9023C178.031 52.3164 177.953 51.8711 177.797 51.5664C177.648 51.2539 177.43 51.0391 177.141 50.9219C176.859 50.7969 176.523 50.7344 176.133 50.7344C175.727 50.7344 175.371 50.8164 175.066 50.9805C174.762 51.1367 174.508 51.3555 174.305 51.6367C174.102 51.918 173.949 52.2461 173.848 52.6211C173.746 52.9883 173.695 53.3906 173.695 53.8281ZM190.875 58.1406V52.4922C190.875 52.0859 190.809 51.7383 190.676 51.4492C190.543 51.1523 190.336 50.9219 190.055 50.7578C189.781 50.5938 189.426 50.5117 188.988 50.5117C188.613 50.5117 188.289 50.5781 188.016 50.7109C187.742 50.8359 187.531 51.0195 187.383 51.2617C187.234 51.4961 187.16 51.7734 187.16 52.0938H183.785C183.785 51.5547 183.91 51.043 184.16 50.5586C184.41 50.0742 184.773 49.6484 185.25 49.2812C185.727 48.9062 186.293 48.6133 186.949 48.4023C187.613 48.1914 188.355 48.0859 189.176 48.0859C190.16 48.0859 191.035 48.25 191.801 48.5781C192.566 48.9062 193.168 49.3984 193.605 50.0547C194.051 50.7109 194.273 51.5312 194.273 52.5156V57.9414C194.273 58.6367 194.316 59.207 194.402 59.6523C194.488 60.0898 194.613 60.4727 194.777 60.8008V61H191.367C191.203 60.6562 191.078 60.2266 190.992 59.7109C190.914 59.1875 190.875 58.6641 190.875 58.1406ZM191.32 53.2773L191.344 55.1875H189.457C189.012 55.1875 188.625 55.2383 188.297 55.3398C187.969 55.4414 187.699 55.5859 187.488 55.7734C187.277 55.9531 187.121 56.1641 187.02 56.4062C186.926 56.6484 186.879 56.9141 186.879 57.2031C186.879 57.4922 186.945 57.7539 187.078 57.9883C187.211 58.2148 187.402 58.3945 187.652 58.5273C187.902 58.6523 188.195 58.7148 188.531 58.7148C189.039 58.7148 189.48 58.6133 189.855 58.4102C190.23 58.207 190.52 57.957 190.723 57.6602C190.934 57.3633 191.043 57.082 191.051 56.8164L191.941 58.2461C191.816 58.5664 191.645 58.8984 191.426 59.2422C191.215 59.5859 190.945 59.9102 190.617 60.2148C190.289 60.5117 189.895 60.7578 189.434 60.9531C188.973 61.1406 188.426 61.2344 187.793 61.2344C186.988 61.2344 186.258 61.0742 185.602 60.7539C184.953 60.4258 184.438 59.9766 184.055 59.4062C183.68 58.8281 183.492 58.1719 183.492 57.4375C183.492 56.7734 183.617 56.1836 183.867 55.668C184.117 55.1523 184.484 54.7188 184.969 54.3672C185.461 54.0078 186.074 53.7383 186.809 53.5586C187.543 53.3711 188.395 53.2773 189.363 53.2773H191.32ZM203.238 57.4375L207.258 43.9375H211.172L205.23 61H202.652L203.238 57.4375ZM199.535 43.9375L203.543 57.4375L204.152 61H201.551L195.645 43.9375H199.535ZM217.875 61.2344C216.891 61.2344 216.008 61.0781 215.227 60.7656C214.445 60.4453 213.781 60.0039 213.234 59.4414C212.695 58.8789 212.281 58.2266 211.992 57.4844C211.703 56.7344 211.559 55.9375 211.559 55.0938V54.625C211.559 53.6641 211.695 52.7852 211.969 51.9883C212.242 51.1914 212.633 50.5 213.141 49.9141C213.656 49.3281 214.281 48.8789 215.016 48.5664C215.75 48.2461 216.578 48.0859 217.5 48.0859C218.398 48.0859 219.195 48.2344 219.891 48.5312C220.586 48.8281 221.168 49.25 221.637 49.7969C222.113 50.3438 222.473 51 222.715 51.7656C222.957 52.5234 223.078 53.3672 223.078 54.2969V55.7031H213V53.4531H219.762V53.1953C219.762 52.7266 219.676 52.3086 219.504 51.9414C219.34 51.5664 219.09 51.2695 218.754 51.0508C218.418 50.832 217.988 50.7227 217.465 50.7227C217.02 50.7227 216.637 50.8203 216.316 51.0156C215.996 51.2109 215.734 51.4844 215.531 51.8359C215.336 52.1875 215.188 52.6016 215.086 53.0781C214.992 53.5469 214.945 54.0625 214.945 54.625V55.0938C214.945 55.6016 215.016 56.0703 215.156 56.5C215.305 56.9297 215.512 57.3008 215.777 57.6133C216.051 57.9258 216.379 58.168 216.762 58.3398C217.152 58.5117 217.594 58.5977 218.086 58.5977C218.695 58.5977 219.262 58.4805 219.785 58.2461C220.316 58.0039 220.773 57.6406 221.156 57.1562L222.797 58.9375C222.531 59.3203 222.168 59.6875 221.707 60.0391C221.254 60.3906 220.707 60.6797 220.066 60.9062C219.426 61.125 218.695 61.2344 217.875 61.2344ZM228.305 51.0273V61H224.93V48.3203H228.094L228.305 51.0273ZM227.812 54.2148H226.898C226.898 53.2773 227.02 52.4336 227.262 51.6836C227.504 50.9258 227.844 50.2812 228.281 49.75C228.719 49.2109 229.238 48.8008 229.84 48.5195C230.449 48.2305 231.129 48.0859 231.879 48.0859C232.473 48.0859 233.016 48.1719 233.508 48.3438C234 48.5156 234.422 48.7891 234.773 49.1641C235.133 49.5391 235.406 50.0352 235.594 50.6523C235.789 51.2695 235.887 52.0234 235.887 52.9141V61H232.488V52.9023C232.488 52.3398 232.41 51.9023 232.254 51.5898C232.098 51.2773 231.867 51.0586 231.562 50.9336C231.266 50.8008 230.898 50.7344 230.461 50.7344C230.008 50.7344 229.613 50.8242 229.277 51.0039C228.949 51.1836 228.676 51.4336 228.457 51.7539C228.246 52.0664 228.086 52.4336 227.977 52.8555C227.867 53.2773 227.812 53.7305 227.812 54.2148ZM245.941 58.2344V43H249.34V61H246.281L245.941 58.2344ZM237.926 54.8125V54.5664C237.926 53.5977 238.035 52.7188 238.254 51.9297C238.473 51.1328 238.793 50.4492 239.215 49.8789C239.637 49.3086 240.156 48.8672 240.773 48.5547C241.391 48.2422 242.094 48.0859 242.883 48.0859C243.625 48.0859 244.273 48.2422 244.828 48.5547C245.391 48.8672 245.867 49.3125 246.258 49.8906C246.656 50.4609 246.977 51.1367 247.219 51.918C247.461 52.6914 247.637 53.5391 247.746 54.4609V55C247.637 55.8828 247.461 56.7031 247.219 57.4609C246.977 58.2188 246.656 58.8828 246.258 59.4531C245.867 60.0156 245.391 60.4531 244.828 60.7656C244.266 61.0781 243.609 61.2344 242.859 61.2344C242.07 61.2344 241.367 61.0742 240.75 60.7539C240.141 60.4336 239.625 59.9844 239.203 59.4062C238.789 58.8281 238.473 58.1484 238.254 57.3672C238.035 56.5859 237.926 55.7344 237.926 54.8125ZM241.301 54.5664V54.8125C241.301 55.3359 241.34 55.8242 241.418 56.2773C241.504 56.7305 241.641 57.1328 241.828 57.4844C242.023 57.8281 242.273 58.0977 242.578 58.293C242.891 58.4805 243.27 58.5742 243.715 58.5742C244.293 58.5742 244.77 58.4453 245.145 58.1875C245.52 57.9219 245.805 57.5586 246 57.0977C246.203 56.6367 246.32 56.1055 246.352 55.5039V53.9688C246.328 53.4766 246.258 53.0352 246.141 52.6445C246.031 52.2461 245.867 51.9062 245.648 51.625C245.438 51.3438 245.172 51.125 244.852 50.9688C244.539 50.8125 244.168 50.7344 243.738 50.7344C243.301 50.7344 242.926 50.8359 242.613 51.0391C242.301 51.2344 242.047 51.5039 241.852 51.8477C241.664 52.1914 241.523 52.5977 241.43 53.0664C241.344 53.5273 241.301 54.0273 241.301 54.5664Z" fill="#888888"/>
<path d="M110.062 92.0469L101.742 119H92.9062L105.445 84.875H111.047L110.062 92.0469ZM116.953 119L108.609 92.0469L107.531 84.875H113.203L125.812 119H116.953ZM116.625 106.273V112.625H99.1172V106.273H116.625ZM135.258 115.906L142.055 84.875H146.109L148.312 87.5234L141.07 119H136.594L135.258 115.906ZM133.453 84.875L139.195 116.141L137.719 119H132.539L125.297 84.875H133.453ZM152.039 115.977L157.734 84.875H165.867L158.625 119H153.469L152.039 115.977ZM149.039 84.875L156 116.094L154.594 119H150.117L142.711 87.4766L145.008 84.875H149.039ZM186.68 109.93C186.68 109.398 186.602 108.922 186.445 108.5C186.289 108.062 186 107.656 185.578 107.281C185.156 106.906 184.547 106.531 183.75 106.156C182.969 105.766 181.938 105.359 180.656 104.938C179.156 104.438 177.711 103.875 176.32 103.25C174.93 102.609 173.688 101.867 172.594 101.023C171.5 100.164 170.633 99.1641 169.992 98.0234C169.352 96.8672 169.031 95.5234 169.031 93.9922C169.031 92.5234 169.359 91.2031 170.016 90.0312C170.672 88.8438 171.586 87.8359 172.758 87.0078C173.945 86.1641 175.336 85.5234 176.93 85.0859C178.523 84.6328 180.266 84.4062 182.156 84.4062C184.656 84.4062 186.859 84.8438 188.766 85.7188C190.688 86.5781 192.188 87.8047 193.266 89.3984C194.359 90.9766 194.906 92.8438 194.906 95H186.727C186.727 94.1406 186.547 93.3828 186.188 92.7266C185.844 92.0703 185.32 91.5547 184.617 91.1797C183.914 90.8047 183.031 90.6172 181.969 90.6172C180.938 90.6172 180.07 90.7734 179.367 91.0859C178.664 91.3984 178.133 91.8203 177.773 92.3516C177.414 92.8672 177.234 93.4375 177.234 94.0625C177.234 94.5781 177.375 95.0469 177.656 95.4688C177.953 95.875 178.367 96.2578 178.898 96.6172C179.445 96.9766 180.102 97.3203 180.867 97.6484C181.648 97.9766 182.523 98.2969 183.492 98.6094C185.305 99.1875 186.914 99.8359 188.32 100.555C189.742 101.258 190.938 102.062 191.906 102.969C192.891 103.859 193.633 104.875 194.133 106.016C194.648 107.156 194.906 108.445 194.906 109.883C194.906 111.414 194.609 112.773 194.016 113.961C193.422 115.148 192.57 116.156 191.461 116.984C190.352 117.797 189.023 118.414 187.477 118.836C185.93 119.258 184.203 119.469 182.297 119.469C180.547 119.469 178.82 119.25 177.117 118.812C175.43 118.359 173.898 117.672 172.523 116.75C171.148 115.812 170.047 114.617 169.219 113.164C168.406 111.695 168 109.953 168 107.938H176.25C176.25 108.938 176.383 109.781 176.648 110.469C176.914 111.156 177.305 111.711 177.82 112.133C178.336 112.539 178.969 112.836 179.719 113.023C180.469 113.195 181.328 113.281 182.297 113.281C183.344 113.281 184.188 113.133 184.828 112.836C185.469 112.523 185.938 112.117 186.234 111.617C186.531 111.102 186.68 110.539 186.68 109.93ZM222.188 119H214.617L214.664 112.672H222.188C223.75 112.672 225.07 112.297 226.148 111.547C227.242 110.797 228.07 109.68 228.633 108.195C229.211 106.695 229.5 104.852 229.5 102.664V101.188C229.5 99.5469 229.336 98.1094 229.008 96.875C228.695 95.625 228.227 94.5859 227.602 93.7578C226.977 92.9141 226.195 92.2812 225.258 91.8594C224.336 91.4375 223.273 91.2266 222.07 91.2266H214.477V84.875H222.07C224.383 84.875 226.5 85.2734 228.422 86.0703C230.359 86.8516 232.031 87.9766 233.438 89.4453C234.859 90.8984 235.953 92.625 236.719 94.625C237.5 96.6094 237.891 98.8125 237.891 101.234V102.664C237.891 105.07 237.5 107.273 236.719 109.273C235.953 111.273 234.867 113 233.461 114.453C232.055 115.906 230.391 117.031 228.469 117.828C226.562 118.609 224.469 119 222.188 119ZM219.328 84.875V119H211.102V84.875H219.328ZM254.086 119.469C252.023 119.469 250.18 119.148 248.555 118.508C246.93 117.852 245.555 116.953 244.43 115.812C243.32 114.672 242.469 113.359 241.875 111.875C241.297 110.391 241.008 108.82 241.008 107.164V106.273C241.008 104.414 241.266 102.695 241.781 101.117C242.297 99.5234 243.062 98.1328 244.078 96.9453C245.094 95.7578 246.367 94.8359 247.898 94.1797C249.43 93.5078 251.211 93.1719 253.242 93.1719C255.039 93.1719 256.648 93.4609 258.07 94.0391C259.492 94.6172 260.695 95.4453 261.68 96.5234C262.68 97.6016 263.438 98.9062 263.953 100.438C264.484 101.969 264.75 103.688 264.75 105.594V108.805H244.031V103.859H257.039V103.25C257.055 102.406 256.906 101.688 256.594 101.094C256.297 100.5 255.859 100.047 255.281 99.7344C254.703 99.4219 254 99.2656 253.172 99.2656C252.312 99.2656 251.602 99.4531 251.039 99.8281C250.492 100.203 250.062 100.719 249.75 101.375C249.453 102.016 249.242 102.758 249.117 103.602C248.992 104.445 248.93 105.336 248.93 106.273V107.164C248.93 108.102 249.055 108.953 249.305 109.719C249.57 110.484 249.945 111.141 250.43 111.688C250.93 112.219 251.523 112.633 252.211 112.93C252.914 113.227 253.711 113.375 254.602 113.375C255.68 113.375 256.742 113.172 257.789 112.766C258.836 112.359 259.734 111.688 260.484 110.75L264.07 115.016C263.555 115.75 262.82 116.461 261.867 117.148C260.93 117.836 259.805 118.398 258.492 118.836C257.18 119.258 255.711 119.469 254.086 119.469ZM275.93 98.5156V128.75H268.031V93.6406H275.391L275.93 98.5156ZM291.492 106.016V106.508C291.492 108.352 291.281 110.062 290.859 111.641C290.438 113.219 289.812 114.594 288.984 115.766C288.156 116.938 287.125 117.852 285.891 118.508C284.672 119.148 283.258 119.469 281.648 119.469C280.133 119.469 278.828 119.133 277.734 118.461C276.641 117.789 275.727 116.859 274.992 115.672C274.258 114.484 273.664 113.125 273.211 111.594C272.758 110.062 272.398 108.445 272.133 106.742V106.109C272.398 104.281 272.758 102.586 273.211 101.023C273.664 99.4453 274.258 98.0703 274.992 96.8984C275.727 95.7266 276.633 94.8125 277.711 94.1562C278.805 93.5 280.109 93.1719 281.625 93.1719C283.234 93.1719 284.648 93.4766 285.867 94.0859C287.102 94.6953 288.133 95.5703 288.961 96.7109C289.805 97.8359 290.438 99.1875 290.859 100.766C291.281 102.344 291.492 104.094 291.492 106.016ZM283.594 106.508V106.016C283.594 105.031 283.523 104.133 283.383 103.32C283.242 102.492 283.016 101.773 282.703 101.164C282.406 100.555 282.008 100.086 281.508 99.7578C281.008 99.4297 280.391 99.2656 279.656 99.2656C278.812 99.2656 278.102 99.3984 277.523 99.6641C276.961 99.9141 276.508 100.305 276.164 100.836C275.836 101.352 275.602 102 275.461 102.781C275.336 103.547 275.281 104.445 275.297 105.477V107.398C275.266 108.586 275.383 109.633 275.648 110.539C275.914 111.43 276.375 112.125 277.031 112.625C277.688 113.125 278.578 113.375 279.703 113.375C280.453 113.375 281.078 113.203 281.578 112.859C282.078 112.5 282.477 112.008 282.773 111.383C283.07 110.742 283.281 110.008 283.406 109.18C283.531 108.352 283.594 107.461 283.594 106.508ZM303.352 83V119H295.43V83H303.352ZM307.242 106.578V106.086C307.242 104.227 307.508 102.516 308.039 100.953C308.57 99.375 309.352 98.0078 310.383 96.8516C311.414 95.6953 312.688 94.7969 314.203 94.1562C315.719 93.5 317.469 93.1719 319.453 93.1719C321.453 93.1719 323.211 93.5 324.727 94.1562C326.258 94.7969 327.539 95.6953 328.57 96.8516C329.602 98.0078 330.383 99.375 330.914 100.953C331.445 102.516 331.711 104.227 331.711 106.086V106.578C331.711 108.422 331.445 110.133 330.914 111.711C330.383 113.273 329.602 114.641 328.57 115.812C327.539 116.969 326.266 117.867 324.75 118.508C323.234 119.148 321.484 119.469 319.5 119.469C317.516 119.469 315.758 119.148 314.227 118.508C312.695 117.867 311.414 116.969 310.383 115.812C309.352 114.641 308.57 113.273 308.039 111.711C307.508 110.133 307.242 108.422 307.242 106.578ZM315.141 106.086V106.578C315.141 107.531 315.211 108.422 315.352 109.25C315.492 110.078 315.727 110.805 316.055 111.43C316.383 112.039 316.828 112.516 317.391 112.859C317.953 113.203 318.656 113.375 319.5 113.375C320.328 113.375 321.016 113.203 321.562 112.859C322.125 112.516 322.57 112.039 322.898 111.43C323.227 110.805 323.461 110.078 323.602 109.25C323.742 108.422 323.812 107.531 323.812 106.578V106.086C323.812 105.164 323.742 104.297 323.602 103.484C323.461 102.656 323.227 101.93 322.898 101.305C322.57 100.664 322.125 100.164 321.562 99.8047C321 99.4453 320.297 99.2656 319.453 99.2656C318.625 99.2656 317.93 99.4453 317.367 99.8047C316.82 100.164 316.383 100.664 316.055 101.305C315.727 101.93 315.492 102.656 315.352 103.484C315.211 104.297 315.141 105.164 315.141 106.086ZM342.633 116.023L349.195 93.6406H357.68L347.484 122.773C347.266 123.414 346.977 124.102 346.617 124.836C346.258 125.586 345.766 126.297 345.141 126.969C344.516 127.641 343.711 128.188 342.727 128.609C341.758 129.031 340.555 129.242 339.117 129.242C338.352 129.242 337.789 129.203 337.43 129.125C337.086 129.062 336.555 128.945 335.836 128.773V123.125C336.039 123.125 336.211 123.125 336.352 123.125C336.508 123.125 336.68 123.125 336.867 123.125C337.711 123.125 338.383 123.039 338.883 122.867C339.398 122.695 339.789 122.445 340.055 122.117C340.336 121.789 340.555 121.391 340.711 120.922L342.633 116.023ZM340.969 93.6406L345.961 111.383L346.828 119.75H341.531L332.508 93.6406H340.969ZM367.711 99.0078V119H359.812V93.6406H367.219L367.711 99.0078ZM366.75 105.453L364.945 105.5C364.945 103.719 365.156 102.078 365.578 100.578C366 99.0781 366.625 97.7734 367.453 96.6641C368.281 95.5547 369.297 94.6953 370.5 94.0859C371.719 93.4766 373.125 93.1719 374.719 93.1719C375.828 93.1719 376.836 93.3438 377.742 93.6875C378.648 94.0156 379.43 94.5391 380.086 95.2578C380.742 95.9609 381.242 96.8828 381.586 98.0234C381.945 99.1484 382.125 100.5 382.125 102.078V119H374.227V103.086C374.227 102.008 374.102 101.195 373.852 100.648C373.617 100.102 373.273 99.7344 372.82 99.5469C372.367 99.3594 371.812 99.2656 371.156 99.2656C370.469 99.2656 369.852 99.4219 369.305 99.7344C368.758 100.047 368.289 100.484 367.898 101.047C367.523 101.594 367.234 102.242 367.031 102.992C366.844 103.742 366.75 104.562 366.75 105.453ZM381.234 105.453L379.031 105.5C379.031 103.719 379.227 102.078 379.617 100.578C380.023 99.0781 380.625 97.7734 381.422 96.6641C382.234 95.5547 383.242 94.6953 384.445 94.0859C385.648 93.4766 387.047 93.1719 388.641 93.1719C389.797 93.1719 390.859 93.3438 391.828 93.6875C392.797 94.0312 393.633 94.5859 394.336 95.3516C395.039 96.1172 395.586 97.1328 395.977 98.3984C396.367 99.6484 396.562 101.195 396.562 103.039V119H388.641V103.039C388.641 101.992 388.516 101.203 388.266 100.672C388.031 100.125 387.688 99.7578 387.234 99.5703C386.781 99.3672 386.242 99.2656 385.617 99.2656C384.867 99.2656 384.219 99.4219 383.672 99.7344C383.125 100.047 382.664 100.484 382.289 101.047C381.93 101.594 381.664 102.242 381.492 102.992C381.32 103.742 381.234 104.562 381.234 105.453ZM413.367 119.469C411.305 119.469 409.461 119.148 407.836 118.508C406.211 117.852 404.836 116.953 403.711 115.812C402.602 114.672 401.75 113.359 401.156 111.875C400.578 110.391 400.289 108.82 400.289 107.164V106.273C400.289 104.414 400.547 102.695 401.062 101.117C401.578 99.5234 402.344 98.1328 403.359 96.9453C404.375 95.7578 405.648 94.8359 407.18 94.1797C408.711 93.5078 410.492 93.1719 412.523 93.1719C414.32 93.1719 415.93 93.4609 417.352 94.0391C418.773 94.6172 419.977 95.4453 420.961 96.5234C421.961 97.6016 422.719 98.9062 423.234 100.438C423.766 101.969 424.031 103.688 424.031 105.594V108.805H403.312V103.859H416.32V103.25C416.336 102.406 416.188 101.688 415.875 101.094C415.578 100.5 415.141 100.047 414.562 99.7344C413.984 99.4219 413.281 99.2656 412.453 99.2656C411.594 99.2656 410.883 99.4531 410.32 99.8281C409.773 100.203 409.344 100.719 409.031 101.375C408.734 102.016 408.523 102.758 408.398 103.602C408.273 104.445 408.211 105.336 408.211 106.273V107.164C408.211 108.102 408.336 108.953 408.586 109.719C408.852 110.484 409.227 111.141 409.711 111.688C410.211 112.219 410.805 112.633 411.492 112.93C412.195 113.227 412.992 113.375 413.883 113.375C414.961 113.375 416.023 113.172 417.07 112.766C418.117 112.359 419.016 111.688 419.766 110.75L423.352 115.016C422.836 115.75 422.102 116.461 421.148 117.148C420.211 117.836 419.086 118.398 417.773 118.836C416.461 119.258 414.992 119.469 413.367 119.469ZM435 99.0547V119H427.102V93.6406H434.508L435 99.0547ZM434.062 105.453L432.211 105.5C432.211 103.562 432.445 101.836 432.914 100.32C433.383 98.7891 434.047 97.4922 434.906 96.4297C435.766 95.3672 436.789 94.5625 437.977 94.0156C439.18 93.4531 440.516 93.1719 441.984 93.1719C443.156 93.1719 444.227 93.3438 445.195 93.6875C446.18 94.0312 447.023 94.5859 447.727 95.3516C448.445 96.1172 448.992 97.1328 449.367 98.3984C449.758 99.6484 449.953 101.195 449.953 103.039V119H442.008V103.016C442.008 102 441.867 101.227 441.586 100.695C441.305 100.148 440.898 99.7734 440.367 99.5703C439.836 99.3672 439.188 99.2656 438.422 99.2656C437.609 99.2656 436.922 99.4219 436.359 99.7344C435.797 100.047 435.344 100.484 435 101.047C434.672 101.594 434.43 102.242 434.273 102.992C434.133 103.742 434.062 104.562 434.062 105.453ZM467.695 93.6406V99.125H452.414V93.6406H467.695ZM455.625 87.3359H463.523V110.727C463.523 111.398 463.602 111.922 463.758 112.297C463.914 112.656 464.18 112.914 464.555 113.07C464.945 113.211 465.461 113.281 466.102 113.281C466.555 113.281 466.93 113.273 467.227 113.258C467.523 113.227 467.805 113.188 468.07 113.141V118.789C467.398 119.008 466.695 119.172 465.961 119.281C465.227 119.406 464.445 119.469 463.617 119.469C461.93 119.469 460.484 119.203 459.281 118.672C458.094 118.141 457.188 117.305 456.562 116.164C455.938 115.023 455.625 113.539 455.625 111.711V87.3359Z" fill="black"/>
<path d="M1134 0H1348C1356.28 0 1363 6.71573 1363 15V148C1363 156.284 1356.28 163 1348 163H1134V0Z" fill="#22B573"/>
<path d="M1212.5 117.5L1212.5 45.5L1284.5 45.5L1284.5 117.5L1212.5 117.5Z" fill="white" fill-opacity="0.01"/>
<path d="M1221.5 81.5125L1221.5 108.5L1275.5 108.5L1275.5 81.5" stroke="white" stroke-width="7.24" stroke-linecap="round" stroke-linejoin="round"/>
<path d="M1262 68L1248.5 54.5L1235 68" stroke="white" stroke-width="7.24" stroke-linecap="round" stroke-linejoin="round"/>
<path d="M1248.49 93.5L1248.49 54.5" stroke="white" stroke-width="7.24" stroke-linecap="round" stroke-linejoin="round"/>
</svg>
