<svg width="1363" height="163" viewBox="0 0 1363 163" fill="none" xmlns="http://www.w3.org/2000/svg">
<path d="M0 15C0 6.71573 6.71573 0 15 0H37V163H15C6.71573 163 0 156.284 0 148V15Z" fill="#424242"/>
<rect width="1097" height="163" transform="translate(37)" fill="#F0F0F0"/>
<path d="M101.906 53.9219L94.3945 51.2383V48.0859L104.602 52.375V54.6367L101.906 53.9219ZM94.3945 56.1719L101.918 53.4297L104.602 52.7852V55.0352L94.3945 59.3242V56.1719ZM119.543 54.918H115.195V52.1758H119.543C120.215 52.1758 120.762 52.0664 121.184 51.8477C121.605 51.6211 121.914 51.3086 122.109 50.9102C122.305 50.5117 122.402 50.0625 122.402 49.5625C122.402 49.0547 122.305 48.582 122.109 48.1445C121.914 47.707 121.605 47.3555 121.184 47.0898C120.762 46.8242 120.215 46.6914 119.543 46.6914H116.414V61H112.898V43.9375H119.543C120.879 43.9375 122.023 44.1797 122.977 44.6641C123.938 45.1406 124.672 45.8008 125.18 46.6445C125.688 47.4883 125.941 48.4531 125.941 49.5391C125.941 50.6406 125.688 51.5938 125.18 52.3984C124.672 53.2031 123.938 53.8242 122.977 54.2617C122.023 54.6992 120.879 54.918 119.543 54.918ZM131.449 43V61H128.074V43H131.449ZM130.969 54.2148H130.043C130.051 53.332 130.168 52.5195 130.395 51.7773C130.621 51.0273 130.945 50.3789 131.367 49.832C131.789 49.2773 132.293 48.8477 132.879 48.543C133.473 48.2383 134.129 48.0859 134.848 48.0859C135.473 48.0859 136.039 48.1758 136.547 48.3555C137.062 48.5273 137.504 48.8086 137.871 49.1992C138.246 49.582 138.535 50.0859 138.738 50.7109C138.941 51.3359 139.043 52.0938 139.043 52.9844V61H135.645V52.9609C135.645 52.3984 135.562 51.957 135.398 51.6367C135.242 51.3086 135.012 51.0781 134.707 50.9453C134.41 50.8047 134.043 50.7344 133.605 50.7344C133.121 50.7344 132.707 50.8242 132.363 51.0039C132.027 51.1836 131.758 51.4336 131.555 51.7539C131.352 52.0664 131.203 52.4336 131.109 52.8555C131.016 53.2773 130.969 53.7305 130.969 54.2148ZM148.453 58.1406V52.4922C148.453 52.0859 148.387 51.7383 148.254 51.4492C148.121 51.1523 147.914 50.9219 147.633 50.7578C147.359 50.5938 147.004 50.5117 146.566 50.5117C146.191 50.5117 145.867 50.5781 145.594 50.7109C145.32 50.8359 145.109 51.0195 144.961 51.2617C144.812 51.4961 144.738 51.7734 144.738 52.0938H141.363C141.363 51.5547 141.488 51.043 141.738 50.5586C141.988 50.0742 142.352 49.6484 142.828 49.2812C143.305 48.9062 143.871 48.6133 144.527 48.4023C145.191 48.1914 145.934 48.0859 146.754 48.0859C147.738 48.0859 148.613 48.25 149.379 48.5781C150.145 48.9062 150.746 49.3984 151.184 50.0547C151.629 50.7109 151.852 51.5312 151.852 52.5156V57.9414C151.852 58.6367 151.895 59.207 151.98 59.6523C152.066 60.0898 152.191 60.4727 152.355 60.8008V61H148.945C148.781 60.6562 148.656 60.2266 148.57 59.7109C148.492 59.1875 148.453 58.6641 148.453 58.1406ZM148.898 53.2773L148.922 55.1875H147.035C146.59 55.1875 146.203 55.2383 145.875 55.3398C145.547 55.4414 145.277 55.5859 145.066 55.7734C144.855 55.9531 144.699 56.1641 144.598 56.4062C144.504 56.6484 144.457 56.9141 144.457 57.2031C144.457 57.4922 144.523 57.7539 144.656 57.9883C144.789 58.2148 144.98 58.3945 145.23 58.5273C145.48 58.6523 145.773 58.7148 146.109 58.7148C146.617 58.7148 147.059 58.6133 147.434 58.4102C147.809 58.207 148.098 57.957 148.301 57.6602C148.512 57.3633 148.621 57.082 148.629 56.8164L149.52 58.2461C149.395 58.5664 149.223 58.8984 149.004 59.2422C148.793 59.5859 148.523 59.9102 148.195 60.2148C147.867 60.5117 147.473 60.7578 147.012 60.9531C146.551 61.1406 146.004 61.2344 145.371 61.2344C144.566 61.2344 143.836 61.0742 143.18 60.7539C142.531 60.4258 142.016 59.9766 141.633 59.4062C141.258 58.8281 141.07 58.1719 141.07 57.4375C141.07 56.7734 141.195 56.1836 141.445 55.668C141.695 55.1523 142.062 54.7188 142.547 54.3672C143.039 54.0078 143.652 53.7383 144.387 53.5586C145.121 53.3711 145.973 53.2773 146.941 53.2773H148.898ZM157.828 51.0859V61H154.453V48.3203H157.629L157.828 51.0859ZM161.648 48.2383L161.59 51.3672C161.426 51.3438 161.227 51.3242 160.992 51.3086C160.766 51.2852 160.559 51.2734 160.371 51.2734C159.895 51.2734 159.48 51.3359 159.129 51.4609C158.785 51.5781 158.496 51.7539 158.262 51.9883C158.035 52.2227 157.863 52.5078 157.746 52.8438C157.637 53.1797 157.574 53.5625 157.559 53.9922L156.879 53.7812C156.879 52.9609 156.961 52.207 157.125 51.5195C157.289 50.8242 157.527 50.2188 157.84 49.7031C158.16 49.1875 158.551 48.7891 159.012 48.5078C159.473 48.2266 160 48.0859 160.594 48.0859C160.781 48.0859 160.973 48.1016 161.168 48.1328C161.363 48.1562 161.523 48.1914 161.648 48.2383ZM166.617 50.9453V61H163.23V48.3203H166.406L166.617 50.9453ZM166.148 54.2148H165.211C165.211 53.332 165.316 52.5195 165.527 51.7773C165.746 51.0273 166.062 50.3789 166.477 49.832C166.898 49.2773 167.418 48.8477 168.035 48.543C168.652 48.2383 169.367 48.0859 170.18 48.0859C170.742 48.0859 171.258 48.1719 171.727 48.3438C172.195 48.5078 172.598 48.7695 172.934 49.1289C173.277 49.4805 173.543 49.9414 173.73 50.5117C173.918 51.0742 174.012 51.75 174.012 52.5391V61H170.637V52.9141C170.637 52.3359 170.559 51.8906 170.402 51.5781C170.246 51.2656 170.023 51.0469 169.734 50.9219C169.453 50.7969 169.113 50.7344 168.715 50.7344C168.277 50.7344 167.895 50.8242 167.566 51.0039C167.246 51.1836 166.98 51.4336 166.77 51.7539C166.559 52.0664 166.402 52.4336 166.301 52.8555C166.199 53.2773 166.148 53.7305 166.148 54.2148ZM173.695 53.8281L172.488 53.9805C172.488 53.1523 172.59 52.3828 172.793 51.6719C173.004 50.9609 173.312 50.3359 173.719 49.7969C174.133 49.2578 174.645 48.8398 175.254 48.543C175.863 48.2383 176.566 48.0859 177.363 48.0859C177.973 48.0859 178.527 48.1758 179.027 48.3555C179.527 48.5273 179.953 48.8047 180.305 49.1875C180.664 49.5625 180.938 50.0547 181.125 50.6641C181.32 51.2734 181.418 52.0195 181.418 52.9023V61H178.031V52.9023C178.031 52.3164 177.953 51.8711 177.797 51.5664C177.648 51.2539 177.43 51.0391 177.141 50.9219C176.859 50.7969 176.523 50.7344 176.133 50.7344C175.727 50.7344 175.371 50.8164 175.066 50.9805C174.762 51.1367 174.508 51.3555 174.305 51.6367C174.102 51.918 173.949 52.2461 173.848 52.6211C173.746 52.9883 173.695 53.3906 173.695 53.8281ZM190.875 58.1406V52.4922C190.875 52.0859 190.809 51.7383 190.676 51.4492C190.543 51.1523 190.336 50.9219 190.055 50.7578C189.781 50.5938 189.426 50.5117 188.988 50.5117C188.613 50.5117 188.289 50.5781 188.016 50.7109C187.742 50.8359 187.531 51.0195 187.383 51.2617C187.234 51.4961 187.16 51.7734 187.16 52.0938H183.785C183.785 51.5547 183.91 51.043 184.16 50.5586C184.41 50.0742 184.773 49.6484 185.25 49.2812C185.727 48.9062 186.293 48.6133 186.949 48.4023C187.613 48.1914 188.355 48.0859 189.176 48.0859C190.16 48.0859 191.035 48.25 191.801 48.5781C192.566 48.9062 193.168 49.3984 193.605 50.0547C194.051 50.7109 194.273 51.5312 194.273 52.5156V57.9414C194.273 58.6367 194.316 59.207 194.402 59.6523C194.488 60.0898 194.613 60.4727 194.777 60.8008V61H191.367C191.203 60.6562 191.078 60.2266 190.992 59.7109C190.914 59.1875 190.875 58.6641 190.875 58.1406ZM191.32 53.2773L191.344 55.1875H189.457C189.012 55.1875 188.625 55.2383 188.297 55.3398C187.969 55.4414 187.699 55.5859 187.488 55.7734C187.277 55.9531 187.121 56.1641 187.02 56.4062C186.926 56.6484 186.879 56.9141 186.879 57.2031C186.879 57.4922 186.945 57.7539 187.078 57.9883C187.211 58.2148 187.402 58.3945 187.652 58.5273C187.902 58.6523 188.195 58.7148 188.531 58.7148C189.039 58.7148 189.48 58.6133 189.855 58.4102C190.23 58.207 190.52 57.957 190.723 57.6602C190.934 57.3633 191.043 57.082 191.051 56.8164L191.941 58.2461C191.816 58.5664 191.645 58.8984 191.426 59.2422C191.215 59.5859 190.945 59.9102 190.617 60.2148C190.289 60.5117 189.895 60.7578 189.434 60.9531C188.973 61.1406 188.426 61.2344 187.793 61.2344C186.988 61.2344 186.258 61.0742 185.602 60.7539C184.953 60.4258 184.438 59.9766 184.055 59.4062C183.68 58.8281 183.492 58.1719 183.492 57.4375C183.492 56.7734 183.617 56.1836 183.867 55.668C184.117 55.1523 184.484 54.7188 184.969 54.3672C185.461 54.0078 186.074 53.7383 186.809 53.5586C187.543 53.3711 188.395 53.2773 189.363 53.2773H191.32ZM203.238 57.4375L207.258 43.9375H211.172L205.23 61H202.652L203.238 57.4375ZM199.535 43.9375L203.543 57.4375L204.152 61H201.551L195.645 43.9375H199.535ZM217.875 61.2344C216.891 61.2344 216.008 61.0781 215.227 60.7656C214.445 60.4453 213.781 60.0039 213.234 59.4414C212.695 58.8789 212.281 58.2266 211.992 57.4844C211.703 56.7344 211.559 55.9375 211.559 55.0938V54.625C211.559 53.6641 211.695 52.7852 211.969 51.9883C212.242 51.1914 212.633 50.5 213.141 49.9141C213.656 49.3281 214.281 48.8789 215.016 48.5664C215.75 48.2461 216.578 48.0859 217.5 48.0859C218.398 48.0859 219.195 48.2344 219.891 48.5312C220.586 48.8281 221.168 49.25 221.637 49.7969C222.113 50.3438 222.473 51 222.715 51.7656C222.957 52.5234 223.078 53.3672 223.078 54.2969V55.7031H213V53.4531H219.762V53.1953C219.762 52.7266 219.676 52.3086 219.504 51.9414C219.34 51.5664 219.09 51.2695 218.754 51.0508C218.418 50.832 217.988 50.7227 217.465 50.7227C217.02 50.7227 216.637 50.8203 216.316 51.0156C215.996 51.2109 215.734 51.4844 215.531 51.8359C215.336 52.1875 215.188 52.6016 215.086 53.0781C214.992 53.5469 214.945 54.0625 214.945 54.625V55.0938C214.945 55.6016 215.016 56.0703 215.156 56.5C215.305 56.9297 215.512 57.3008 215.777 57.6133C216.051 57.9258 216.379 58.168 216.762 58.3398C217.152 58.5117 217.594 58.5977 218.086 58.5977C218.695 58.5977 219.262 58.4805 219.785 58.2461C220.316 58.0039 220.773 57.6406 221.156 57.1562L222.797 58.9375C222.531 59.3203 222.168 59.6875 221.707 60.0391C221.254 60.3906 220.707 60.6797 220.066 60.9062C219.426 61.125 218.695 61.2344 217.875 61.2344ZM228.305 51.0273V61H224.93V48.3203H228.094L228.305 51.0273ZM227.812 54.2148H226.898C226.898 53.2773 227.02 52.4336 227.262 51.6836C227.504 50.9258 227.844 50.2812 228.281 49.75C228.719 49.2109 229.238 48.8008 229.84 48.5195C230.449 48.2305 231.129 48.0859 231.879 48.0859C232.473 48.0859 233.016 48.1719 233.508 48.3438C234 48.5156 234.422 48.7891 234.773 49.1641C235.133 49.5391 235.406 50.0352 235.594 50.6523C235.789 51.2695 235.887 52.0234 235.887 52.9141V61H232.488V52.9023C232.488 52.3398 232.41 51.9023 232.254 51.5898C232.098 51.2773 231.867 51.0586 231.562 50.9336C231.266 50.8008 230.898 50.7344 230.461 50.7344C230.008 50.7344 229.613 50.8242 229.277 51.0039C228.949 51.1836 228.676 51.4336 228.457 51.7539C228.246 52.0664 228.086 52.4336 227.977 52.8555C227.867 53.2773 227.812 53.7305 227.812 54.2148ZM245.941 58.2344V43H249.34V61H246.281L245.941 58.2344ZM237.926 54.8125V54.5664C237.926 53.5977 238.035 52.7188 238.254 51.9297C238.473 51.1328 238.793 50.4492 239.215 49.8789C239.637 49.3086 240.156 48.8672 240.773 48.5547C241.391 48.2422 242.094 48.0859 242.883 48.0859C243.625 48.0859 244.273 48.2422 244.828 48.5547C245.391 48.8672 245.867 49.3125 246.258 49.8906C246.656 50.4609 246.977 51.1367 247.219 51.918C247.461 52.6914 247.637 53.5391 247.746 54.4609V55C247.637 55.8828 247.461 56.7031 247.219 57.4609C246.977 58.2188 246.656 58.8828 246.258 59.4531C245.867 60.0156 245.391 60.4531 244.828 60.7656C244.266 61.0781 243.609 61.2344 242.859 61.2344C242.07 61.2344 241.367 61.0742 240.75 60.7539C240.141 60.4336 239.625 59.9844 239.203 59.4062C238.789 58.8281 238.473 58.1484 238.254 57.3672C238.035 56.5859 237.926 55.7344 237.926 54.8125ZM241.301 54.5664V54.8125C241.301 55.3359 241.34 55.8242 241.418 56.2773C241.504 56.7305 241.641 57.1328 241.828 57.4844C242.023 57.8281 242.273 58.0977 242.578 58.293C242.891 58.4805 243.27 58.5742 243.715 58.5742C244.293 58.5742 244.77 58.4453 245.145 58.1875C245.52 57.9219 245.805 57.5586 246 57.0977C246.203 56.6367 246.32 56.1055 246.352 55.5039V53.9688C246.328 53.4766 246.258 53.0352 246.141 52.6445C246.031 52.2461 245.867 51.9062 245.648 51.625C245.438 51.3438 245.172 51.125 244.852 50.9688C244.539 50.8125 244.168 50.7344 243.738 50.7344C243.301 50.7344 242.926 50.8359 242.613 51.0391C242.301 51.2344 242.047 51.5039 241.852 51.8477C241.664 52.1914 241.523 52.5977 241.43 53.0664C241.344 53.5273 241.301 54.0273 241.301 54.5664Z" fill="#888888"/>
<path d="M104.344 84.875V119H96.1406V84.875H104.344ZM117.727 99.0078V119H109.828V93.6406H117.234L117.727 99.0078ZM116.766 105.453L114.961 105.5C114.961 103.719 115.172 102.078 115.594 100.578C116.016 99.0781 116.641 97.7734 117.469 96.6641C118.297 95.5547 119.312 94.6953 120.516 94.0859C121.734 93.4766 123.141 93.1719 124.734 93.1719C125.844 93.1719 126.852 93.3438 127.758 93.6875C128.664 94.0156 129.445 94.5391 130.102 95.2578C130.758 95.9609 131.258 96.8828 131.602 98.0234C131.961 99.1484 132.141 100.5 132.141 102.078V119H124.242V103.086C124.242 102.008 124.117 101.195 123.867 100.648C123.633 100.102 123.289 99.7344 122.836 99.5469C122.383 99.3594 121.828 99.2656 121.172 99.2656C120.484 99.2656 119.867 99.4219 119.32 99.7344C118.773 100.047 118.305 100.484 117.914 101.047C117.539 101.594 117.25 102.242 117.047 102.992C116.859 103.742 116.766 104.562 116.766 105.453ZM131.25 105.453L129.047 105.5C129.047 103.719 129.242 102.078 129.633 100.578C130.039 99.0781 130.641 97.7734 131.438 96.6641C132.25 95.5547 133.258 94.6953 134.461 94.0859C135.664 93.4766 137.062 93.1719 138.656 93.1719C139.812 93.1719 140.875 93.3438 141.844 93.6875C142.812 94.0312 143.648 94.5859 144.352 95.3516C145.055 96.1172 145.602 97.1328 145.992 98.3984C146.383 99.6484 146.578 101.195 146.578 103.039V119H138.656V103.039C138.656 101.992 138.531 101.203 138.281 100.672C138.047 100.125 137.703 99.7578 137.25 99.5703C136.797 99.3672 136.258 99.2656 135.633 99.2656C134.883 99.2656 134.234 99.4219 133.688 99.7344C133.141 100.047 132.68 100.484 132.305 101.047C131.945 101.594 131.68 102.242 131.508 102.992C131.336 103.742 131.25 104.562 131.25 105.453ZM159.07 98.5156V128.75H151.172V93.6406H158.531L159.07 98.5156ZM174.633 106.016V106.508C174.633 108.352 174.422 110.062 174 111.641C173.578 113.219 172.953 114.594 172.125 115.766C171.297 116.938 170.266 117.852 169.031 118.508C167.812 119.148 166.398 119.469 164.789 119.469C163.273 119.469 161.969 119.133 160.875 118.461C159.781 117.789 158.867 116.859 158.133 115.672C157.398 114.484 156.805 113.125 156.352 111.594C155.898 110.062 155.539 108.445 155.273 106.742V106.109C155.539 104.281 155.898 102.586 156.352 101.023C156.805 99.4453 157.398 98.0703 158.133 96.8984C158.867 95.7266 159.773 94.8125 160.852 94.1562C161.945 93.5 163.25 93.1719 164.766 93.1719C166.375 93.1719 167.789 93.4766 169.008 94.0859C170.242 94.6953 171.273 95.5703 172.102 96.7109C172.945 97.8359 173.578 99.1875 174 100.766C174.422 102.344 174.633 104.094 174.633 106.016ZM166.734 106.508V106.016C166.734 105.031 166.664 104.133 166.523 103.32C166.383 102.492 166.156 101.773 165.844 101.164C165.547 100.555 165.148 100.086 164.648 99.7578C164.148 99.4297 163.531 99.2656 162.797 99.2656C161.953 99.2656 161.242 99.3984 160.664 99.6641C160.102 99.9141 159.648 100.305 159.305 100.836C158.977 101.352 158.742 102 158.602 102.781C158.477 103.547 158.422 104.445 158.438 105.477V107.398C158.406 108.586 158.523 109.633 158.789 110.539C159.055 111.43 159.516 112.125 160.172 112.625C160.828 113.125 161.719 113.375 162.844 113.375C163.594 113.375 164.219 113.203 164.719 112.859C165.219 112.5 165.617 112.008 165.914 111.383C166.211 110.742 166.422 110.008 166.547 109.18C166.672 108.352 166.734 107.461 166.734 106.508ZM186.492 83V119H178.57V83H186.492ZM203.648 119.469C201.586 119.469 199.742 119.148 198.117 118.508C196.492 117.852 195.117 116.953 193.992 115.812C192.883 114.672 192.031 113.359 191.438 111.875C190.859 110.391 190.57 108.82 190.57 107.164V106.273C190.57 104.414 190.828 102.695 191.344 101.117C191.859 99.5234 192.625 98.1328 193.641 96.9453C194.656 95.7578 195.93 94.8359 197.461 94.1797C198.992 93.5078 200.773 93.1719 202.805 93.1719C204.602 93.1719 206.211 93.4609 207.633 94.0391C209.055 94.6172 210.258 95.4453 211.242 96.5234C212.242 97.6016 213 98.9062 213.516 100.438C214.047 101.969 214.312 103.688 214.312 105.594V108.805H193.594V103.859H206.602V103.25C206.617 102.406 206.469 101.688 206.156 101.094C205.859 100.5 205.422 100.047 204.844 99.7344C204.266 99.4219 203.562 99.2656 202.734 99.2656C201.875 99.2656 201.164 99.4531 200.602 99.8281C200.055 100.203 199.625 100.719 199.312 101.375C199.016 102.016 198.805 102.758 198.68 103.602C198.555 104.445 198.492 105.336 198.492 106.273V107.164C198.492 108.102 198.617 108.953 198.867 109.719C199.133 110.484 199.508 111.141 199.992 111.688C200.492 112.219 201.086 112.633 201.773 112.93C202.477 113.227 203.273 113.375 204.164 113.375C205.242 113.375 206.305 113.172 207.352 112.766C208.398 112.359 209.297 111.688 210.047 110.75L213.633 115.016C213.117 115.75 212.383 116.461 211.43 117.148C210.492 117.836 209.367 118.398 208.055 118.836C206.742 119.258 205.273 119.469 203.648 119.469ZM225.492 99.0078V119H217.594V93.6406H225L225.492 99.0078ZM224.531 105.453L222.727 105.5C222.727 103.719 222.938 102.078 223.359 100.578C223.781 99.0781 224.406 97.7734 225.234 96.6641C226.062 95.5547 227.078 94.6953 228.281 94.0859C229.5 93.4766 230.906 93.1719 232.5 93.1719C233.609 93.1719 234.617 93.3438 235.523 93.6875C236.43 94.0156 237.211 94.5391 237.867 95.2578C238.523 95.9609 239.023 96.8828 239.367 98.0234C239.727 99.1484 239.906 100.5 239.906 102.078V119H232.008V103.086C232.008 102.008 231.883 101.195 231.633 100.648C231.398 100.102 231.055 99.7344 230.602 99.5469C230.148 99.3594 229.594 99.2656 228.938 99.2656C228.25 99.2656 227.633 99.4219 227.086 99.7344C226.539 100.047 226.07 100.484 225.68 101.047C225.305 101.594 225.016 102.242 224.812 102.992C224.625 103.742 224.531 104.562 224.531 105.453ZM239.016 105.453L236.812 105.5C236.812 103.719 237.008 102.078 237.398 100.578C237.805 99.0781 238.406 97.7734 239.203 96.6641C240.016 95.5547 241.023 94.6953 242.227 94.0859C243.43 93.4766 244.828 93.1719 246.422 93.1719C247.578 93.1719 248.641 93.3438 249.609 93.6875C250.578 94.0312 251.414 94.5859 252.117 95.3516C252.82 96.1172 253.367 97.1328 253.758 98.3984C254.148 99.6484 254.344 101.195 254.344 103.039V119H246.422V103.039C246.422 101.992 246.297 101.203 246.047 100.672C245.812 100.125 245.469 99.7578 245.016 99.5703C244.562 99.3672 244.023 99.2656 243.398 99.2656C242.648 99.2656 242 99.4219 241.453 99.7344C240.906 100.047 240.445 100.484 240.07 101.047C239.711 101.594 239.445 102.242 239.273 102.992C239.102 103.742 239.016 104.562 239.016 105.453ZM271.148 119.469C269.086 119.469 267.242 119.148 265.617 118.508C263.992 117.852 262.617 116.953 261.492 115.812C260.383 114.672 259.531 113.359 258.938 111.875C258.359 110.391 258.07 108.82 258.07 107.164V106.273C258.07 104.414 258.328 102.695 258.844 101.117C259.359 99.5234 260.125 98.1328 261.141 96.9453C262.156 95.7578 263.43 94.8359 264.961 94.1797C266.492 93.5078 268.273 93.1719 270.305 93.1719C272.102 93.1719 273.711 93.4609 275.133 94.0391C276.555 94.6172 277.758 95.4453 278.742 96.5234C279.742 97.6016 280.5 98.9062 281.016 100.438C281.547 101.969 281.812 103.688 281.812 105.594V108.805H261.094V103.859H274.102V103.25C274.117 102.406 273.969 101.688 273.656 101.094C273.359 100.5 272.922 100.047 272.344 99.7344C271.766 99.4219 271.062 99.2656 270.234 99.2656C269.375 99.2656 268.664 99.4531 268.102 99.8281C267.555 100.203 267.125 100.719 266.812 101.375C266.516 102.016 266.305 102.758 266.18 103.602C266.055 104.445 265.992 105.336 265.992 106.273V107.164C265.992 108.102 266.117 108.953 266.367 109.719C266.633 110.484 267.008 111.141 267.492 111.688C267.992 112.219 268.586 112.633 269.273 112.93C269.977 113.227 270.773 113.375 271.664 113.375C272.742 113.375 273.805 113.172 274.852 112.766C275.898 112.359 276.797 111.688 277.547 110.75L281.133 115.016C280.617 115.75 279.883 116.461 278.93 117.148C277.992 117.836 276.867 118.398 275.555 118.836C274.242 119.258 272.773 119.469 271.148 119.469ZM292.781 99.0547V119H284.883V93.6406H292.289L292.781 99.0547ZM291.844 105.453L289.992 105.5C289.992 103.562 290.227 101.836 290.695 100.32C291.164 98.7891 291.828 97.4922 292.688 96.4297C293.547 95.3672 294.57 94.5625 295.758 94.0156C296.961 93.4531 298.297 93.1719 299.766 93.1719C300.938 93.1719 302.008 93.3438 302.977 93.6875C303.961 94.0312 304.805 94.5859 305.508 95.3516C306.227 96.1172 306.773 97.1328 307.148 98.3984C307.539 99.6484 307.734 101.195 307.734 103.039V119H299.789V103.016C299.789 102 299.648 101.227 299.367 100.695C299.086 100.148 298.68 99.7734 298.148 99.5703C297.617 99.3672 296.969 99.2656 296.203 99.2656C295.391 99.2656 294.703 99.4219 294.141 99.7344C293.578 100.047 293.125 100.484 292.781 101.047C292.453 101.594 292.211 102.242 292.055 102.992C291.914 103.742 291.844 104.562 291.844 105.453ZM325.477 93.6406V99.125H310.195V93.6406H325.477ZM313.406 87.3359H321.305V110.727C321.305 111.398 321.383 111.922 321.539 112.297C321.695 112.656 321.961 112.914 322.336 113.07C322.727 113.211 323.242 113.281 323.883 113.281C324.336 113.281 324.711 113.273 325.008 113.258C325.305 113.227 325.586 113.188 325.852 113.141V118.789C325.18 119.008 324.477 119.172 323.742 119.281C323.008 119.406 322.227 119.469 321.398 119.469C319.711 119.469 318.266 119.203 317.062 118.672C315.875 118.141 314.969 117.305 314.344 116.164C313.719 115.023 313.406 113.539 313.406 111.711V87.3359ZM341.789 112.625V102.172C341.789 101.453 341.688 100.836 341.484 100.32C341.281 99.8047 340.961 99.4062 340.523 99.125C340.086 98.8281 339.5 98.6797 338.766 98.6797C338.172 98.6797 337.664 98.7812 337.242 98.9844C336.82 99.1875 336.5 99.4922 336.281 99.8984C336.062 100.305 335.953 100.82 335.953 101.445H328.055C328.055 100.273 328.312 99.1875 328.828 98.1875C329.359 97.1719 330.109 96.2891 331.078 95.5391C332.062 94.7891 333.234 94.2109 334.594 93.8047C335.969 93.3828 337.5 93.1719 339.188 93.1719C341.203 93.1719 343 93.5078 344.578 94.1797C346.172 94.8516 347.43 95.8594 348.352 97.2031C349.273 98.5312 349.734 100.203 349.734 102.219V112.602C349.734 114.258 349.828 115.516 350.016 116.375C350.203 117.219 350.469 117.961 350.812 118.602V119H342.891C342.516 118.219 342.234 117.266 342.047 116.141C341.875 115 341.789 113.828 341.789 112.625ZM342.75 103.508L342.797 107.727H339.305C338.57 107.727 337.945 107.828 337.43 108.031C336.93 108.234 336.523 108.516 336.211 108.875C335.914 109.219 335.695 109.609 335.555 110.047C335.43 110.484 335.367 110.945 335.367 111.43C335.367 111.898 335.477 112.32 335.695 112.695C335.93 113.055 336.242 113.336 336.633 113.539C337.023 113.742 337.461 113.844 337.945 113.844C338.82 113.844 339.562 113.68 340.172 113.352C340.797 113.008 341.273 112.594 341.602 112.109C341.93 111.625 342.094 111.172 342.094 110.75L343.828 113.984C343.516 114.609 343.156 115.242 342.75 115.883C342.359 116.523 341.867 117.117 341.273 117.664C340.695 118.195 339.984 118.633 339.141 118.977C338.297 119.305 337.273 119.469 336.07 119.469C334.508 119.469 333.07 119.148 331.758 118.508C330.461 117.867 329.422 116.977 328.641 115.836C327.859 114.68 327.469 113.352 327.469 111.852C327.469 110.539 327.703 109.367 328.172 108.336C328.656 107.305 329.383 106.43 330.352 105.711C331.32 104.992 332.555 104.445 334.055 104.07C335.555 103.695 337.32 103.508 339.352 103.508H342.75ZM367.477 93.6406V99.125H352.195V93.6406H367.477ZM355.406 87.3359H363.305V110.727C363.305 111.398 363.383 111.922 363.539 112.297C363.695 112.656 363.961 112.914 364.336 113.07C364.727 113.211 365.242 113.281 365.883 113.281C366.336 113.281 366.711 113.273 367.008 113.258C367.305 113.227 367.586 113.188 367.852 113.141V118.789C367.18 119.008 366.477 119.172 365.742 119.281C365.008 119.406 364.227 119.469 363.398 119.469C361.711 119.469 360.266 119.203 359.062 118.672C357.875 118.141 356.969 117.305 356.344 116.164C355.719 115.023 355.406 113.539 355.406 111.711V87.3359ZM378.961 93.6406V119H371.039V93.6406H378.961ZM370.57 87.1016C370.57 85.9766 370.977 85.0547 371.789 84.3359C372.602 83.6172 373.656 83.2578 374.953 83.2578C376.25 83.2578 377.305 83.6172 378.117 84.3359C378.93 85.0547 379.336 85.9766 379.336 87.1016C379.336 88.2266 378.93 89.1484 378.117 89.8672C377.305 90.5859 376.25 90.9453 374.953 90.9453C373.656 90.9453 372.602 90.5859 371.789 89.8672C370.977 89.1484 370.57 88.2266 370.57 87.1016ZM382.852 106.578V106.086C382.852 104.227 383.117 102.516 383.648 100.953C384.18 99.375 384.961 98.0078 385.992 96.8516C387.023 95.6953 388.297 94.7969 389.812 94.1562C391.328 93.5 393.078 93.1719 395.062 93.1719C397.062 93.1719 398.82 93.5 400.336 94.1562C401.867 94.7969 403.148 95.6953 404.18 96.8516C405.211 98.0078 405.992 99.375 406.523 100.953C407.055 102.516 407.32 104.227 407.32 106.086V106.578C407.32 108.422 407.055 110.133 406.523 111.711C405.992 113.273 405.211 114.641 404.18 115.812C403.148 116.969 401.875 117.867 400.359 118.508C398.844 119.148 397.094 119.469 395.109 119.469C393.125 119.469 391.367 119.148 389.836 118.508C388.305 117.867 387.023 116.969 385.992 115.812C384.961 114.641 384.18 113.273 383.648 111.711C383.117 110.133 382.852 108.422 382.852 106.578ZM390.75 106.086V106.578C390.75 107.531 390.82 108.422 390.961 109.25C391.102 110.078 391.336 110.805 391.664 111.43C391.992 112.039 392.438 112.516 393 112.859C393.562 113.203 394.266 113.375 395.109 113.375C395.938 113.375 396.625 113.203 397.172 112.859C397.734 112.516 398.18 112.039 398.508 111.43C398.836 110.805 399.07 110.078 399.211 109.25C399.352 108.422 399.422 107.531 399.422 106.578V106.086C399.422 105.164 399.352 104.297 399.211 103.484C399.07 102.656 398.836 101.93 398.508 101.305C398.18 100.664 397.734 100.164 397.172 99.8047C396.609 99.4453 395.906 99.2656 395.062 99.2656C394.234 99.2656 393.539 99.4453 392.977 99.8047C392.43 100.164 391.992 100.664 391.664 101.305C391.336 101.93 391.102 102.656 390.961 103.484C390.82 104.297 390.75 105.164 390.75 106.086ZM418.594 99.0547V119H410.695V93.6406H418.102L418.594 99.0547ZM417.656 105.453L415.805 105.5C415.805 103.562 416.039 101.836 416.508 100.32C416.977 98.7891 417.641 97.4922 418.5 96.4297C419.359 95.3672 420.383 94.5625 421.57 94.0156C422.773 93.4531 424.109 93.1719 425.578 93.1719C426.75 93.1719 427.82 93.3438 428.789 93.6875C429.773 94.0312 430.617 94.5859 431.32 95.3516C432.039 96.1172 432.586 97.1328 432.961 98.3984C433.352 99.6484 433.547 101.195 433.547 103.039V119H425.602V103.016C425.602 102 425.461 101.227 425.18 100.695C424.898 100.148 424.492 99.7734 423.961 99.5703C423.43 99.3672 422.781 99.2656 422.016 99.2656C421.203 99.2656 420.516 99.4219 419.953 99.7344C419.391 100.047 418.938 100.484 418.594 101.047C418.266 101.594 418.023 102.242 417.867 102.992C417.727 103.742 417.656 104.562 417.656 105.453Z" fill="black"/>
<path d="M1134 0H1348C1356.28 0 1363 6.71573 1363 15V148C1363 156.284 1356.28 163 1348 163H1134V0Z" fill="#22B573"/>
<path d="M1280.07 47.5H1216.93L1214.5 49.9286V113.071L1216.93 115.5H1280.07L1282.5 113.071V49.9286L1280.07 47.5ZM1277.64 110.643H1233.93V100.929H1245.1C1246.56 103.843 1249.96 105.786 1253.36 105.786C1258.7 105.786 1263.07 101.414 1263.07 96.0714C1263.07 90.7286 1258.7 86.3571 1253.36 86.3571C1248.01 86.3571 1243.64 90.7286 1243.64 96.0714H1229.07V110.643H1219.36V52.3571H1229.07V63.5286C1226.16 64.9857 1224.21 68.3857 1224.21 71.7857C1224.21 77.1286 1228.59 81.5 1233.93 81.5C1239.27 81.5 1243.64 77.1286 1243.64 71.7857H1253.36C1253.36 77.1286 1257.73 81.5 1263.07 81.5C1268.41 81.5 1272.79 77.1286 1272.79 71.7857C1272.79 66.4429 1268.41 62.0714 1263.07 62.0714C1259.67 62.0714 1256.27 64.0143 1254.81 66.9286H1242.19C1240.73 64.0143 1237.33 62.0714 1233.93 62.0714V52.3571H1277.64V110.643ZM1248.5 96.0714C1248.5 93.1571 1250.44 91.2143 1253.36 91.2143C1256.27 91.2143 1258.21 93.1571 1258.21 96.0714C1258.21 98.9857 1256.27 100.929 1253.36 100.929C1250.44 100.929 1248.5 98.9857 1248.5 96.0714ZM1233.93 66.9286C1236.84 66.9286 1238.79 68.8714 1238.79 71.7857C1238.79 74.7 1236.84 76.6429 1233.93 76.6429C1231.01 76.6429 1229.07 74.7 1229.07 71.7857C1229.07 68.8714 1231.01 66.9286 1233.93 66.9286ZM1263.07 66.9286C1265.99 66.9286 1267.93 68.8714 1267.93 71.7857C1267.93 74.7 1265.99 76.6429 1263.07 76.6429C1260.16 76.6429 1258.21 74.7 1258.21 71.7857C1258.21 68.8714 1260.16 66.9286 1263.07 66.9286Z" fill="white"/>
</svg>
