<svg width="1363" height="163" viewBox="0 0 1363 163" fill="none" xmlns="http://www.w3.org/2000/svg">
<path d="M0 15C0 6.71573 6.71573 0 15 0H37V163H15C6.71573 163 0 156.284 0 148V15Z" fill="#424242"/>
<rect width="1097" height="163" transform="translate(37)" fill="#F0F0F0"/>
<path d="M101.906 53.9219L94.3945 51.2383V48.0859L104.602 52.375V54.6367L101.906 53.9219ZM94.3945 56.1719L101.918 53.4297L104.602 52.7852V55.0352L94.3945 59.3242V56.1719ZM119.543 54.918H115.195V52.1758H119.543C120.215 52.1758 120.762 52.0664 121.184 51.8477C121.605 51.6211 121.914 51.3086 122.109 50.9102C122.305 50.5117 122.402 50.0625 122.402 49.5625C122.402 49.0547 122.305 48.582 122.109 48.1445C121.914 47.707 121.605 47.3555 121.184 47.0898C120.762 46.8242 120.215 46.6914 119.543 46.6914H116.414V61H112.898V43.9375H119.543C120.879 43.9375 122.023 44.1797 122.977 44.6641C123.938 45.1406 124.672 45.8008 125.18 46.6445C125.688 47.4883 125.941 48.4531 125.941 49.5391C125.941 50.6406 125.688 51.5938 125.18 52.3984C124.672 53.2031 123.938 53.8242 122.977 54.2617C122.023 54.6992 120.879 54.918 119.543 54.918ZM131.449 43V61H128.074V43H131.449ZM130.969 54.2148H130.043C130.051 53.332 130.168 52.5195 130.395 51.7773C130.621 51.0273 130.945 50.3789 131.367 49.832C131.789 49.2773 132.293 48.8477 132.879 48.543C133.473 48.2383 134.129 48.0859 134.848 48.0859C135.473 48.0859 136.039 48.1758 136.547 48.3555C137.062 48.5273 137.504 48.8086 137.871 49.1992C138.246 49.582 138.535 50.0859 138.738 50.7109C138.941 51.3359 139.043 52.0938 139.043 52.9844V61H135.645V52.9609C135.645 52.3984 135.562 51.957 135.398 51.6367C135.242 51.3086 135.012 51.0781 134.707 50.9453C134.41 50.8047 134.043 50.7344 133.605 50.7344C133.121 50.7344 132.707 50.8242 132.363 51.0039C132.027 51.1836 131.758 51.4336 131.555 51.7539C131.352 52.0664 131.203 52.4336 131.109 52.8555C131.016 53.2773 130.969 53.7305 130.969 54.2148ZM148.453 58.1406V52.4922C148.453 52.0859 148.387 51.7383 148.254 51.4492C148.121 51.1523 147.914 50.9219 147.633 50.7578C147.359 50.5938 147.004 50.5117 146.566 50.5117C146.191 50.5117 145.867 50.5781 145.594 50.7109C145.32 50.8359 145.109 51.0195 144.961 51.2617C144.812 51.4961 144.738 51.7734 144.738 52.0938H141.363C141.363 51.5547 141.488 51.043 141.738 50.5586C141.988 50.0742 142.352 49.6484 142.828 49.2812C143.305 48.9062 143.871 48.6133 144.527 48.4023C145.191 48.1914 145.934 48.0859 146.754 48.0859C147.738 48.0859 148.613 48.25 149.379 48.5781C150.145 48.9062 150.746 49.3984 151.184 50.0547C151.629 50.7109 151.852 51.5312 151.852 52.5156V57.9414C151.852 58.6367 151.895 59.207 151.98 59.6523C152.066 60.0898 152.191 60.4727 152.355 60.8008V61H148.945C148.781 60.6562 148.656 60.2266 148.57 59.7109C148.492 59.1875 148.453 58.6641 148.453 58.1406ZM148.898 53.2773L148.922 55.1875H147.035C146.59 55.1875 146.203 55.2383 145.875 55.3398C145.547 55.4414 145.277 55.5859 145.066 55.7734C144.855 55.9531 144.699 56.1641 144.598 56.4062C144.504 56.6484 144.457 56.9141 144.457 57.2031C144.457 57.4922 144.523 57.7539 144.656 57.9883C144.789 58.2148 144.98 58.3945 145.23 58.5273C145.48 58.6523 145.773 58.7148 146.109 58.7148C146.617 58.7148 147.059 58.6133 147.434 58.4102C147.809 58.207 148.098 57.957 148.301 57.6602C148.512 57.3633 148.621 57.082 148.629 56.8164L149.52 58.2461C149.395 58.5664 149.223 58.8984 149.004 59.2422C148.793 59.5859 148.523 59.9102 148.195 60.2148C147.867 60.5117 147.473 60.7578 147.012 60.9531C146.551 61.1406 146.004 61.2344 145.371 61.2344C144.566 61.2344 143.836 61.0742 143.18 60.7539C142.531 60.4258 142.016 59.9766 141.633 59.4062C141.258 58.8281 141.07 58.1719 141.07 57.4375C141.07 56.7734 141.195 56.1836 141.445 55.668C141.695 55.1523 142.062 54.7188 142.547 54.3672C143.039 54.0078 143.652 53.7383 144.387 53.5586C145.121 53.3711 145.973 53.2773 146.941 53.2773H148.898ZM157.828 51.0859V61H154.453V48.3203H157.629L157.828 51.0859ZM161.648 48.2383L161.59 51.3672C161.426 51.3438 161.227 51.3242 160.992 51.3086C160.766 51.2852 160.559 51.2734 160.371 51.2734C159.895 51.2734 159.48 51.3359 159.129 51.4609C158.785 51.5781 158.496 51.7539 158.262 51.9883C158.035 52.2227 157.863 52.5078 157.746 52.8438C157.637 53.1797 157.574 53.5625 157.559 53.9922L156.879 53.7812C156.879 52.9609 156.961 52.207 157.125 51.5195C157.289 50.8242 157.527 50.2188 157.84 49.7031C158.16 49.1875 158.551 48.7891 159.012 48.5078C159.473 48.2266 160 48.0859 160.594 48.0859C160.781 48.0859 160.973 48.1016 161.168 48.1328C161.363 48.1562 161.523 48.1914 161.648 48.2383ZM166.617 50.9453V61H163.23V48.3203H166.406L166.617 50.9453ZM166.148 54.2148H165.211C165.211 53.332 165.316 52.5195 165.527 51.7773C165.746 51.0273 166.062 50.3789 166.477 49.832C166.898 49.2773 167.418 48.8477 168.035 48.543C168.652 48.2383 169.367 48.0859 170.18 48.0859C170.742 48.0859 171.258 48.1719 171.727 48.3438C172.195 48.5078 172.598 48.7695 172.934 49.1289C173.277 49.4805 173.543 49.9414 173.73 50.5117C173.918 51.0742 174.012 51.75 174.012 52.5391V61H170.637V52.9141C170.637 52.3359 170.559 51.8906 170.402 51.5781C170.246 51.2656 170.023 51.0469 169.734 50.9219C169.453 50.7969 169.113 50.7344 168.715 50.7344C168.277 50.7344 167.895 50.8242 167.566 51.0039C167.246 51.1836 166.98 51.4336 166.77 51.7539C166.559 52.0664 166.402 52.4336 166.301 52.8555C166.199 53.2773 166.148 53.7305 166.148 54.2148ZM173.695 53.8281L172.488 53.9805C172.488 53.1523 172.59 52.3828 172.793 51.6719C173.004 50.9609 173.312 50.3359 173.719 49.7969C174.133 49.2578 174.645 48.8398 175.254 48.543C175.863 48.2383 176.566 48.0859 177.363 48.0859C177.973 48.0859 178.527 48.1758 179.027 48.3555C179.527 48.5273 179.953 48.8047 180.305 49.1875C180.664 49.5625 180.938 50.0547 181.125 50.6641C181.32 51.2734 181.418 52.0195 181.418 52.9023V61H178.031V52.9023C178.031 52.3164 177.953 51.8711 177.797 51.5664C177.648 51.2539 177.43 51.0391 177.141 50.9219C176.859 50.7969 176.523 50.7344 176.133 50.7344C175.727 50.7344 175.371 50.8164 175.066 50.9805C174.762 51.1367 174.508 51.3555 174.305 51.6367C174.102 51.918 173.949 52.2461 173.848 52.6211C173.746 52.9883 173.695 53.3906 173.695 53.8281ZM190.875 58.1406V52.4922C190.875 52.0859 190.809 51.7383 190.676 51.4492C190.543 51.1523 190.336 50.9219 190.055 50.7578C189.781 50.5938 189.426 50.5117 188.988 50.5117C188.613 50.5117 188.289 50.5781 188.016 50.7109C187.742 50.8359 187.531 51.0195 187.383 51.2617C187.234 51.4961 187.16 51.7734 187.16 52.0938H183.785C183.785 51.5547 183.91 51.043 184.16 50.5586C184.41 50.0742 184.773 49.6484 185.25 49.2812C185.727 48.9062 186.293 48.6133 186.949 48.4023C187.613 48.1914 188.355 48.0859 189.176 48.0859C190.16 48.0859 191.035 48.25 191.801 48.5781C192.566 48.9062 193.168 49.3984 193.605 50.0547C194.051 50.7109 194.273 51.5312 194.273 52.5156V57.9414C194.273 58.6367 194.316 59.207 194.402 59.6523C194.488 60.0898 194.613 60.4727 194.777 60.8008V61H191.367C191.203 60.6562 191.078 60.2266 190.992 59.7109C190.914 59.1875 190.875 58.6641 190.875 58.1406ZM191.32 53.2773L191.344 55.1875H189.457C189.012 55.1875 188.625 55.2383 188.297 55.3398C187.969 55.4414 187.699 55.5859 187.488 55.7734C187.277 55.9531 187.121 56.1641 187.02 56.4062C186.926 56.6484 186.879 56.9141 186.879 57.2031C186.879 57.4922 186.945 57.7539 187.078 57.9883C187.211 58.2148 187.402 58.3945 187.652 58.5273C187.902 58.6523 188.195 58.7148 188.531 58.7148C189.039 58.7148 189.48 58.6133 189.855 58.4102C190.23 58.207 190.52 57.957 190.723 57.6602C190.934 57.3633 191.043 57.082 191.051 56.8164L191.941 58.2461C191.816 58.5664 191.645 58.8984 191.426 59.2422C191.215 59.5859 190.945 59.9102 190.617 60.2148C190.289 60.5117 189.895 60.7578 189.434 60.9531C188.973 61.1406 188.426 61.2344 187.793 61.2344C186.988 61.2344 186.258 61.0742 185.602 60.7539C184.953 60.4258 184.438 59.9766 184.055 59.4062C183.68 58.8281 183.492 58.1719 183.492 57.4375C183.492 56.7734 183.617 56.1836 183.867 55.668C184.117 55.1523 184.484 54.7188 184.969 54.3672C185.461 54.0078 186.074 53.7383 186.809 53.5586C187.543 53.3711 188.395 53.2773 189.363 53.2773H191.32ZM203.238 57.4375L207.258 43.9375H211.172L205.23 61H202.652L203.238 57.4375ZM199.535 43.9375L203.543 57.4375L204.152 61H201.551L195.645 43.9375H199.535ZM217.875 61.2344C216.891 61.2344 216.008 61.0781 215.227 60.7656C214.445 60.4453 213.781 60.0039 213.234 59.4414C212.695 58.8789 212.281 58.2266 211.992 57.4844C211.703 56.7344 211.559 55.9375 211.559 55.0938V54.625C211.559 53.6641 211.695 52.7852 211.969 51.9883C212.242 51.1914 212.633 50.5 213.141 49.9141C213.656 49.3281 214.281 48.8789 215.016 48.5664C215.75 48.2461 216.578 48.0859 217.5 48.0859C218.398 48.0859 219.195 48.2344 219.891 48.5312C220.586 48.8281 221.168 49.25 221.637 49.7969C222.113 50.3438 222.473 51 222.715 51.7656C222.957 52.5234 223.078 53.3672 223.078 54.2969V55.7031H213V53.4531H219.762V53.1953C219.762 52.7266 219.676 52.3086 219.504 51.9414C219.34 51.5664 219.09 51.2695 218.754 51.0508C218.418 50.832 217.988 50.7227 217.465 50.7227C217.02 50.7227 216.637 50.8203 216.316 51.0156C215.996 51.2109 215.734 51.4844 215.531 51.8359C215.336 52.1875 215.188 52.6016 215.086 53.0781C214.992 53.5469 214.945 54.0625 214.945 54.625V55.0938C214.945 55.6016 215.016 56.0703 215.156 56.5C215.305 56.9297 215.512 57.3008 215.777 57.6133C216.051 57.9258 216.379 58.168 216.762 58.3398C217.152 58.5117 217.594 58.5977 218.086 58.5977C218.695 58.5977 219.262 58.4805 219.785 58.2461C220.316 58.0039 220.773 57.6406 221.156 57.1562L222.797 58.9375C222.531 59.3203 222.168 59.6875 221.707 60.0391C221.254 60.3906 220.707 60.6797 220.066 60.9062C219.426 61.125 218.695 61.2344 217.875 61.2344ZM228.305 51.0273V61H224.93V48.3203H228.094L228.305 51.0273ZM227.812 54.2148H226.898C226.898 53.2773 227.02 52.4336 227.262 51.6836C227.504 50.9258 227.844 50.2812 228.281 49.75C228.719 49.2109 229.238 48.8008 229.84 48.5195C230.449 48.2305 231.129 48.0859 231.879 48.0859C232.473 48.0859 233.016 48.1719 233.508 48.3438C234 48.5156 234.422 48.7891 234.773 49.1641C235.133 49.5391 235.406 50.0352 235.594 50.6523C235.789 51.2695 235.887 52.0234 235.887 52.9141V61H232.488V52.9023C232.488 52.3398 232.41 51.9023 232.254 51.5898C232.098 51.2773 231.867 51.0586 231.562 50.9336C231.266 50.8008 230.898 50.7344 230.461 50.7344C230.008 50.7344 229.613 50.8242 229.277 51.0039C228.949 51.1836 228.676 51.4336 228.457 51.7539C228.246 52.0664 228.086 52.4336 227.977 52.8555C227.867 53.2773 227.812 53.7305 227.812 54.2148ZM245.941 58.2344V43H249.34V61H246.281L245.941 58.2344ZM237.926 54.8125V54.5664C237.926 53.5977 238.035 52.7188 238.254 51.9297C238.473 51.1328 238.793 50.4492 239.215 49.8789C239.637 49.3086 240.156 48.8672 240.773 48.5547C241.391 48.2422 242.094 48.0859 242.883 48.0859C243.625 48.0859 244.273 48.2422 244.828 48.5547C245.391 48.8672 245.867 49.3125 246.258 49.8906C246.656 50.4609 246.977 51.1367 247.219 51.918C247.461 52.6914 247.637 53.5391 247.746 54.4609V55C247.637 55.8828 247.461 56.7031 247.219 57.4609C246.977 58.2188 246.656 58.8828 246.258 59.4531C245.867 60.0156 245.391 60.4531 244.828 60.7656C244.266 61.0781 243.609 61.2344 242.859 61.2344C242.07 61.2344 241.367 61.0742 240.75 60.7539C240.141 60.4336 239.625 59.9844 239.203 59.4062C238.789 58.8281 238.473 58.1484 238.254 57.3672C238.035 56.5859 237.926 55.7344 237.926 54.8125ZM241.301 54.5664V54.8125C241.301 55.3359 241.34 55.8242 241.418 56.2773C241.504 56.7305 241.641 57.1328 241.828 57.4844C242.023 57.8281 242.273 58.0977 242.578 58.293C242.891 58.4805 243.27 58.5742 243.715 58.5742C244.293 58.5742 244.77 58.4453 245.145 58.1875C245.52 57.9219 245.805 57.5586 246 57.0977C246.203 56.6367 246.32 56.1055 246.352 55.5039V53.9688C246.328 53.4766 246.258 53.0352 246.141 52.6445C246.031 52.2461 245.867 51.9062 245.648 51.625C245.438 51.3438 245.172 51.125 244.852 50.9688C244.539 50.8125 244.168 50.7344 243.738 50.7344C243.301 50.7344 242.926 50.8359 242.613 51.0391C242.301 51.2344 242.047 51.5039 241.852 51.8477C241.664 52.1914 241.523 52.5977 241.43 53.0664C241.344 53.5273 241.301 54.0273 241.301 54.5664Z" fill="#888888"/>
<path d="M109.219 107.422H100.734V101.07H109.219C110.375 101.07 111.312 100.875 112.031 100.484C112.75 100.094 113.273 99.5547 113.602 98.8672C113.945 98.1641 114.117 97.375 114.117 96.5C114.117 95.5625 113.945 94.6953 113.602 93.8984C113.273 93.1016 112.75 92.4609 112.031 91.9766C111.312 91.4766 110.375 91.2266 109.219 91.2266H103.828V119H95.6016V84.875H109.219C111.953 84.875 114.305 85.375 116.273 86.375C118.258 87.375 119.781 88.75 120.844 90.5C121.906 92.2344 122.438 94.2188 122.438 96.4531C122.438 98.6562 121.906 100.578 120.844 102.219C119.781 103.859 118.258 105.141 116.273 106.062C114.305 106.969 111.953 107.422 109.219 107.422ZM134.461 99.9219V119H126.562V93.6406H133.945L134.461 99.9219ZM141.961 93.4531L141.82 100.789C141.508 100.758 141.086 100.719 140.555 100.672C140.023 100.625 139.578 100.602 139.219 100.602C138.297 100.602 137.5 100.711 136.828 100.93C136.172 101.133 135.625 101.445 135.188 101.867C134.766 102.273 134.453 102.789 134.25 103.414C134.062 104.039 133.977 104.766 133.992 105.594L132.562 104.656C132.562 102.953 132.727 101.406 133.055 100.016C133.398 98.6094 133.883 97.3984 134.508 96.3828C135.133 95.3516 135.891 94.5625 136.781 94.0156C137.672 93.4531 138.672 93.1719 139.781 93.1719C140.172 93.1719 140.555 93.1953 140.93 93.2422C141.32 93.2891 141.664 93.3594 141.961 93.4531ZM142.852 106.578V106.086C142.852 104.227 143.117 102.516 143.648 100.953C144.18 99.375 144.961 98.0078 145.992 96.8516C147.023 95.6953 148.297 94.7969 149.812 94.1562C151.328 93.5 153.078 93.1719 155.062 93.1719C157.062 93.1719 158.82 93.5 160.336 94.1562C161.867 94.7969 163.148 95.6953 164.18 96.8516C165.211 98.0078 165.992 99.375 166.523 100.953C167.055 102.516 167.32 104.227 167.32 106.086V106.578C167.32 108.422 167.055 110.133 166.523 111.711C165.992 113.273 165.211 114.641 164.18 115.812C163.148 116.969 161.875 117.867 160.359 118.508C158.844 119.148 157.094 119.469 155.109 119.469C153.125 119.469 151.367 119.148 149.836 118.508C148.305 117.867 147.023 116.969 145.992 115.812C144.961 114.641 144.18 113.273 143.648 111.711C143.117 110.133 142.852 108.422 142.852 106.578ZM150.75 106.086V106.578C150.75 107.531 150.82 108.422 150.961 109.25C151.102 110.078 151.336 110.805 151.664 111.43C151.992 112.039 152.438 112.516 153 112.859C153.562 113.203 154.266 113.375 155.109 113.375C155.938 113.375 156.625 113.203 157.172 112.859C157.734 112.516 158.18 112.039 158.508 111.43C158.836 110.805 159.07 110.078 159.211 109.25C159.352 108.422 159.422 107.531 159.422 106.578V106.086C159.422 105.164 159.352 104.297 159.211 103.484C159.07 102.656 158.836 101.93 158.508 101.305C158.18 100.664 157.734 100.164 157.172 99.8047C156.609 99.4453 155.906 99.2656 155.062 99.2656C154.234 99.2656 153.539 99.4453 152.977 99.8047C152.43 100.164 151.992 100.664 151.664 101.305C151.336 101.93 151.102 102.656 150.961 103.484C150.82 104.297 150.75 105.164 150.75 106.086ZM171.422 93.6406H179.344V119.82C179.344 121.852 178.953 123.562 178.172 124.953C177.391 126.359 176.273 127.422 174.82 128.141C173.367 128.875 171.633 129.242 169.617 129.242C168.945 129.242 168.328 129.211 167.766 129.148C167.188 129.102 166.555 129 165.867 128.844V122.867C166.273 122.93 166.648 122.977 166.992 123.008C167.336 123.055 167.711 123.078 168.117 123.078C168.836 123.078 169.438 122.961 169.922 122.727C170.406 122.492 170.773 122.133 171.023 121.648C171.289 121.164 171.422 120.555 171.422 119.82V93.6406ZM170.836 87.1016C170.836 85.9766 171.242 85.0547 172.055 84.3359C172.867 83.6172 173.922 83.2578 175.219 83.2578C176.516 83.2578 177.57 83.6172 178.383 84.3359C179.195 85.0547 179.602 85.9766 179.602 87.1016C179.602 88.2266 179.195 89.1484 178.383 89.8672C177.57 90.5859 176.516 90.9453 175.219 90.9453C173.922 90.9453 172.867 90.5859 172.055 89.8672C171.242 89.1484 170.836 88.2266 170.836 87.1016ZM196.102 119.469C194.039 119.469 192.195 119.148 190.57 118.508C188.945 117.852 187.57 116.953 186.445 115.812C185.336 114.672 184.484 113.359 183.891 111.875C183.312 110.391 183.023 108.82 183.023 107.164V106.273C183.023 104.414 183.281 102.695 183.797 101.117C184.312 99.5234 185.078 98.1328 186.094 96.9453C187.109 95.7578 188.383 94.8359 189.914 94.1797C191.445 93.5078 193.227 93.1719 195.258 93.1719C197.055 93.1719 198.664 93.4609 200.086 94.0391C201.508 94.6172 202.711 95.4453 203.695 96.5234C204.695 97.6016 205.453 98.9062 205.969 100.438C206.5 101.969 206.766 103.688 206.766 105.594V108.805H186.047V103.859H199.055V103.25C199.07 102.406 198.922 101.688 198.609 101.094C198.312 100.5 197.875 100.047 197.297 99.7344C196.719 99.4219 196.016 99.2656 195.188 99.2656C194.328 99.2656 193.617 99.4531 193.055 99.8281C192.508 100.203 192.078 100.719 191.766 101.375C191.469 102.016 191.258 102.758 191.133 103.602C191.008 104.445 190.945 105.336 190.945 106.273V107.164C190.945 108.102 191.07 108.953 191.32 109.719C191.586 110.484 191.961 111.141 192.445 111.688C192.945 112.219 193.539 112.633 194.227 112.93C194.93 113.227 195.727 113.375 196.617 113.375C197.695 113.375 198.758 113.172 199.805 112.766C200.852 112.359 201.75 111.688 202.5 110.75L206.086 115.016C205.57 115.75 204.836 116.461 203.883 117.148C202.945 117.836 201.82 118.398 200.508 118.836C199.195 119.258 197.727 119.469 196.102 119.469ZM220.688 113.375C221.422 113.375 222.047 113.242 222.562 112.977C223.094 112.695 223.492 112.305 223.758 111.805C224.039 111.289 224.172 110.672 224.156 109.953H231.586C231.602 111.859 231.133 113.531 230.18 114.969C229.242 116.391 227.961 117.5 226.336 118.297C224.727 119.078 222.906 119.469 220.875 119.469C218.891 119.469 217.156 119.148 215.672 118.508C214.188 117.852 212.945 116.945 211.945 115.789C210.961 114.617 210.219 113.25 209.719 111.688C209.234 110.125 208.992 108.43 208.992 106.602V106.062C208.992 104.234 209.234 102.539 209.719 100.977C210.219 99.3984 210.961 98.0312 211.945 96.875C212.945 95.7031 214.18 94.7969 215.648 94.1562C217.133 93.5 218.859 93.1719 220.828 93.1719C222.938 93.1719 224.797 93.5703 226.406 94.3672C228.031 95.1641 229.305 96.3203 230.227 97.8359C231.148 99.3516 231.602 101.188 231.586 103.344H224.156C224.172 102.578 224.055 101.891 223.805 101.281C223.555 100.672 223.164 100.188 222.633 99.8281C222.117 99.4531 221.453 99.2656 220.641 99.2656C219.828 99.2656 219.172 99.4453 218.672 99.8047C218.172 100.164 217.789 100.664 217.523 101.305C217.273 101.93 217.102 102.648 217.008 103.461C216.93 104.273 216.891 105.141 216.891 106.062V106.602C216.891 107.539 216.93 108.422 217.008 109.25C217.102 110.062 217.281 110.781 217.547 111.406C217.812 112.016 218.195 112.5 218.695 112.859C219.195 113.203 219.859 113.375 220.688 113.375ZM248.32 93.6406V99.125H233.039V93.6406H248.32ZM236.25 87.3359H244.148V110.727C244.148 111.398 244.227 111.922 244.383 112.297C244.539 112.656 244.805 112.914 245.18 113.07C245.57 113.211 246.086 113.281 246.727 113.281C247.18 113.281 247.555 113.273 247.852 113.258C248.148 113.227 248.43 113.188 248.695 113.141V118.789C248.023 119.008 247.32 119.172 246.586 119.281C245.852 119.406 245.07 119.469 244.242 119.469C242.555 119.469 241.109 119.203 239.906 118.672C238.719 118.141 237.812 117.305 237.188 116.164C236.562 115.023 236.25 113.539 236.25 111.711V87.3359ZM277.406 107.422H268.922V101.07H277.406C278.562 101.07 279.5 100.875 280.219 100.484C280.938 100.094 281.461 99.5547 281.789 98.8672C282.133 98.1641 282.305 97.375 282.305 96.5C282.305 95.5625 282.133 94.6953 281.789 93.8984C281.461 93.1016 280.938 92.4609 280.219 91.9766C279.5 91.4766 278.562 91.2266 277.406 91.2266H272.016V119H263.789V84.875H277.406C280.141 84.875 282.492 85.375 284.461 86.375C286.445 87.375 287.969 88.75 289.031 90.5C290.094 92.2344 290.625 94.2188 290.625 96.4531C290.625 98.6562 290.094 100.578 289.031 102.219C287.969 103.859 286.445 105.141 284.461 106.062C282.492 106.969 280.141 107.422 277.406 107.422ZM302.414 83V119H294.516V83H302.414ZM301.477 105.453L299.625 105.5C299.625 103.719 299.844 102.078 300.281 100.578C300.719 99.0781 301.344 97.7734 302.156 96.6641C302.969 95.5547 303.945 94.6953 305.086 94.0859C306.227 93.4766 307.492 93.1719 308.883 93.1719C310.133 93.1719 311.273 93.3516 312.305 93.7109C313.352 94.0703 314.25 94.6484 315 95.4453C315.766 96.2422 316.352 97.2812 316.758 98.5625C317.18 99.8438 317.391 101.406 317.391 103.25V119H309.445V103.203C309.445 102.172 309.297 101.375 309 100.812C308.719 100.234 308.312 99.8359 307.781 99.6172C307.25 99.3828 306.602 99.2656 305.836 99.2656C304.914 99.2656 304.164 99.4219 303.586 99.7344C303.008 100.047 302.562 100.484 302.25 101.047C301.953 101.594 301.75 102.242 301.641 102.992C301.531 103.742 301.477 104.562 301.477 105.453ZM330.117 93.6406V119H322.195V93.6406H330.117ZM321.727 87.1016C321.727 85.9766 322.133 85.0547 322.945 84.3359C323.758 83.6172 324.812 83.2578 326.109 83.2578C327.406 83.2578 328.461 83.6172 329.273 84.3359C330.086 85.0547 330.492 85.9766 330.492 87.1016C330.492 88.2266 330.086 89.1484 329.273 89.8672C328.461 90.5859 327.406 90.9453 326.109 90.9453C324.812 90.9453 323.758 90.5859 322.945 89.8672C322.133 89.1484 321.727 88.2266 321.727 87.1016ZM343.336 83V119H335.414V83H343.336ZM347.227 106.578V106.086C347.227 104.227 347.492 102.516 348.023 100.953C348.555 99.375 349.336 98.0078 350.367 96.8516C351.398 95.6953 352.672 94.7969 354.188 94.1562C355.703 93.5 357.453 93.1719 359.438 93.1719C361.438 93.1719 363.195 93.5 364.711 94.1562C366.242 94.7969 367.523 95.6953 368.555 96.8516C369.586 98.0078 370.367 99.375 370.898 100.953C371.43 102.516 371.695 104.227 371.695 106.086V106.578C371.695 108.422 371.43 110.133 370.898 111.711C370.367 113.273 369.586 114.641 368.555 115.812C367.523 116.969 366.25 117.867 364.734 118.508C363.219 119.148 361.469 119.469 359.484 119.469C357.5 119.469 355.742 119.148 354.211 118.508C352.68 117.867 351.398 116.969 350.367 115.812C349.336 114.641 348.555 113.273 348.023 111.711C347.492 110.133 347.227 108.422 347.227 106.578ZM355.125 106.086V106.578C355.125 107.531 355.195 108.422 355.336 109.25C355.477 110.078 355.711 110.805 356.039 111.43C356.367 112.039 356.812 112.516 357.375 112.859C357.938 113.203 358.641 113.375 359.484 113.375C360.312 113.375 361 113.203 361.547 112.859C362.109 112.516 362.555 112.039 362.883 111.43C363.211 110.805 363.445 110.078 363.586 109.25C363.727 108.422 363.797 107.531 363.797 106.578V106.086C363.797 105.164 363.727 104.297 363.586 103.484C363.445 102.656 363.211 101.93 362.883 101.305C362.555 100.664 362.109 100.164 361.547 99.8047C360.984 99.4453 360.281 99.2656 359.438 99.2656C358.609 99.2656 357.914 99.4453 357.352 99.8047C356.805 100.164 356.367 100.664 356.039 101.305C355.711 101.93 355.477 102.656 355.336 103.484C355.195 104.297 355.125 105.164 355.125 106.086ZM388.5 111.875C388.5 111.438 388.352 111.062 388.055 110.75C387.773 110.422 387.273 110.125 386.555 109.859C385.836 109.578 384.828 109.297 383.531 109.016C382.297 108.75 381.133 108.398 380.039 107.961C378.961 107.523 378.016 106.992 377.203 106.367C376.391 105.742 375.75 105 375.281 104.141C374.828 103.281 374.602 102.297 374.602 101.188C374.602 100.109 374.828 99.0938 375.281 98.1406C375.75 97.1719 376.43 96.3203 377.32 95.5859C378.227 94.8359 379.328 94.25 380.625 93.8281C381.922 93.3906 383.398 93.1719 385.055 93.1719C387.336 93.1719 389.305 93.5234 390.961 94.2266C392.617 94.9141 393.891 95.8828 394.781 97.1328C395.688 98.3672 396.141 99.7969 396.141 101.422H388.242C388.242 100.781 388.133 100.234 387.914 99.7812C387.711 99.3281 387.375 98.9844 386.906 98.75C386.438 98.5 385.812 98.375 385.031 98.375C384.484 98.375 383.984 98.4766 383.531 98.6797C383.094 98.8828 382.742 99.1641 382.477 99.5234C382.211 99.8828 382.078 100.305 382.078 100.789C382.078 101.133 382.156 101.445 382.312 101.727C382.484 101.992 382.742 102.242 383.086 102.477C383.43 102.695 383.867 102.898 384.398 103.086C384.93 103.258 385.57 103.414 386.32 103.555C388.023 103.867 389.617 104.312 391.102 104.891C392.586 105.469 393.789 106.289 394.711 107.352C395.648 108.414 396.117 109.844 396.117 111.641C396.117 112.766 395.859 113.805 395.344 114.758C394.828 115.695 394.086 116.523 393.117 117.242C392.148 117.945 390.984 118.492 389.625 118.883C388.266 119.273 386.734 119.469 385.031 119.469C382.609 119.469 380.562 119.039 378.891 118.18C377.219 117.305 375.953 116.211 375.094 114.898C374.25 113.57 373.828 112.227 373.828 110.867H381.188C381.219 111.648 381.406 112.289 381.75 112.789C382.109 113.289 382.586 113.656 383.18 113.891C383.773 114.125 384.461 114.242 385.242 114.242C385.961 114.242 386.555 114.141 387.023 113.938C387.508 113.734 387.875 113.461 388.125 113.117C388.375 112.758 388.5 112.344 388.5 111.875ZM398.836 106.578V106.086C398.836 104.227 399.102 102.516 399.633 100.953C400.164 99.375 400.945 98.0078 401.977 96.8516C403.008 95.6953 404.281 94.7969 405.797 94.1562C407.312 93.5 409.062 93.1719 411.047 93.1719C413.047 93.1719 414.805 93.5 416.32 94.1562C417.852 94.7969 419.133 95.6953 420.164 96.8516C421.195 98.0078 421.977 99.375 422.508 100.953C423.039 102.516 423.305 104.227 423.305 106.086V106.578C423.305 108.422 423.039 110.133 422.508 111.711C421.977 113.273 421.195 114.641 420.164 115.812C419.133 116.969 417.859 117.867 416.344 118.508C414.828 119.148 413.078 119.469 411.094 119.469C409.109 119.469 407.352 119.148 405.82 118.508C404.289 117.867 403.008 116.969 401.977 115.812C400.945 114.641 400.164 113.273 399.633 111.711C399.102 110.133 398.836 108.422 398.836 106.578ZM406.734 106.086V106.578C406.734 107.531 406.805 108.422 406.945 109.25C407.086 110.078 407.32 110.805 407.648 111.43C407.977 112.039 408.422 112.516 408.984 112.859C409.547 113.203 410.25 113.375 411.094 113.375C411.922 113.375 412.609 113.203 413.156 112.859C413.719 112.516 414.164 112.039 414.492 111.43C414.82 110.805 415.055 110.078 415.195 109.25C415.336 108.422 415.406 107.531 415.406 106.578V106.086C415.406 105.164 415.336 104.297 415.195 103.484C415.055 102.656 414.82 101.93 414.492 101.305C414.164 100.664 413.719 100.164 413.156 99.8047C412.594 99.4453 411.891 99.2656 411.047 99.2656C410.219 99.2656 409.523 99.4453 408.961 99.8047C408.414 100.164 407.977 100.664 407.648 101.305C407.32 101.93 407.086 102.656 406.945 103.484C406.805 104.297 406.734 105.164 406.734 106.086ZM434.789 98.5156V128.75H426.891V93.6406H434.25L434.789 98.5156ZM450.352 106.016V106.508C450.352 108.352 450.141 110.062 449.719 111.641C449.297 113.219 448.672 114.594 447.844 115.766C447.016 116.938 445.984 117.852 444.75 118.508C443.531 119.148 442.117 119.469 440.508 119.469C438.992 119.469 437.688 119.133 436.594 118.461C435.5 117.789 434.586 116.859 433.852 115.672C433.117 114.484 432.523 113.125 432.07 111.594C431.617 110.062 431.258 108.445 430.992 106.742V106.109C431.258 104.281 431.617 102.586 432.07 101.023C432.523 99.4453 433.117 98.0703 433.852 96.8984C434.586 95.7266 435.492 94.8125 436.57 94.1562C437.664 93.5 438.969 93.1719 440.484 93.1719C442.094 93.1719 443.508 93.4766 444.727 94.0859C445.961 94.6953 446.992 95.5703 447.82 96.7109C448.664 97.8359 449.297 99.1875 449.719 100.766C450.141 102.344 450.352 104.094 450.352 106.016ZM442.453 106.508V106.016C442.453 105.031 442.383 104.133 442.242 103.32C442.102 102.492 441.875 101.773 441.562 101.164C441.266 100.555 440.867 100.086 440.367 99.7578C439.867 99.4297 439.25 99.2656 438.516 99.2656C437.672 99.2656 436.961 99.3984 436.383 99.6641C435.82 99.9141 435.367 100.305 435.023 100.836C434.695 101.352 434.461 102 434.32 102.781C434.195 103.547 434.141 104.445 434.156 105.477V107.398C434.125 108.586 434.242 109.633 434.508 110.539C434.773 111.43 435.234 112.125 435.891 112.625C436.547 113.125 437.438 113.375 438.562 113.375C439.312 113.375 439.938 113.203 440.438 112.859C440.938 112.5 441.336 112.008 441.633 111.383C441.93 110.742 442.141 110.008 442.266 109.18C442.391 108.352 442.453 107.461 442.453 106.508ZM461.602 83V119H453.703V83H461.602ZM460.664 105.453L458.812 105.5C458.812 103.719 459.031 102.078 459.469 100.578C459.906 99.0781 460.531 97.7734 461.344 96.6641C462.156 95.5547 463.133 94.6953 464.273 94.0859C465.414 93.4766 466.68 93.1719 468.07 93.1719C469.32 93.1719 470.461 93.3516 471.492 93.7109C472.539 94.0703 473.438 94.6484 474.188 95.4453C474.953 96.2422 475.539 97.2812 475.945 98.5625C476.367 99.8438 476.578 101.406 476.578 103.25V119H468.633V103.203C468.633 102.172 468.484 101.375 468.188 100.812C467.906 100.234 467.5 99.8359 466.969 99.6172C466.438 99.3828 465.789 99.2656 465.023 99.2656C464.102 99.2656 463.352 99.4219 462.773 99.7344C462.195 100.047 461.75 100.484 461.438 101.047C461.141 101.594 460.938 102.242 460.828 102.992C460.719 103.742 460.664 104.562 460.664 105.453ZM488.742 116.023L495.305 93.6406H503.789L493.594 122.773C493.375 123.414 493.086 124.102 492.727 124.836C492.367 125.586 491.875 126.297 491.25 126.969C490.625 127.641 489.82 128.188 488.836 128.609C487.867 129.031 486.664 129.242 485.227 129.242C484.461 129.242 483.898 129.203 483.539 129.125C483.195 129.062 482.664 128.945 481.945 128.773V123.125C482.148 123.125 482.32 123.125 482.461 123.125C482.617 123.125 482.789 123.125 482.977 123.125C483.82 123.125 484.492 123.039 484.992 122.867C485.508 122.695 485.898 122.445 486.164 122.117C486.445 121.789 486.664 121.391 486.82 120.922L488.742 116.023ZM487.078 93.6406L492.07 111.383L492.938 119.75H487.641L478.617 93.6406H487.078Z" fill="black"/>
<path d="M1134 0H1348C1356.28 0 1363 6.71573 1363 15V148C1363 156.284 1356.28 163 1348 163H1134V0Z" fill="#23B574"/>
<path d="M1234.26 103.786H1262.74V109.357H1234.26V103.786ZM1239.96 114.929H1257.04V120.5H1239.96V114.929ZM1248.5 42.5C1240.95 42.5 1233.71 45.4349 1228.37 50.6592C1223.03 55.8834 1220.03 62.969 1220.03 70.3571C1219.84 74.4057 1220.63 78.4412 1222.34 82.1315C1224.05 85.8219 1226.64 89.0616 1229.88 91.5843C1232.73 94.175 1234.26 95.6514 1234.26 98.2143H1239.96C1239.96 93.0886 1236.8 90.2193 1233.72 87.4614C1231.06 85.4676 1228.94 82.8658 1227.55 79.8838C1226.15 76.9019 1225.53 73.6308 1225.72 70.3571C1225.72 64.4466 1228.12 58.7781 1232.39 54.5988C1236.67 50.4194 1242.46 48.0714 1248.5 48.0714C1254.54 48.0714 1260.33 50.4194 1264.61 54.5988C1268.88 58.7781 1271.28 64.4466 1271.28 70.3571C1271.47 73.6333 1270.84 76.9059 1269.44 79.888C1268.04 82.8701 1265.92 85.4706 1263.25 87.4614C1260.2 90.2471 1257.04 93.0329 1257.04 98.2143H1262.74C1262.74 95.6514 1264.25 94.175 1267.12 91.5564C1270.36 89.0381 1272.94 85.8031 1274.66 82.1176C1276.37 78.4321 1277.16 74.4014 1276.97 70.3571C1276.97 66.6989 1276.24 63.0765 1274.81 59.6967C1273.37 56.3169 1271.28 53.2459 1268.63 50.6592C1265.99 48.0724 1262.85 46.0205 1259.4 44.6205C1255.94 43.2205 1252.24 42.5 1248.5 42.5Z" fill="white"/>
</svg>
