<svg width="1363" height="163" viewBox="0 0 1363 163" fill="none" xmlns="http://www.w3.org/2000/svg">
<path d="M0 15C0 6.71573 6.71573 0 15 0H37V163H15C6.71573 163 0 156.284 0 148V15Z" fill="#424242"/>
<rect width="1097" height="163" transform="translate(37)" fill="#F0F0F0"/>
<path d="M101.906 53.9219L94.3945 51.2383V48.0859L104.602 52.375V54.6367L101.906 53.9219ZM94.3945 56.1719L101.918 53.4297L104.602 52.7852V55.0352L94.3945 59.3242V56.1719ZM119.543 54.918H115.195V52.1758H119.543C120.215 52.1758 120.762 52.0664 121.184 51.8477C121.605 51.6211 121.914 51.3086 122.109 50.9102C122.305 50.5117 122.402 50.0625 122.402 49.5625C122.402 49.0547 122.305 48.582 122.109 48.1445C121.914 47.707 121.605 47.3555 121.184 47.0898C120.762 46.8242 120.215 46.6914 119.543 46.6914H116.414V61H112.898V43.9375H119.543C120.879 43.9375 122.023 44.1797 122.977 44.6641C123.938 45.1406 124.672 45.8008 125.18 46.6445C125.688 47.4883 125.941 48.4531 125.941 49.5391C125.941 50.6406 125.688 51.5938 125.18 52.3984C124.672 53.2031 123.938 53.8242 122.977 54.2617C122.023 54.6992 120.879 54.918 119.543 54.918ZM131.449 43V61H128.074V43H131.449ZM130.969 54.2148H130.043C130.051 53.332 130.168 52.5195 130.395 51.7773C130.621 51.0273 130.945 50.3789 131.367 49.832C131.789 49.2773 132.293 48.8477 132.879 48.543C133.473 48.2383 134.129 48.0859 134.848 48.0859C135.473 48.0859 136.039 48.1758 136.547 48.3555C137.062 48.5273 137.504 48.8086 137.871 49.1992C138.246 49.582 138.535 50.0859 138.738 50.7109C138.941 51.3359 139.043 52.0938 139.043 52.9844V61H135.645V52.9609C135.645 52.3984 135.562 51.957 135.398 51.6367C135.242 51.3086 135.012 51.0781 134.707 50.9453C134.41 50.8047 134.043 50.7344 133.605 50.7344C133.121 50.7344 132.707 50.8242 132.363 51.0039C132.027 51.1836 131.758 51.4336 131.555 51.7539C131.352 52.0664 131.203 52.4336 131.109 52.8555C131.016 53.2773 130.969 53.7305 130.969 54.2148ZM148.453 58.1406V52.4922C148.453 52.0859 148.387 51.7383 148.254 51.4492C148.121 51.1523 147.914 50.9219 147.633 50.7578C147.359 50.5938 147.004 50.5117 146.566 50.5117C146.191 50.5117 145.867 50.5781 145.594 50.7109C145.32 50.8359 145.109 51.0195 144.961 51.2617C144.812 51.4961 144.738 51.7734 144.738 52.0938H141.363C141.363 51.5547 141.488 51.043 141.738 50.5586C141.988 50.0742 142.352 49.6484 142.828 49.2812C143.305 48.9062 143.871 48.6133 144.527 48.4023C145.191 48.1914 145.934 48.0859 146.754 48.0859C147.738 48.0859 148.613 48.25 149.379 48.5781C150.145 48.9062 150.746 49.3984 151.184 50.0547C151.629 50.7109 151.852 51.5312 151.852 52.5156V57.9414C151.852 58.6367 151.895 59.207 151.98 59.6523C152.066 60.0898 152.191 60.4727 152.355 60.8008V61H148.945C148.781 60.6562 148.656 60.2266 148.57 59.7109C148.492 59.1875 148.453 58.6641 148.453 58.1406ZM148.898 53.2773L148.922 55.1875H147.035C146.59 55.1875 146.203 55.2383 145.875 55.3398C145.547 55.4414 145.277 55.5859 145.066 55.7734C144.855 55.9531 144.699 56.1641 144.598 56.4062C144.504 56.6484 144.457 56.9141 144.457 57.2031C144.457 57.4922 144.523 57.7539 144.656 57.9883C144.789 58.2148 144.98 58.3945 145.23 58.5273C145.48 58.6523 145.773 58.7148 146.109 58.7148C146.617 58.7148 147.059 58.6133 147.434 58.4102C147.809 58.207 148.098 57.957 148.301 57.6602C148.512 57.3633 148.621 57.082 148.629 56.8164L149.52 58.2461C149.395 58.5664 149.223 58.8984 149.004 59.2422C148.793 59.5859 148.523 59.9102 148.195 60.2148C147.867 60.5117 147.473 60.7578 147.012 60.9531C146.551 61.1406 146.004 61.2344 145.371 61.2344C144.566 61.2344 143.836 61.0742 143.18 60.7539C142.531 60.4258 142.016 59.9766 141.633 59.4062C141.258 58.8281 141.07 58.1719 141.07 57.4375C141.07 56.7734 141.195 56.1836 141.445 55.668C141.695 55.1523 142.062 54.7188 142.547 54.3672C143.039 54.0078 143.652 53.7383 144.387 53.5586C145.121 53.3711 145.973 53.2773 146.941 53.2773H148.898ZM157.828 51.0859V61H154.453V48.3203H157.629L157.828 51.0859ZM161.648 48.2383L161.59 51.3672C161.426 51.3438 161.227 51.3242 160.992 51.3086C160.766 51.2852 160.559 51.2734 160.371 51.2734C159.895 51.2734 159.48 51.3359 159.129 51.4609C158.785 51.5781 158.496 51.7539 158.262 51.9883C158.035 52.2227 157.863 52.5078 157.746 52.8438C157.637 53.1797 157.574 53.5625 157.559 53.9922L156.879 53.7812C156.879 52.9609 156.961 52.207 157.125 51.5195C157.289 50.8242 157.527 50.2188 157.84 49.7031C158.16 49.1875 158.551 48.7891 159.012 48.5078C159.473 48.2266 160 48.0859 160.594 48.0859C160.781 48.0859 160.973 48.1016 161.168 48.1328C161.363 48.1562 161.523 48.1914 161.648 48.2383ZM166.617 50.9453V61H163.23V48.3203H166.406L166.617 50.9453ZM166.148 54.2148H165.211C165.211 53.332 165.316 52.5195 165.527 51.7773C165.746 51.0273 166.062 50.3789 166.477 49.832C166.898 49.2773 167.418 48.8477 168.035 48.543C168.652 48.2383 169.367 48.0859 170.18 48.0859C170.742 48.0859 171.258 48.1719 171.727 48.3438C172.195 48.5078 172.598 48.7695 172.934 49.1289C173.277 49.4805 173.543 49.9414 173.73 50.5117C173.918 51.0742 174.012 51.75 174.012 52.5391V61H170.637V52.9141C170.637 52.3359 170.559 51.8906 170.402 51.5781C170.246 51.2656 170.023 51.0469 169.734 50.9219C169.453 50.7969 169.113 50.7344 168.715 50.7344C168.277 50.7344 167.895 50.8242 167.566 51.0039C167.246 51.1836 166.98 51.4336 166.77 51.7539C166.559 52.0664 166.402 52.4336 166.301 52.8555C166.199 53.2773 166.148 53.7305 166.148 54.2148ZM173.695 53.8281L172.488 53.9805C172.488 53.1523 172.59 52.3828 172.793 51.6719C173.004 50.9609 173.312 50.3359 173.719 49.7969C174.133 49.2578 174.645 48.8398 175.254 48.543C175.863 48.2383 176.566 48.0859 177.363 48.0859C177.973 48.0859 178.527 48.1758 179.027 48.3555C179.527 48.5273 179.953 48.8047 180.305 49.1875C180.664 49.5625 180.938 50.0547 181.125 50.6641C181.32 51.2734 181.418 52.0195 181.418 52.9023V61H178.031V52.9023C178.031 52.3164 177.953 51.8711 177.797 51.5664C177.648 51.2539 177.43 51.0391 177.141 50.9219C176.859 50.7969 176.523 50.7344 176.133 50.7344C175.727 50.7344 175.371 50.8164 175.066 50.9805C174.762 51.1367 174.508 51.3555 174.305 51.6367C174.102 51.918 173.949 52.2461 173.848 52.6211C173.746 52.9883 173.695 53.3906 173.695 53.8281ZM190.875 58.1406V52.4922C190.875 52.0859 190.809 51.7383 190.676 51.4492C190.543 51.1523 190.336 50.9219 190.055 50.7578C189.781 50.5938 189.426 50.5117 188.988 50.5117C188.613 50.5117 188.289 50.5781 188.016 50.7109C187.742 50.8359 187.531 51.0195 187.383 51.2617C187.234 51.4961 187.16 51.7734 187.16 52.0938H183.785C183.785 51.5547 183.91 51.043 184.16 50.5586C184.41 50.0742 184.773 49.6484 185.25 49.2812C185.727 48.9062 186.293 48.6133 186.949 48.4023C187.613 48.1914 188.355 48.0859 189.176 48.0859C190.16 48.0859 191.035 48.25 191.801 48.5781C192.566 48.9062 193.168 49.3984 193.605 50.0547C194.051 50.7109 194.273 51.5312 194.273 52.5156V57.9414C194.273 58.6367 194.316 59.207 194.402 59.6523C194.488 60.0898 194.613 60.4727 194.777 60.8008V61H191.367C191.203 60.6562 191.078 60.2266 190.992 59.7109C190.914 59.1875 190.875 58.6641 190.875 58.1406ZM191.32 53.2773L191.344 55.1875H189.457C189.012 55.1875 188.625 55.2383 188.297 55.3398C187.969 55.4414 187.699 55.5859 187.488 55.7734C187.277 55.9531 187.121 56.1641 187.02 56.4062C186.926 56.6484 186.879 56.9141 186.879 57.2031C186.879 57.4922 186.945 57.7539 187.078 57.9883C187.211 58.2148 187.402 58.3945 187.652 58.5273C187.902 58.6523 188.195 58.7148 188.531 58.7148C189.039 58.7148 189.48 58.6133 189.855 58.4102C190.23 58.207 190.52 57.957 190.723 57.6602C190.934 57.3633 191.043 57.082 191.051 56.8164L191.941 58.2461C191.816 58.5664 191.645 58.8984 191.426 59.2422C191.215 59.5859 190.945 59.9102 190.617 60.2148C190.289 60.5117 189.895 60.7578 189.434 60.9531C188.973 61.1406 188.426 61.2344 187.793 61.2344C186.988 61.2344 186.258 61.0742 185.602 60.7539C184.953 60.4258 184.438 59.9766 184.055 59.4062C183.68 58.8281 183.492 58.1719 183.492 57.4375C183.492 56.7734 183.617 56.1836 183.867 55.668C184.117 55.1523 184.484 54.7188 184.969 54.3672C185.461 54.0078 186.074 53.7383 186.809 53.5586C187.543 53.3711 188.395 53.2773 189.363 53.2773H191.32ZM203.238 57.4375L207.258 43.9375H211.172L205.23 61H202.652L203.238 57.4375ZM199.535 43.9375L203.543 57.4375L204.152 61H201.551L195.645 43.9375H199.535ZM217.875 61.2344C216.891 61.2344 216.008 61.0781 215.227 60.7656C214.445 60.4453 213.781 60.0039 213.234 59.4414C212.695 58.8789 212.281 58.2266 211.992 57.4844C211.703 56.7344 211.559 55.9375 211.559 55.0938V54.625C211.559 53.6641 211.695 52.7852 211.969 51.9883C212.242 51.1914 212.633 50.5 213.141 49.9141C213.656 49.3281 214.281 48.8789 215.016 48.5664C215.75 48.2461 216.578 48.0859 217.5 48.0859C218.398 48.0859 219.195 48.2344 219.891 48.5312C220.586 48.8281 221.168 49.25 221.637 49.7969C222.113 50.3438 222.473 51 222.715 51.7656C222.957 52.5234 223.078 53.3672 223.078 54.2969V55.7031H213V53.4531H219.762V53.1953C219.762 52.7266 219.676 52.3086 219.504 51.9414C219.34 51.5664 219.09 51.2695 218.754 51.0508C218.418 50.832 217.988 50.7227 217.465 50.7227C217.02 50.7227 216.637 50.8203 216.316 51.0156C215.996 51.2109 215.734 51.4844 215.531 51.8359C215.336 52.1875 215.188 52.6016 215.086 53.0781C214.992 53.5469 214.945 54.0625 214.945 54.625V55.0938C214.945 55.6016 215.016 56.0703 215.156 56.5C215.305 56.9297 215.512 57.3008 215.777 57.6133C216.051 57.9258 216.379 58.168 216.762 58.3398C217.152 58.5117 217.594 58.5977 218.086 58.5977C218.695 58.5977 219.262 58.4805 219.785 58.2461C220.316 58.0039 220.773 57.6406 221.156 57.1562L222.797 58.9375C222.531 59.3203 222.168 59.6875 221.707 60.0391C221.254 60.3906 220.707 60.6797 220.066 60.9062C219.426 61.125 218.695 61.2344 217.875 61.2344ZM228.305 51.0273V61H224.93V48.3203H228.094L228.305 51.0273ZM227.812 54.2148H226.898C226.898 53.2773 227.02 52.4336 227.262 51.6836C227.504 50.9258 227.844 50.2812 228.281 49.75C228.719 49.2109 229.238 48.8008 229.84 48.5195C230.449 48.2305 231.129 48.0859 231.879 48.0859C232.473 48.0859 233.016 48.1719 233.508 48.3438C234 48.5156 234.422 48.7891 234.773 49.1641C235.133 49.5391 235.406 50.0352 235.594 50.6523C235.789 51.2695 235.887 52.0234 235.887 52.9141V61H232.488V52.9023C232.488 52.3398 232.41 51.9023 232.254 51.5898C232.098 51.2773 231.867 51.0586 231.562 50.9336C231.266 50.8008 230.898 50.7344 230.461 50.7344C230.008 50.7344 229.613 50.8242 229.277 51.0039C228.949 51.1836 228.676 51.4336 228.457 51.7539C228.246 52.0664 228.086 52.4336 227.977 52.8555C227.867 53.2773 227.812 53.7305 227.812 54.2148ZM245.941 58.2344V43H249.34V61H246.281L245.941 58.2344ZM237.926 54.8125V54.5664C237.926 53.5977 238.035 52.7188 238.254 51.9297C238.473 51.1328 238.793 50.4492 239.215 49.8789C239.637 49.3086 240.156 48.8672 240.773 48.5547C241.391 48.2422 242.094 48.0859 242.883 48.0859C243.625 48.0859 244.273 48.2422 244.828 48.5547C245.391 48.8672 245.867 49.3125 246.258 49.8906C246.656 50.4609 246.977 51.1367 247.219 51.918C247.461 52.6914 247.637 53.5391 247.746 54.4609V55C247.637 55.8828 247.461 56.7031 247.219 57.4609C246.977 58.2188 246.656 58.8828 246.258 59.4531C245.867 60.0156 245.391 60.4531 244.828 60.7656C244.266 61.0781 243.609 61.2344 242.859 61.2344C242.07 61.2344 241.367 61.0742 240.75 60.7539C240.141 60.4336 239.625 59.9844 239.203 59.4062C238.789 58.8281 238.473 58.1484 238.254 57.3672C238.035 56.5859 237.926 55.7344 237.926 54.8125ZM241.301 54.5664V54.8125C241.301 55.3359 241.34 55.8242 241.418 56.2773C241.504 56.7305 241.641 57.1328 241.828 57.4844C242.023 57.8281 242.273 58.0977 242.578 58.293C242.891 58.4805 243.27 58.5742 243.715 58.5742C244.293 58.5742 244.77 58.4453 245.145 58.1875C245.52 57.9219 245.805 57.5586 246 57.0977C246.203 56.6367 246.32 56.1055 246.352 55.5039V53.9688C246.328 53.4766 246.258 53.0352 246.141 52.6445C246.031 52.2461 245.867 51.9062 245.648 51.625C245.438 51.3438 245.172 51.125 244.852 50.9688C244.539 50.8125 244.168 50.7344 243.738 50.7344C243.301 50.7344 242.926 50.8359 242.613 51.0391C242.301 51.2344 242.047 51.5039 241.852 51.8477C241.664 52.1914 241.523 52.5977 241.43 53.0664C241.344 53.5273 241.301 54.0273 241.301 54.5664Z" fill="#888888"/>
<path d="M114.117 84.875H122.344V107.164C122.344 109.82 121.789 112.07 120.68 113.914C119.57 115.742 118.016 117.125 116.016 118.062C114.016 119 111.664 119.469 108.961 119.469C106.289 119.469 103.938 119 101.906 118.062C99.8906 117.125 98.3125 115.742 97.1719 113.914C96.0469 112.07 95.4844 109.82 95.4844 107.164V84.875H103.734V107.164C103.734 108.57 103.938 109.719 104.344 110.609C104.75 111.484 105.344 112.125 106.125 112.531C106.906 112.938 107.852 113.141 108.961 113.141C110.086 113.141 111.031 112.938 111.797 112.531C112.562 112.125 113.141 111.484 113.531 110.609C113.922 109.719 114.117 108.57 114.117 107.164V84.875ZM136.266 84.875V119H128.062V84.875H136.266ZM172.523 84.875H180.75V107.164C180.75 109.82 180.195 112.07 179.086 113.914C177.977 115.742 176.422 117.125 174.422 118.062C172.422 119 170.07 119.469 167.367 119.469C164.695 119.469 162.344 119 160.312 118.062C158.297 117.125 156.719 115.742 155.578 113.914C154.453 112.07 153.891 109.82 153.891 107.164V84.875H162.141V107.164C162.141 108.57 162.344 109.719 162.75 110.609C163.156 111.484 163.75 112.125 164.531 112.531C165.312 112.938 166.258 113.141 167.367 113.141C168.492 113.141 169.438 112.938 170.203 112.531C170.969 112.125 171.547 111.484 171.938 110.609C172.328 109.719 172.523 108.57 172.523 107.164V84.875ZM193.078 84.875L198.656 96.2188L204.234 84.875H213.609L204.094 101.797L213.867 119H204.398L198.656 107.445L192.914 119H183.422L193.219 101.797L183.68 84.875H193.078Z" fill="black"/>
<path d="M1134 0H1348C1356.28 0 1363 6.71573 1363 15V148C1363 156.284 1356.28 163 1348 163H1134V0Z" fill="#22B573"/>
<path d="M1248.5 111.917C1244.51 111.917 1240.55 111.13 1236.86 109.601C1233.17 108.073 1229.82 105.832 1226.99 103.008C1221.29 97.3036 1218.08 89.567 1218.08 81.5C1218.08 73.433 1221.29 65.6964 1226.99 59.9922C1232.7 54.2879 1240.43 51.0833 1248.5 51.0833C1265.23 51.0833 1278.92 63.25 1278.92 78.4583C1278.92 83.2985 1276.99 87.9405 1273.57 91.363C1270.15 94.7856 1265.51 96.7083 1260.67 96.7083H1255.19C1254.28 96.7083 1253.67 97.3167 1253.67 98.2292C1253.67 98.5333 1253.97 98.8375 1253.97 99.1417C1255.19 100.662 1255.8 102.487 1255.8 104.312C1256.1 108.571 1252.76 111.917 1248.5 111.917ZM1248.5 57.1667C1242.05 57.1667 1235.86 59.7303 1231.29 64.2937C1226.73 68.8571 1224.17 75.0464 1224.17 81.5C1224.17 87.9536 1226.73 94.1429 1231.29 98.7063C1235.86 103.27 1242.05 105.833 1248.5 105.833C1249.41 105.833 1250.02 105.225 1250.02 104.312C1250.02 103.704 1249.72 103.4 1249.72 103.096C1248.5 101.575 1247.89 100.054 1247.89 98.2292C1247.89 93.9708 1251.24 90.625 1255.5 90.625H1260.67C1263.89 90.625 1266.99 89.3432 1269.27 87.0615C1271.55 84.7798 1272.83 81.6851 1272.83 78.4583C1272.83 66.5958 1261.88 57.1667 1248.5 57.1667ZM1231.77 75.4167C1234.2 75.4167 1236.33 77.5458 1236.33 79.9792C1236.33 82.4125 1234.2 84.5417 1231.77 84.5417C1229.34 84.5417 1227.21 82.4125 1227.21 79.9792C1227.21 77.5458 1229.34 75.4167 1231.77 75.4167ZM1240.9 63.25C1243.33 63.25 1245.46 65.3792 1245.46 67.8125C1245.46 70.2458 1243.33 72.375 1240.9 72.375C1238.46 72.375 1236.33 70.2458 1236.33 67.8125C1236.33 65.3792 1238.46 63.25 1240.9 63.25ZM1256.1 63.25C1258.54 63.25 1260.67 65.3792 1260.67 67.8125C1260.67 70.2458 1258.54 72.375 1256.1 72.375C1253.67 72.375 1251.54 70.2458 1251.54 67.8125C1251.54 65.3792 1253.67 63.25 1256.1 63.25ZM1265.23 75.4167C1267.66 75.4167 1269.79 77.5458 1269.79 79.9792C1269.79 82.4125 1267.66 84.5417 1265.23 84.5417C1262.8 84.5417 1260.67 82.4125 1260.67 79.9792C1260.67 77.5458 1262.8 75.4167 1265.23 75.4167Z" fill="white"/>
</svg>
