<svg width="1363" height="163" viewBox="0 0 1363 163" fill="none" xmlns="http://www.w3.org/2000/svg">
<path d="M0 15C0 6.71573 6.71573 0 15 0H37V163H15C6.71573 163 0 156.284 0 148V15Z" fill="#424242"/>
<rect width="1097" height="163" transform="translate(37)" fill="#F0F0F0"/>
<path d="M101.906 53.9219L94.3945 51.2383V48.0859L104.602 52.375V54.6367L101.906 53.9219ZM94.3945 56.1719L101.918 53.4297L104.602 52.7852V55.0352L94.3945 59.3242V56.1719ZM119.543 54.918H115.195V52.1758H119.543C120.215 52.1758 120.762 52.0664 121.184 51.8477C121.605 51.6211 121.914 51.3086 122.109 50.9102C122.305 50.5117 122.402 50.0625 122.402 49.5625C122.402 49.0547 122.305 48.582 122.109 48.1445C121.914 47.707 121.605 47.3555 121.184 47.0898C120.762 46.8242 120.215 46.6914 119.543 46.6914H116.414V61H112.898V43.9375H119.543C120.879 43.9375 122.023 44.1797 122.977 44.6641C123.938 45.1406 124.672 45.8008 125.18 46.6445C125.688 47.4883 125.941 48.4531 125.941 49.5391C125.941 50.6406 125.688 51.5938 125.18 52.3984C124.672 53.2031 123.938 53.8242 122.977 54.2617C122.023 54.6992 120.879 54.918 119.543 54.918ZM131.449 43V61H128.074V43H131.449ZM130.969 54.2148H130.043C130.051 53.332 130.168 52.5195 130.395 51.7773C130.621 51.0273 130.945 50.3789 131.367 49.832C131.789 49.2773 132.293 48.8477 132.879 48.543C133.473 48.2383 134.129 48.0859 134.848 48.0859C135.473 48.0859 136.039 48.1758 136.547 48.3555C137.062 48.5273 137.504 48.8086 137.871 49.1992C138.246 49.582 138.535 50.0859 138.738 50.7109C138.941 51.3359 139.043 52.0938 139.043 52.9844V61H135.645V52.9609C135.645 52.3984 135.562 51.957 135.398 51.6367C135.242 51.3086 135.012 51.0781 134.707 50.9453C134.41 50.8047 134.043 50.7344 133.605 50.7344C133.121 50.7344 132.707 50.8242 132.363 51.0039C132.027 51.1836 131.758 51.4336 131.555 51.7539C131.352 52.0664 131.203 52.4336 131.109 52.8555C131.016 53.2773 130.969 53.7305 130.969 54.2148ZM148.453 58.1406V52.4922C148.453 52.0859 148.387 51.7383 148.254 51.4492C148.121 51.1523 147.914 50.9219 147.633 50.7578C147.359 50.5938 147.004 50.5117 146.566 50.5117C146.191 50.5117 145.867 50.5781 145.594 50.7109C145.32 50.8359 145.109 51.0195 144.961 51.2617C144.812 51.4961 144.738 51.7734 144.738 52.0938H141.363C141.363 51.5547 141.488 51.043 141.738 50.5586C141.988 50.0742 142.352 49.6484 142.828 49.2812C143.305 48.9062 143.871 48.6133 144.527 48.4023C145.191 48.1914 145.934 48.0859 146.754 48.0859C147.738 48.0859 148.613 48.25 149.379 48.5781C150.145 48.9062 150.746 49.3984 151.184 50.0547C151.629 50.7109 151.852 51.5312 151.852 52.5156V57.9414C151.852 58.6367 151.895 59.207 151.98 59.6523C152.066 60.0898 152.191 60.4727 152.355 60.8008V61H148.945C148.781 60.6562 148.656 60.2266 148.57 59.7109C148.492 59.1875 148.453 58.6641 148.453 58.1406ZM148.898 53.2773L148.922 55.1875H147.035C146.59 55.1875 146.203 55.2383 145.875 55.3398C145.547 55.4414 145.277 55.5859 145.066 55.7734C144.855 55.9531 144.699 56.1641 144.598 56.4062C144.504 56.6484 144.457 56.9141 144.457 57.2031C144.457 57.4922 144.523 57.7539 144.656 57.9883C144.789 58.2148 144.98 58.3945 145.23 58.5273C145.48 58.6523 145.773 58.7148 146.109 58.7148C146.617 58.7148 147.059 58.6133 147.434 58.4102C147.809 58.207 148.098 57.957 148.301 57.6602C148.512 57.3633 148.621 57.082 148.629 56.8164L149.52 58.2461C149.395 58.5664 149.223 58.8984 149.004 59.2422C148.793 59.5859 148.523 59.9102 148.195 60.2148C147.867 60.5117 147.473 60.7578 147.012 60.9531C146.551 61.1406 146.004 61.2344 145.371 61.2344C144.566 61.2344 143.836 61.0742 143.18 60.7539C142.531 60.4258 142.016 59.9766 141.633 59.4062C141.258 58.8281 141.07 58.1719 141.07 57.4375C141.07 56.7734 141.195 56.1836 141.445 55.668C141.695 55.1523 142.062 54.7188 142.547 54.3672C143.039 54.0078 143.652 53.7383 144.387 53.5586C145.121 53.3711 145.973 53.2773 146.941 53.2773H148.898ZM157.828 51.0859V61H154.453V48.3203H157.629L157.828 51.0859ZM161.648 48.2383L161.59 51.3672C161.426 51.3438 161.227 51.3242 160.992 51.3086C160.766 51.2852 160.559 51.2734 160.371 51.2734C159.895 51.2734 159.48 51.3359 159.129 51.4609C158.785 51.5781 158.496 51.7539 158.262 51.9883C158.035 52.2227 157.863 52.5078 157.746 52.8438C157.637 53.1797 157.574 53.5625 157.559 53.9922L156.879 53.7812C156.879 52.9609 156.961 52.207 157.125 51.5195C157.289 50.8242 157.527 50.2188 157.84 49.7031C158.16 49.1875 158.551 48.7891 159.012 48.5078C159.473 48.2266 160 48.0859 160.594 48.0859C160.781 48.0859 160.973 48.1016 161.168 48.1328C161.363 48.1562 161.523 48.1914 161.648 48.2383ZM166.617 50.9453V61H163.23V48.3203H166.406L166.617 50.9453ZM166.148 54.2148H165.211C165.211 53.332 165.316 52.5195 165.527 51.7773C165.746 51.0273 166.062 50.3789 166.477 49.832C166.898 49.2773 167.418 48.8477 168.035 48.543C168.652 48.2383 169.367 48.0859 170.18 48.0859C170.742 48.0859 171.258 48.1719 171.727 48.3438C172.195 48.5078 172.598 48.7695 172.934 49.1289C173.277 49.4805 173.543 49.9414 173.73 50.5117C173.918 51.0742 174.012 51.75 174.012 52.5391V61H170.637V52.9141C170.637 52.3359 170.559 51.8906 170.402 51.5781C170.246 51.2656 170.023 51.0469 169.734 50.9219C169.453 50.7969 169.113 50.7344 168.715 50.7344C168.277 50.7344 167.895 50.8242 167.566 51.0039C167.246 51.1836 166.98 51.4336 166.77 51.7539C166.559 52.0664 166.402 52.4336 166.301 52.8555C166.199 53.2773 166.148 53.7305 166.148 54.2148ZM173.695 53.8281L172.488 53.9805C172.488 53.1523 172.59 52.3828 172.793 51.6719C173.004 50.9609 173.312 50.3359 173.719 49.7969C174.133 49.2578 174.645 48.8398 175.254 48.543C175.863 48.2383 176.566 48.0859 177.363 48.0859C177.973 48.0859 178.527 48.1758 179.027 48.3555C179.527 48.5273 179.953 48.8047 180.305 49.1875C180.664 49.5625 180.938 50.0547 181.125 50.6641C181.32 51.2734 181.418 52.0195 181.418 52.9023V61H178.031V52.9023C178.031 52.3164 177.953 51.8711 177.797 51.5664C177.648 51.2539 177.43 51.0391 177.141 50.9219C176.859 50.7969 176.523 50.7344 176.133 50.7344C175.727 50.7344 175.371 50.8164 175.066 50.9805C174.762 51.1367 174.508 51.3555 174.305 51.6367C174.102 51.918 173.949 52.2461 173.848 52.6211C173.746 52.9883 173.695 53.3906 173.695 53.8281ZM190.875 58.1406V52.4922C190.875 52.0859 190.809 51.7383 190.676 51.4492C190.543 51.1523 190.336 50.9219 190.055 50.7578C189.781 50.5938 189.426 50.5117 188.988 50.5117C188.613 50.5117 188.289 50.5781 188.016 50.7109C187.742 50.8359 187.531 51.0195 187.383 51.2617C187.234 51.4961 187.16 51.7734 187.16 52.0938H183.785C183.785 51.5547 183.91 51.043 184.16 50.5586C184.41 50.0742 184.773 49.6484 185.25 49.2812C185.727 48.9062 186.293 48.6133 186.949 48.4023C187.613 48.1914 188.355 48.0859 189.176 48.0859C190.16 48.0859 191.035 48.25 191.801 48.5781C192.566 48.9062 193.168 49.3984 193.605 50.0547C194.051 50.7109 194.273 51.5312 194.273 52.5156V57.9414C194.273 58.6367 194.316 59.207 194.402 59.6523C194.488 60.0898 194.613 60.4727 194.777 60.8008V61H191.367C191.203 60.6562 191.078 60.2266 190.992 59.7109C190.914 59.1875 190.875 58.6641 190.875 58.1406ZM191.32 53.2773L191.344 55.1875H189.457C189.012 55.1875 188.625 55.2383 188.297 55.3398C187.969 55.4414 187.699 55.5859 187.488 55.7734C187.277 55.9531 187.121 56.1641 187.02 56.4062C186.926 56.6484 186.879 56.9141 186.879 57.2031C186.879 57.4922 186.945 57.7539 187.078 57.9883C187.211 58.2148 187.402 58.3945 187.652 58.5273C187.902 58.6523 188.195 58.7148 188.531 58.7148C189.039 58.7148 189.48 58.6133 189.855 58.4102C190.23 58.207 190.52 57.957 190.723 57.6602C190.934 57.3633 191.043 57.082 191.051 56.8164L191.941 58.2461C191.816 58.5664 191.645 58.8984 191.426 59.2422C191.215 59.5859 190.945 59.9102 190.617 60.2148C190.289 60.5117 189.895 60.7578 189.434 60.9531C188.973 61.1406 188.426 61.2344 187.793 61.2344C186.988 61.2344 186.258 61.0742 185.602 60.7539C184.953 60.4258 184.438 59.9766 184.055 59.4062C183.68 58.8281 183.492 58.1719 183.492 57.4375C183.492 56.7734 183.617 56.1836 183.867 55.668C184.117 55.1523 184.484 54.7188 184.969 54.3672C185.461 54.0078 186.074 53.7383 186.809 53.5586C187.543 53.3711 188.395 53.2773 189.363 53.2773H191.32ZM203.238 57.4375L207.258 43.9375H211.172L205.23 61H202.652L203.238 57.4375ZM199.535 43.9375L203.543 57.4375L204.152 61H201.551L195.645 43.9375H199.535ZM217.875 61.2344C216.891 61.2344 216.008 61.0781 215.227 60.7656C214.445 60.4453 213.781 60.0039 213.234 59.4414C212.695 58.8789 212.281 58.2266 211.992 57.4844C211.703 56.7344 211.559 55.9375 211.559 55.0938V54.625C211.559 53.6641 211.695 52.7852 211.969 51.9883C212.242 51.1914 212.633 50.5 213.141 49.9141C213.656 49.3281 214.281 48.8789 215.016 48.5664C215.75 48.2461 216.578 48.0859 217.5 48.0859C218.398 48.0859 219.195 48.2344 219.891 48.5312C220.586 48.8281 221.168 49.25 221.637 49.7969C222.113 50.3438 222.473 51 222.715 51.7656C222.957 52.5234 223.078 53.3672 223.078 54.2969V55.7031H213V53.4531H219.762V53.1953C219.762 52.7266 219.676 52.3086 219.504 51.9414C219.34 51.5664 219.09 51.2695 218.754 51.0508C218.418 50.832 217.988 50.7227 217.465 50.7227C217.02 50.7227 216.637 50.8203 216.316 51.0156C215.996 51.2109 215.734 51.4844 215.531 51.8359C215.336 52.1875 215.188 52.6016 215.086 53.0781C214.992 53.5469 214.945 54.0625 214.945 54.625V55.0938C214.945 55.6016 215.016 56.0703 215.156 56.5C215.305 56.9297 215.512 57.3008 215.777 57.6133C216.051 57.9258 216.379 58.168 216.762 58.3398C217.152 58.5117 217.594 58.5977 218.086 58.5977C218.695 58.5977 219.262 58.4805 219.785 58.2461C220.316 58.0039 220.773 57.6406 221.156 57.1562L222.797 58.9375C222.531 59.3203 222.168 59.6875 221.707 60.0391C221.254 60.3906 220.707 60.6797 220.066 60.9062C219.426 61.125 218.695 61.2344 217.875 61.2344ZM228.305 51.0273V61H224.93V48.3203H228.094L228.305 51.0273ZM227.812 54.2148H226.898C226.898 53.2773 227.02 52.4336 227.262 51.6836C227.504 50.9258 227.844 50.2812 228.281 49.75C228.719 49.2109 229.238 48.8008 229.84 48.5195C230.449 48.2305 231.129 48.0859 231.879 48.0859C232.473 48.0859 233.016 48.1719 233.508 48.3438C234 48.5156 234.422 48.7891 234.773 49.1641C235.133 49.5391 235.406 50.0352 235.594 50.6523C235.789 51.2695 235.887 52.0234 235.887 52.9141V61H232.488V52.9023C232.488 52.3398 232.41 51.9023 232.254 51.5898C232.098 51.2773 231.867 51.0586 231.562 50.9336C231.266 50.8008 230.898 50.7344 230.461 50.7344C230.008 50.7344 229.613 50.8242 229.277 51.0039C228.949 51.1836 228.676 51.4336 228.457 51.7539C228.246 52.0664 228.086 52.4336 227.977 52.8555C227.867 53.2773 227.812 53.7305 227.812 54.2148ZM245.941 58.2344V43H249.34V61H246.281L245.941 58.2344ZM237.926 54.8125V54.5664C237.926 53.5977 238.035 52.7188 238.254 51.9297C238.473 51.1328 238.793 50.4492 239.215 49.8789C239.637 49.3086 240.156 48.8672 240.773 48.5547C241.391 48.2422 242.094 48.0859 242.883 48.0859C243.625 48.0859 244.273 48.2422 244.828 48.5547C245.391 48.8672 245.867 49.3125 246.258 49.8906C246.656 50.4609 246.977 51.1367 247.219 51.918C247.461 52.6914 247.637 53.5391 247.746 54.4609V55C247.637 55.8828 247.461 56.7031 247.219 57.4609C246.977 58.2188 246.656 58.8828 246.258 59.4531C245.867 60.0156 245.391 60.4531 244.828 60.7656C244.266 61.0781 243.609 61.2344 242.859 61.2344C242.07 61.2344 241.367 61.0742 240.75 60.7539C240.141 60.4336 239.625 59.9844 239.203 59.4062C238.789 58.8281 238.473 58.1484 238.254 57.3672C238.035 56.5859 237.926 55.7344 237.926 54.8125ZM241.301 54.5664V54.8125C241.301 55.3359 241.34 55.8242 241.418 56.2773C241.504 56.7305 241.641 57.1328 241.828 57.4844C242.023 57.8281 242.273 58.0977 242.578 58.293C242.891 58.4805 243.27 58.5742 243.715 58.5742C244.293 58.5742 244.77 58.4453 245.145 58.1875C245.52 57.9219 245.805 57.5586 246 57.0977C246.203 56.6367 246.32 56.1055 246.352 55.5039V53.9688C246.328 53.4766 246.258 53.0352 246.141 52.6445C246.031 52.2461 245.867 51.9062 245.648 51.625C245.438 51.3438 245.172 51.125 244.852 50.9688C244.539 50.8125 244.168 50.7344 243.738 50.7344C243.301 50.7344 242.926 50.8359 242.613 51.0391C242.301 51.2344 242.047 51.5039 241.852 51.8477C241.664 52.1914 241.523 52.5977 241.43 53.0664C241.344 53.5273 241.301 54.0273 241.301 54.5664Z" fill="#888888"/>
<path d="M123.516 100.766V114.781C122.938 115.422 122.047 116.109 120.844 116.844C119.656 117.562 118.156 118.18 116.344 118.695C114.531 119.211 112.398 119.469 109.945 119.469C107.68 119.469 105.625 119.109 103.781 118.391C101.938 117.656 100.352 116.586 99.0234 115.18C97.7109 113.758 96.6953 112.023 95.9766 109.977C95.2734 107.914 94.9219 105.555 94.9219 102.898V101C94.9219 98.3438 95.2812 95.9844 96 93.9219C96.7188 91.8594 97.7266 90.125 99.0234 88.7188C100.336 87.2969 101.875 86.2188 103.641 85.4844C105.422 84.75 107.375 84.3828 109.5 84.3828C112.641 84.3828 115.195 84.8828 117.164 85.8828C119.133 86.8672 120.625 88.2344 121.641 89.9844C122.656 91.7188 123.273 93.7266 123.492 96.0078H115.594C115.438 94.8828 115.141 93.9297 114.703 93.1484C114.281 92.3516 113.672 91.75 112.875 91.3438C112.078 90.9219 111.047 90.7109 109.781 90.7109C108.797 90.7109 107.898 90.9219 107.086 91.3438C106.289 91.7656 105.609 92.4062 105.047 93.2656C104.484 94.1094 104.047 95.1719 103.734 96.4531C103.438 97.7344 103.289 99.2344 103.289 100.953V102.898C103.289 104.602 103.43 106.094 103.711 107.375C104.008 108.656 104.445 109.727 105.023 110.586C105.617 111.43 106.367 112.07 107.273 112.508C108.195 112.93 109.281 113.141 110.531 113.141C111.406 113.141 112.156 113.07 112.781 112.93C113.406 112.773 113.922 112.586 114.328 112.367C114.75 112.133 115.07 111.914 115.289 111.711V106.414H109.57V100.766H123.516ZM136.289 93.6406V119H128.367V93.6406H136.289ZM127.898 87.1016C127.898 85.9766 128.305 85.0547 129.117 84.3359C129.93 83.6172 130.984 83.2578 132.281 83.2578C133.578 83.2578 134.633 83.6172 135.445 84.3359C136.258 85.0547 136.664 85.9766 136.664 87.1016C136.664 88.2266 136.258 89.1484 135.445 89.8672C134.633 90.5859 133.578 90.9453 132.281 90.9453C130.984 90.9453 129.93 90.5859 129.117 89.8672C128.305 89.1484 127.898 88.2266 127.898 87.1016ZM154.523 93.6406V99.125H139.242V93.6406H154.523ZM142.453 87.3359H150.352V110.727C150.352 111.398 150.43 111.922 150.586 112.297C150.742 112.656 151.008 112.914 151.383 113.07C151.773 113.211 152.289 113.281 152.93 113.281C153.383 113.281 153.758 113.273 154.055 113.258C154.352 113.227 154.633 113.188 154.898 113.141V118.789C154.227 119.008 153.523 119.172 152.789 119.281C152.055 119.406 151.273 119.469 150.445 119.469C148.758 119.469 147.312 119.203 146.109 118.672C144.922 118.141 144.016 117.305 143.391 116.164C142.766 115.023 142.453 113.539 142.453 111.711V87.3359ZM181.031 98.4219V104.75H163.523V98.4219H181.031ZM166.266 84.875V119H158.039V84.875H166.266ZM186.562 84.875V119H178.359V84.875H186.562ZM206.227 112.836V93.6406H214.148V119H206.742L206.227 112.836ZM206.977 107.68L209.039 107.633C209.039 109.336 208.836 110.914 208.43 112.367C208.023 113.805 207.422 115.055 206.625 116.117C205.844 117.18 204.875 118.008 203.719 118.602C202.578 119.18 201.258 119.469 199.758 119.469C198.508 119.469 197.359 119.297 196.312 118.953C195.281 118.594 194.391 118.039 193.641 117.289C192.891 116.523 192.305 115.547 191.883 114.359C191.477 113.156 191.273 111.719 191.273 110.047V93.6406H199.172V110.094C199.172 110.656 199.242 111.141 199.383 111.547C199.523 111.953 199.727 112.297 199.992 112.578C200.258 112.844 200.586 113.047 200.977 113.188C201.383 113.312 201.844 113.375 202.359 113.375C203.547 113.375 204.477 113.125 205.148 112.625C205.82 112.125 206.289 111.445 206.555 110.586C206.836 109.727 206.977 108.758 206.977 107.68ZM218.578 83H226.477V112.766L225.656 119H218.578V83ZM242.039 106.039V106.531C242.039 108.453 241.844 110.203 241.453 111.781C241.062 113.359 240.461 114.727 239.648 115.883C238.836 117.023 237.812 117.906 236.578 118.531C235.344 119.156 233.883 119.469 232.195 119.469C230.664 119.469 229.352 119.141 228.258 118.484C227.164 117.812 226.25 116.891 225.516 115.719C224.781 114.531 224.188 113.164 223.734 111.617C223.281 110.055 222.922 108.383 222.656 106.602V106.016C222.922 104.25 223.281 102.594 223.734 101.047C224.188 99.4844 224.781 98.1172 225.516 96.9453C226.25 95.7578 227.156 94.8359 228.234 94.1797C229.328 93.5078 230.633 93.1719 232.148 93.1719C233.852 93.1719 235.32 93.4922 236.555 94.1328C237.805 94.7734 238.836 95.6719 239.648 96.8281C240.461 97.9844 241.062 99.3438 241.453 100.906C241.844 102.469 242.039 104.18 242.039 106.039ZM234.141 106.531V106.039C234.141 105.117 234.086 104.25 233.977 103.438C233.867 102.625 233.672 101.906 233.391 101.281C233.109 100.656 232.711 100.164 232.195 99.8047C231.68 99.4453 231.008 99.2656 230.18 99.2656C229.336 99.2656 228.625 99.4062 228.047 99.6875C227.484 99.9688 227.031 100.375 226.688 100.906C226.359 101.422 226.125 102.062 225.984 102.828C225.844 103.578 225.781 104.43 225.797 105.383V107.234C225.766 108.531 225.883 109.641 226.148 110.562C226.414 111.484 226.875 112.188 227.531 112.672C228.188 113.156 229.086 113.398 230.227 113.398C231.07 113.398 231.75 113.234 232.266 112.906C232.797 112.578 233.195 112.109 233.461 111.5C233.727 110.891 233.906 110.164 234 109.32C234.094 108.477 234.141 107.547 234.141 106.531ZM272.344 92.0469L264.023 119H255.188L267.727 84.875H273.328L272.344 92.0469ZM279.234 119L270.891 92.0469L269.812 84.875H275.484L288.094 119H279.234ZM278.906 106.273V112.625H261.398V106.273H278.906ZM300.938 113.375C301.672 113.375 302.297 113.242 302.812 112.977C303.344 112.695 303.742 112.305 304.008 111.805C304.289 111.289 304.422 110.672 304.406 109.953H311.836C311.852 111.859 311.383 113.531 310.43 114.969C309.492 116.391 308.211 117.5 306.586 118.297C304.977 119.078 303.156 119.469 301.125 119.469C299.141 119.469 297.406 119.148 295.922 118.508C294.438 117.852 293.195 116.945 292.195 115.789C291.211 114.617 290.469 113.25 289.969 111.688C289.484 110.125 289.242 108.43 289.242 106.602V106.062C289.242 104.234 289.484 102.539 289.969 100.977C290.469 99.3984 291.211 98.0312 292.195 96.875C293.195 95.7031 294.43 94.7969 295.898 94.1562C297.383 93.5 299.109 93.1719 301.078 93.1719C303.188 93.1719 305.047 93.5703 306.656 94.3672C308.281 95.1641 309.555 96.3203 310.477 97.8359C311.398 99.3516 311.852 101.188 311.836 103.344H304.406C304.422 102.578 304.305 101.891 304.055 101.281C303.805 100.672 303.414 100.188 302.883 99.8281C302.367 99.4531 301.703 99.2656 300.891 99.2656C300.078 99.2656 299.422 99.4453 298.922 99.8047C298.422 100.164 298.039 100.664 297.773 101.305C297.523 101.93 297.352 102.648 297.258 103.461C297.18 104.273 297.141 105.141 297.141 106.062V106.602C297.141 107.539 297.18 108.422 297.258 109.25C297.352 110.062 297.531 110.781 297.797 111.406C298.062 112.016 298.445 112.5 298.945 112.859C299.445 113.203 300.109 113.375 300.938 113.375ZM328.57 93.6406V99.125H313.289V93.6406H328.57ZM316.5 87.3359H324.398V110.727C324.398 111.398 324.477 111.922 324.633 112.297C324.789 112.656 325.055 112.914 325.43 113.07C325.82 113.211 326.336 113.281 326.977 113.281C327.43 113.281 327.805 113.273 328.102 113.258C328.398 113.227 328.68 113.188 328.945 113.141V118.789C328.273 119.008 327.57 119.172 326.836 119.281C326.102 119.406 325.32 119.469 324.492 119.469C322.805 119.469 321.359 119.203 320.156 118.672C318.969 118.141 318.062 117.305 317.438 116.164C316.812 115.023 316.5 113.539 316.5 111.711V87.3359ZM340.055 93.6406V119H332.133V93.6406H340.055ZM331.664 87.1016C331.664 85.9766 332.07 85.0547 332.883 84.3359C333.695 83.6172 334.75 83.2578 336.047 83.2578C337.344 83.2578 338.398 83.6172 339.211 84.3359C340.023 85.0547 340.43 85.9766 340.43 87.1016C340.43 88.2266 340.023 89.1484 339.211 89.8672C338.398 90.5859 337.344 90.9453 336.047 90.9453C334.75 90.9453 333.695 90.5859 332.883 89.8672C332.07 89.1484 331.664 88.2266 331.664 87.1016ZM343.945 106.578V106.086C343.945 104.227 344.211 102.516 344.742 100.953C345.273 99.375 346.055 98.0078 347.086 96.8516C348.117 95.6953 349.391 94.7969 350.906 94.1562C352.422 93.5 354.172 93.1719 356.156 93.1719C358.156 93.1719 359.914 93.5 361.43 94.1562C362.961 94.7969 364.242 95.6953 365.273 96.8516C366.305 98.0078 367.086 99.375 367.617 100.953C368.148 102.516 368.414 104.227 368.414 106.086V106.578C368.414 108.422 368.148 110.133 367.617 111.711C367.086 113.273 366.305 114.641 365.273 115.812C364.242 116.969 362.969 117.867 361.453 118.508C359.938 119.148 358.188 119.469 356.203 119.469C354.219 119.469 352.461 119.148 350.93 118.508C349.398 117.867 348.117 116.969 347.086 115.812C346.055 114.641 345.273 113.273 344.742 111.711C344.211 110.133 343.945 108.422 343.945 106.578ZM351.844 106.086V106.578C351.844 107.531 351.914 108.422 352.055 109.25C352.195 110.078 352.43 110.805 352.758 111.43C353.086 112.039 353.531 112.516 354.094 112.859C354.656 113.203 355.359 113.375 356.203 113.375C357.031 113.375 357.719 113.203 358.266 112.859C358.828 112.516 359.273 112.039 359.602 111.43C359.93 110.805 360.164 110.078 360.305 109.25C360.445 108.422 360.516 107.531 360.516 106.578V106.086C360.516 105.164 360.445 104.297 360.305 103.484C360.164 102.656 359.93 101.93 359.602 101.305C359.273 100.664 358.828 100.164 358.266 99.8047C357.703 99.4453 357 99.2656 356.156 99.2656C355.328 99.2656 354.633 99.4453 354.07 99.8047C353.523 100.164 353.086 100.664 352.758 101.305C352.43 101.93 352.195 102.656 352.055 103.484C351.914 104.297 351.844 105.164 351.844 106.086ZM379.688 99.0547V119H371.789V93.6406H379.195L379.688 99.0547ZM378.75 105.453L376.898 105.5C376.898 103.562 377.133 101.836 377.602 100.32C378.07 98.7891 378.734 97.4922 379.594 96.4297C380.453 95.3672 381.477 94.5625 382.664 94.0156C383.867 93.4531 385.203 93.1719 386.672 93.1719C387.844 93.1719 388.914 93.3438 389.883 93.6875C390.867 94.0312 391.711 94.5859 392.414 95.3516C393.133 96.1172 393.68 97.1328 394.055 98.3984C394.445 99.6484 394.641 101.195 394.641 103.039V119H386.695V103.016C386.695 102 386.555 101.227 386.273 100.695C385.992 100.148 385.586 99.7734 385.055 99.5703C384.523 99.3672 383.875 99.2656 383.109 99.2656C382.297 99.2656 381.609 99.4219 381.047 99.7344C380.484 100.047 380.031 100.484 379.688 101.047C379.359 101.594 379.117 102.242 378.961 102.992C378.82 103.742 378.75 104.562 378.75 105.453ZM412.312 111.875C412.312 111.438 412.164 111.062 411.867 110.75C411.586 110.422 411.086 110.125 410.367 109.859C409.648 109.578 408.641 109.297 407.344 109.016C406.109 108.75 404.945 108.398 403.852 107.961C402.773 107.523 401.828 106.992 401.016 106.367C400.203 105.742 399.562 105 399.094 104.141C398.641 103.281 398.414 102.297 398.414 101.188C398.414 100.109 398.641 99.0938 399.094 98.1406C399.562 97.1719 400.242 96.3203 401.133 95.5859C402.039 94.8359 403.141 94.25 404.438 93.8281C405.734 93.3906 407.211 93.1719 408.867 93.1719C411.148 93.1719 413.117 93.5234 414.773 94.2266C416.43 94.9141 417.703 95.8828 418.594 97.1328C419.5 98.3672 419.953 99.7969 419.953 101.422H412.055C412.055 100.781 411.945 100.234 411.727 99.7812C411.523 99.3281 411.188 98.9844 410.719 98.75C410.25 98.5 409.625 98.375 408.844 98.375C408.297 98.375 407.797 98.4766 407.344 98.6797C406.906 98.8828 406.555 99.1641 406.289 99.5234C406.023 99.8828 405.891 100.305 405.891 100.789C405.891 101.133 405.969 101.445 406.125 101.727C406.297 101.992 406.555 102.242 406.898 102.477C407.242 102.695 407.68 102.898 408.211 103.086C408.742 103.258 409.383 103.414 410.133 103.555C411.836 103.867 413.43 104.312 414.914 104.891C416.398 105.469 417.602 106.289 418.523 107.352C419.461 108.414 419.93 109.844 419.93 111.641C419.93 112.766 419.672 113.805 419.156 114.758C418.641 115.695 417.898 116.523 416.93 117.242C415.961 117.945 414.797 118.492 413.438 118.883C412.078 119.273 410.547 119.469 408.844 119.469C406.422 119.469 404.375 119.039 402.703 118.18C401.031 117.305 399.766 116.211 398.906 114.898C398.062 113.57 397.641 112.227 397.641 110.867H405C405.031 111.648 405.219 112.289 405.562 112.789C405.922 113.289 406.398 113.656 406.992 113.891C407.586 114.125 408.273 114.242 409.055 114.242C409.773 114.242 410.367 114.141 410.836 113.938C411.32 113.734 411.688 113.461 411.938 113.117C412.188 112.758 412.312 112.344 412.312 111.875ZM451.008 101.234V107.352H436.922V101.234H451.008ZM488.93 107.445H497.133C497.023 109.82 496.383 111.914 495.211 113.727C494.039 115.539 492.414 116.953 490.336 117.969C488.273 118.969 485.836 119.469 483.023 119.469C480.742 119.469 478.703 119.086 476.906 118.32C475.125 117.555 473.609 116.453 472.359 115.016C471.125 113.578 470.18 111.836 469.523 109.789C468.883 107.742 468.562 105.438 468.562 102.875V101.023C468.562 98.4609 468.898 96.1562 469.57 94.1094C470.258 92.0469 471.227 90.2969 472.477 88.8594C473.742 87.4062 475.258 86.2969 477.023 85.5312C478.789 84.7656 480.75 84.3828 482.906 84.3828C485.875 84.3828 488.383 84.9141 490.43 85.9766C492.477 87.0391 494.062 88.5 495.188 90.3594C496.312 92.2031 496.977 94.3047 497.18 96.6641H488.977C488.945 95.3828 488.727 94.3125 488.32 93.4531C487.914 92.5781 487.273 91.9219 486.398 91.4844C485.523 91.0469 484.359 90.8281 482.906 90.8281C481.891 90.8281 481.008 91.0156 480.258 91.3906C479.508 91.7656 478.883 92.3594 478.383 93.1719C477.883 93.9844 477.508 95.0391 477.258 96.3359C477.023 97.6172 476.906 99.1641 476.906 100.977V102.875C476.906 104.688 477.016 106.234 477.234 107.516C477.453 108.797 477.805 109.844 478.289 110.656C478.773 111.469 479.398 112.07 480.164 112.461C480.945 112.836 481.898 113.023 483.023 113.023C484.273 113.023 485.328 112.828 486.188 112.438C487.047 112.031 487.711 111.422 488.18 110.609C488.648 109.781 488.898 108.727 488.93 107.445ZM509.766 84.875V119H501.562V84.875H509.766ZM529.57 84.875L517.898 121.93H512.273L523.945 84.875H529.57ZM551.836 107.445H560.039C559.93 109.82 559.289 111.914 558.117 113.727C556.945 115.539 555.32 116.953 553.242 117.969C551.18 118.969 548.742 119.469 545.93 119.469C543.648 119.469 541.609 119.086 539.812 118.32C538.031 117.555 536.516 116.453 535.266 115.016C534.031 113.578 533.086 111.836 532.43 109.789C531.789 107.742 531.469 105.438 531.469 102.875V101.023C531.469 98.4609 531.805 96.1562 532.477 94.1094C533.164 92.0469 534.133 90.2969 535.383 88.8594C536.648 87.4062 538.164 86.2969 539.93 85.5312C541.695 84.7656 543.656 84.3828 545.812 84.3828C548.781 84.3828 551.289 84.9141 553.336 85.9766C555.383 87.0391 556.969 88.5 558.094 90.3594C559.219 92.2031 559.883 94.3047 560.086 96.6641H551.883C551.852 95.3828 551.633 94.3125 551.227 93.4531C550.82 92.5781 550.18 91.9219 549.305 91.4844C548.43 91.0469 547.266 90.8281 545.812 90.8281C544.797 90.8281 543.914 91.0156 543.164 91.3906C542.414 91.7656 541.789 92.3594 541.289 93.1719C540.789 93.9844 540.414 95.0391 540.164 96.3359C539.93 97.6172 539.812 99.1641 539.812 100.977V102.875C539.812 104.688 539.922 106.234 540.141 107.516C540.359 108.797 540.711 109.844 541.195 110.656C541.68 111.469 542.305 112.07 543.07 112.461C543.852 112.836 544.805 113.023 545.93 113.023C547.18 113.023 548.234 112.828 549.094 112.438C549.953 112.031 550.617 111.422 551.086 110.609C551.555 109.781 551.805 108.727 551.836 107.445ZM575.016 119H567.445L567.492 112.672H575.016C576.578 112.672 577.898 112.297 578.977 111.547C580.07 110.797 580.898 109.68 581.461 108.195C582.039 106.695 582.328 104.852 582.328 102.664V101.188C582.328 99.5469 582.164 98.1094 581.836 96.875C581.523 95.625 581.055 94.5859 580.43 93.7578C579.805 92.9141 579.023 92.2812 578.086 91.8594C577.164 91.4375 576.102 91.2266 574.898 91.2266H567.305V84.875H574.898C577.211 84.875 579.328 85.2734 581.25 86.0703C583.188 86.8516 584.859 87.9766 586.266 89.4453C587.688 90.8984 588.781 92.625 589.547 94.625C590.328 96.6094 590.719 98.8125 590.719 101.234V102.664C590.719 105.07 590.328 107.273 589.547 109.273C588.781 111.273 587.695 113 586.289 114.453C584.883 115.906 583.219 117.031 581.297 117.828C579.391 118.609 577.297 119 575.016 119ZM572.156 84.875V119H563.93V84.875H572.156Z" fill="black"/>
<path d="M1134 0H1348C1356.28 0 1363 6.71573 1363 15V148C1363 156.284 1356.28 163 1348 163H1134V0Z" fill="#28EEA7"/>
<path d="M1239.5 54.5H1227.5C1224.19 54.5 1221.5 57.1863 1221.5 60.5V72.5C1221.5 75.8137 1224.19 78.5 1227.5 78.5H1239.5C1242.81 78.5 1245.5 75.8137 1245.5 72.5V60.5C1245.5 57.1863 1242.81 54.5 1239.5 54.5Z" stroke="white" stroke-width="5" stroke-linecap="round" stroke-linejoin="round"/>
<path d="M1233.5 78.5V90.5C1233.5 92.0913 1234.13 93.6174 1235.26 94.7426C1236.38 95.8679 1237.91 96.5 1239.5 96.5H1251.5" stroke="white" stroke-width="5" stroke-linecap="round" stroke-linejoin="round"/>
<path d="M1269.5 84.5H1257.5C1254.19 84.5 1251.5 87.1863 1251.5 90.5V102.5C1251.5 105.814 1254.19 108.5 1257.5 108.5H1269.5C1272.81 108.5 1275.5 105.814 1275.5 102.5V90.5C1275.5 87.1863 1272.81 84.5 1269.5 84.5Z" stroke="white" stroke-width="5" stroke-linecap="round" stroke-linejoin="round"/>
</svg>
