<svg width="1363" height="163" viewBox="0 0 1363 163" fill="none" xmlns="http://www.w3.org/2000/svg">
<path d="M0 15C0 6.71573 6.71573 0 15 0H37V163H15C6.71573 163 0 156.284 0 148V15Z" fill="#424242"/>
<rect width="1097" height="163" transform="translate(37)" fill="#F0F0F0"/>
<path d="M101.906 53.9219L94.3945 51.2383V48.0859L104.602 52.375V54.6367L101.906 53.9219ZM94.3945 56.1719L101.918 53.4297L104.602 52.7852V55.0352L94.3945 59.3242V56.1719ZM119.543 54.918H115.195V52.1758H119.543C120.215 52.1758 120.762 52.0664 121.184 51.8477C121.605 51.6211 121.914 51.3086 122.109 50.9102C122.305 50.5117 122.402 50.0625 122.402 49.5625C122.402 49.0547 122.305 48.582 122.109 48.1445C121.914 47.707 121.605 47.3555 121.184 47.0898C120.762 46.8242 120.215 46.6914 119.543 46.6914H116.414V61H112.898V43.9375H119.543C120.879 43.9375 122.023 44.1797 122.977 44.6641C123.938 45.1406 124.672 45.8008 125.18 46.6445C125.688 47.4883 125.941 48.4531 125.941 49.5391C125.941 50.6406 125.688 51.5938 125.18 52.3984C124.672 53.2031 123.938 53.8242 122.977 54.2617C122.023 54.6992 120.879 54.918 119.543 54.918ZM131.449 43V61H128.074V43H131.449ZM130.969 54.2148H130.043C130.051 53.332 130.168 52.5195 130.395 51.7773C130.621 51.0273 130.945 50.3789 131.367 49.832C131.789 49.2773 132.293 48.8477 132.879 48.543C133.473 48.2383 134.129 48.0859 134.848 48.0859C135.473 48.0859 136.039 48.1758 136.547 48.3555C137.062 48.5273 137.504 48.8086 137.871 49.1992C138.246 49.582 138.535 50.0859 138.738 50.7109C138.941 51.3359 139.043 52.0938 139.043 52.9844V61H135.645V52.9609C135.645 52.3984 135.562 51.957 135.398 51.6367C135.242 51.3086 135.012 51.0781 134.707 50.9453C134.41 50.8047 134.043 50.7344 133.605 50.7344C133.121 50.7344 132.707 50.8242 132.363 51.0039C132.027 51.1836 131.758 51.4336 131.555 51.7539C131.352 52.0664 131.203 52.4336 131.109 52.8555C131.016 53.2773 130.969 53.7305 130.969 54.2148ZM148.453 58.1406V52.4922C148.453 52.0859 148.387 51.7383 148.254 51.4492C148.121 51.1523 147.914 50.9219 147.633 50.7578C147.359 50.5938 147.004 50.5117 146.566 50.5117C146.191 50.5117 145.867 50.5781 145.594 50.7109C145.32 50.8359 145.109 51.0195 144.961 51.2617C144.812 51.4961 144.738 51.7734 144.738 52.0938H141.363C141.363 51.5547 141.488 51.043 141.738 50.5586C141.988 50.0742 142.352 49.6484 142.828 49.2812C143.305 48.9062 143.871 48.6133 144.527 48.4023C145.191 48.1914 145.934 48.0859 146.754 48.0859C147.738 48.0859 148.613 48.25 149.379 48.5781C150.145 48.9062 150.746 49.3984 151.184 50.0547C151.629 50.7109 151.852 51.5312 151.852 52.5156V57.9414C151.852 58.6367 151.895 59.207 151.98 59.6523C152.066 60.0898 152.191 60.4727 152.355 60.8008V61H148.945C148.781 60.6562 148.656 60.2266 148.57 59.7109C148.492 59.1875 148.453 58.6641 148.453 58.1406ZM148.898 53.2773L148.922 55.1875H147.035C146.59 55.1875 146.203 55.2383 145.875 55.3398C145.547 55.4414 145.277 55.5859 145.066 55.7734C144.855 55.9531 144.699 56.1641 144.598 56.4062C144.504 56.6484 144.457 56.9141 144.457 57.2031C144.457 57.4922 144.523 57.7539 144.656 57.9883C144.789 58.2148 144.98 58.3945 145.23 58.5273C145.48 58.6523 145.773 58.7148 146.109 58.7148C146.617 58.7148 147.059 58.6133 147.434 58.4102C147.809 58.207 148.098 57.957 148.301 57.6602C148.512 57.3633 148.621 57.082 148.629 56.8164L149.52 58.2461C149.395 58.5664 149.223 58.8984 149.004 59.2422C148.793 59.5859 148.523 59.9102 148.195 60.2148C147.867 60.5117 147.473 60.7578 147.012 60.9531C146.551 61.1406 146.004 61.2344 145.371 61.2344C144.566 61.2344 143.836 61.0742 143.18 60.7539C142.531 60.4258 142.016 59.9766 141.633 59.4062C141.258 58.8281 141.07 58.1719 141.07 57.4375C141.07 56.7734 141.195 56.1836 141.445 55.668C141.695 55.1523 142.062 54.7188 142.547 54.3672C143.039 54.0078 143.652 53.7383 144.387 53.5586C145.121 53.3711 145.973 53.2773 146.941 53.2773H148.898ZM157.828 51.0859V61H154.453V48.3203H157.629L157.828 51.0859ZM161.648 48.2383L161.59 51.3672C161.426 51.3438 161.227 51.3242 160.992 51.3086C160.766 51.2852 160.559 51.2734 160.371 51.2734C159.895 51.2734 159.48 51.3359 159.129 51.4609C158.785 51.5781 158.496 51.7539 158.262 51.9883C158.035 52.2227 157.863 52.5078 157.746 52.8438C157.637 53.1797 157.574 53.5625 157.559 53.9922L156.879 53.7812C156.879 52.9609 156.961 52.207 157.125 51.5195C157.289 50.8242 157.527 50.2188 157.84 49.7031C158.16 49.1875 158.551 48.7891 159.012 48.5078C159.473 48.2266 160 48.0859 160.594 48.0859C160.781 48.0859 160.973 48.1016 161.168 48.1328C161.363 48.1562 161.523 48.1914 161.648 48.2383ZM166.617 50.9453V61H163.23V48.3203H166.406L166.617 50.9453ZM166.148 54.2148H165.211C165.211 53.332 165.316 52.5195 165.527 51.7773C165.746 51.0273 166.062 50.3789 166.477 49.832C166.898 49.2773 167.418 48.8477 168.035 48.543C168.652 48.2383 169.367 48.0859 170.18 48.0859C170.742 48.0859 171.258 48.1719 171.727 48.3438C172.195 48.5078 172.598 48.7695 172.934 49.1289C173.277 49.4805 173.543 49.9414 173.73 50.5117C173.918 51.0742 174.012 51.75 174.012 52.5391V61H170.637V52.9141C170.637 52.3359 170.559 51.8906 170.402 51.5781C170.246 51.2656 170.023 51.0469 169.734 50.9219C169.453 50.7969 169.113 50.7344 168.715 50.7344C168.277 50.7344 167.895 50.8242 167.566 51.0039C167.246 51.1836 166.98 51.4336 166.77 51.7539C166.559 52.0664 166.402 52.4336 166.301 52.8555C166.199 53.2773 166.148 53.7305 166.148 54.2148ZM173.695 53.8281L172.488 53.9805C172.488 53.1523 172.59 52.3828 172.793 51.6719C173.004 50.9609 173.312 50.3359 173.719 49.7969C174.133 49.2578 174.645 48.8398 175.254 48.543C175.863 48.2383 176.566 48.0859 177.363 48.0859C177.973 48.0859 178.527 48.1758 179.027 48.3555C179.527 48.5273 179.953 48.8047 180.305 49.1875C180.664 49.5625 180.938 50.0547 181.125 50.6641C181.32 51.2734 181.418 52.0195 181.418 52.9023V61H178.031V52.9023C178.031 52.3164 177.953 51.8711 177.797 51.5664C177.648 51.2539 177.43 51.0391 177.141 50.9219C176.859 50.7969 176.523 50.7344 176.133 50.7344C175.727 50.7344 175.371 50.8164 175.066 50.9805C174.762 51.1367 174.508 51.3555 174.305 51.6367C174.102 51.918 173.949 52.2461 173.848 52.6211C173.746 52.9883 173.695 53.3906 173.695 53.8281ZM190.875 58.1406V52.4922C190.875 52.0859 190.809 51.7383 190.676 51.4492C190.543 51.1523 190.336 50.9219 190.055 50.7578C189.781 50.5938 189.426 50.5117 188.988 50.5117C188.613 50.5117 188.289 50.5781 188.016 50.7109C187.742 50.8359 187.531 51.0195 187.383 51.2617C187.234 51.4961 187.16 51.7734 187.16 52.0938H183.785C183.785 51.5547 183.91 51.043 184.16 50.5586C184.41 50.0742 184.773 49.6484 185.25 49.2812C185.727 48.9062 186.293 48.6133 186.949 48.4023C187.613 48.1914 188.355 48.0859 189.176 48.0859C190.16 48.0859 191.035 48.25 191.801 48.5781C192.566 48.9062 193.168 49.3984 193.605 50.0547C194.051 50.7109 194.273 51.5312 194.273 52.5156V57.9414C194.273 58.6367 194.316 59.207 194.402 59.6523C194.488 60.0898 194.613 60.4727 194.777 60.8008V61H191.367C191.203 60.6562 191.078 60.2266 190.992 59.7109C190.914 59.1875 190.875 58.6641 190.875 58.1406ZM191.32 53.2773L191.344 55.1875H189.457C189.012 55.1875 188.625 55.2383 188.297 55.3398C187.969 55.4414 187.699 55.5859 187.488 55.7734C187.277 55.9531 187.121 56.1641 187.02 56.4062C186.926 56.6484 186.879 56.9141 186.879 57.2031C186.879 57.4922 186.945 57.7539 187.078 57.9883C187.211 58.2148 187.402 58.3945 187.652 58.5273C187.902 58.6523 188.195 58.7148 188.531 58.7148C189.039 58.7148 189.48 58.6133 189.855 58.4102C190.23 58.207 190.52 57.957 190.723 57.6602C190.934 57.3633 191.043 57.082 191.051 56.8164L191.941 58.2461C191.816 58.5664 191.645 58.8984 191.426 59.2422C191.215 59.5859 190.945 59.9102 190.617 60.2148C190.289 60.5117 189.895 60.7578 189.434 60.9531C188.973 61.1406 188.426 61.2344 187.793 61.2344C186.988 61.2344 186.258 61.0742 185.602 60.7539C184.953 60.4258 184.438 59.9766 184.055 59.4062C183.68 58.8281 183.492 58.1719 183.492 57.4375C183.492 56.7734 183.617 56.1836 183.867 55.668C184.117 55.1523 184.484 54.7188 184.969 54.3672C185.461 54.0078 186.074 53.7383 186.809 53.5586C187.543 53.3711 188.395 53.2773 189.363 53.2773H191.32ZM203.238 57.4375L207.258 43.9375H211.172L205.23 61H202.652L203.238 57.4375ZM199.535 43.9375L203.543 57.4375L204.152 61H201.551L195.645 43.9375H199.535ZM217.875 61.2344C216.891 61.2344 216.008 61.0781 215.227 60.7656C214.445 60.4453 213.781 60.0039 213.234 59.4414C212.695 58.8789 212.281 58.2266 211.992 57.4844C211.703 56.7344 211.559 55.9375 211.559 55.0938V54.625C211.559 53.6641 211.695 52.7852 211.969 51.9883C212.242 51.1914 212.633 50.5 213.141 49.9141C213.656 49.3281 214.281 48.8789 215.016 48.5664C215.75 48.2461 216.578 48.0859 217.5 48.0859C218.398 48.0859 219.195 48.2344 219.891 48.5312C220.586 48.8281 221.168 49.25 221.637 49.7969C222.113 50.3438 222.473 51 222.715 51.7656C222.957 52.5234 223.078 53.3672 223.078 54.2969V55.7031H213V53.4531H219.762V53.1953C219.762 52.7266 219.676 52.3086 219.504 51.9414C219.34 51.5664 219.09 51.2695 218.754 51.0508C218.418 50.832 217.988 50.7227 217.465 50.7227C217.02 50.7227 216.637 50.8203 216.316 51.0156C215.996 51.2109 215.734 51.4844 215.531 51.8359C215.336 52.1875 215.188 52.6016 215.086 53.0781C214.992 53.5469 214.945 54.0625 214.945 54.625V55.0938C214.945 55.6016 215.016 56.0703 215.156 56.5C215.305 56.9297 215.512 57.3008 215.777 57.6133C216.051 57.9258 216.379 58.168 216.762 58.3398C217.152 58.5117 217.594 58.5977 218.086 58.5977C218.695 58.5977 219.262 58.4805 219.785 58.2461C220.316 58.0039 220.773 57.6406 221.156 57.1562L222.797 58.9375C222.531 59.3203 222.168 59.6875 221.707 60.0391C221.254 60.3906 220.707 60.6797 220.066 60.9062C219.426 61.125 218.695 61.2344 217.875 61.2344ZM228.305 51.0273V61H224.93V48.3203H228.094L228.305 51.0273ZM227.812 54.2148H226.898C226.898 53.2773 227.02 52.4336 227.262 51.6836C227.504 50.9258 227.844 50.2812 228.281 49.75C228.719 49.2109 229.238 48.8008 229.84 48.5195C230.449 48.2305 231.129 48.0859 231.879 48.0859C232.473 48.0859 233.016 48.1719 233.508 48.3438C234 48.5156 234.422 48.7891 234.773 49.1641C235.133 49.5391 235.406 50.0352 235.594 50.6523C235.789 51.2695 235.887 52.0234 235.887 52.9141V61H232.488V52.9023C232.488 52.3398 232.41 51.9023 232.254 51.5898C232.098 51.2773 231.867 51.0586 231.562 50.9336C231.266 50.8008 230.898 50.7344 230.461 50.7344C230.008 50.7344 229.613 50.8242 229.277 51.0039C228.949 51.1836 228.676 51.4336 228.457 51.7539C228.246 52.0664 228.086 52.4336 227.977 52.8555C227.867 53.2773 227.812 53.7305 227.812 54.2148ZM245.941 58.2344V43H249.34V61H246.281L245.941 58.2344ZM237.926 54.8125V54.5664C237.926 53.5977 238.035 52.7188 238.254 51.9297C238.473 51.1328 238.793 50.4492 239.215 49.8789C239.637 49.3086 240.156 48.8672 240.773 48.5547C241.391 48.2422 242.094 48.0859 242.883 48.0859C243.625 48.0859 244.273 48.2422 244.828 48.5547C245.391 48.8672 245.867 49.3125 246.258 49.8906C246.656 50.4609 246.977 51.1367 247.219 51.918C247.461 52.6914 247.637 53.5391 247.746 54.4609V55C247.637 55.8828 247.461 56.7031 247.219 57.4609C246.977 58.2188 246.656 58.8828 246.258 59.4531C245.867 60.0156 245.391 60.4531 244.828 60.7656C244.266 61.0781 243.609 61.2344 242.859 61.2344C242.07 61.2344 241.367 61.0742 240.75 60.7539C240.141 60.4336 239.625 59.9844 239.203 59.4062C238.789 58.8281 238.473 58.1484 238.254 57.3672C238.035 56.5859 237.926 55.7344 237.926 54.8125ZM241.301 54.5664V54.8125C241.301 55.3359 241.34 55.8242 241.418 56.2773C241.504 56.7305 241.641 57.1328 241.828 57.4844C242.023 57.8281 242.273 58.0977 242.578 58.293C242.891 58.4805 243.27 58.5742 243.715 58.5742C244.293 58.5742 244.77 58.4453 245.145 58.1875C245.52 57.9219 245.805 57.5586 246 57.0977C246.203 56.6367 246.32 56.1055 246.352 55.5039V53.9688C246.328 53.4766 246.258 53.0352 246.141 52.6445C246.031 52.2461 245.867 51.9062 245.648 51.625C245.438 51.3438 245.172 51.125 244.852 50.9688C244.539 50.8125 244.168 50.7344 243.738 50.7344C243.301 50.7344 242.926 50.8359 242.613 51.0391C242.301 51.2344 242.047 51.5039 241.852 51.8477C241.664 52.1914 241.523 52.5977 241.43 53.0664C241.344 53.5273 241.301 54.0273 241.301 54.5664Z" fill="#888888"/>
<path d="M112.125 84.875V119H103.898V84.875H112.125ZM122.391 84.875V91.2266H93.8672V84.875H122.391ZM135.68 119.469C133.617 119.469 131.773 119.148 130.148 118.508C128.523 117.852 127.148 116.953 126.023 115.812C124.914 114.672 124.062 113.359 123.469 111.875C122.891 110.391 122.602 108.82 122.602 107.164V106.273C122.602 104.414 122.859 102.695 123.375 101.117C123.891 99.5234 124.656 98.1328 125.672 96.9453C126.688 95.7578 127.961 94.8359 129.492 94.1797C131.023 93.5078 132.805 93.1719 134.836 93.1719C136.633 93.1719 138.242 93.4609 139.664 94.0391C141.086 94.6172 142.289 95.4453 143.273 96.5234C144.273 97.6016 145.031 98.9062 145.547 100.438C146.078 101.969 146.344 103.688 146.344 105.594V108.805H125.625V103.859H138.633V103.25C138.648 102.406 138.5 101.688 138.188 101.094C137.891 100.5 137.453 100.047 136.875 99.7344C136.297 99.4219 135.594 99.2656 134.766 99.2656C133.906 99.2656 133.195 99.4531 132.633 99.8281C132.086 100.203 131.656 100.719 131.344 101.375C131.047 102.016 130.836 102.758 130.711 103.602C130.586 104.445 130.523 105.336 130.523 106.273V107.164C130.523 108.102 130.648 108.953 130.898 109.719C131.164 110.484 131.539 111.141 132.023 111.688C132.523 112.219 133.117 112.633 133.805 112.93C134.508 113.227 135.305 113.375 136.195 113.375C137.273 113.375 138.336 113.172 139.383 112.766C140.43 112.359 141.328 111.688 142.078 110.75L145.664 115.016C145.148 115.75 144.414 116.461 143.461 117.148C142.523 117.836 141.398 118.398 140.086 118.836C138.773 119.258 137.305 119.469 135.68 119.469ZM160.266 113.375C161 113.375 161.625 113.242 162.141 112.977C162.672 112.695 163.07 112.305 163.336 111.805C163.617 111.289 163.75 110.672 163.734 109.953H171.164C171.18 111.859 170.711 113.531 169.758 114.969C168.82 116.391 167.539 117.5 165.914 118.297C164.305 119.078 162.484 119.469 160.453 119.469C158.469 119.469 156.734 119.148 155.25 118.508C153.766 117.852 152.523 116.945 151.523 115.789C150.539 114.617 149.797 113.25 149.297 111.688C148.812 110.125 148.57 108.43 148.57 106.602V106.062C148.57 104.234 148.812 102.539 149.297 100.977C149.797 99.3984 150.539 98.0312 151.523 96.875C152.523 95.7031 153.758 94.7969 155.227 94.1562C156.711 93.5 158.438 93.1719 160.406 93.1719C162.516 93.1719 164.375 93.5703 165.984 94.3672C167.609 95.1641 168.883 96.3203 169.805 97.8359C170.727 99.3516 171.18 101.188 171.164 103.344H163.734C163.75 102.578 163.633 101.891 163.383 101.281C163.133 100.672 162.742 100.188 162.211 99.8281C161.695 99.4531 161.031 99.2656 160.219 99.2656C159.406 99.2656 158.75 99.4453 158.25 99.8047C157.75 100.164 157.367 100.664 157.102 101.305C156.852 101.93 156.68 102.648 156.586 103.461C156.508 104.273 156.469 105.141 156.469 106.062V106.602C156.469 107.539 156.508 108.422 156.586 109.25C156.68 110.062 156.859 110.781 157.125 111.406C157.391 112.016 157.773 112.5 158.273 112.859C158.773 113.203 159.438 113.375 160.266 113.375ZM182.273 83V119H174.375V83H182.273ZM181.336 105.453L179.484 105.5C179.484 103.719 179.703 102.078 180.141 100.578C180.578 99.0781 181.203 97.7734 182.016 96.6641C182.828 95.5547 183.805 94.6953 184.945 94.0859C186.086 93.4766 187.352 93.1719 188.742 93.1719C189.992 93.1719 191.133 93.3516 192.164 93.7109C193.211 94.0703 194.109 94.6484 194.859 95.4453C195.625 96.2422 196.211 97.2812 196.617 98.5625C197.039 99.8438 197.25 101.406 197.25 103.25V119H189.305V103.203C189.305 102.172 189.156 101.375 188.859 100.812C188.578 100.234 188.172 99.8359 187.641 99.6172C187.109 99.3828 186.461 99.2656 185.695 99.2656C184.773 99.2656 184.023 99.4219 183.445 99.7344C182.867 100.047 182.422 100.484 182.109 101.047C181.812 101.594 181.609 102.242 181.5 102.992C181.391 103.742 181.336 104.562 181.336 105.453ZM231.539 109.93C231.539 109.398 231.461 108.922 231.305 108.5C231.148 108.062 230.859 107.656 230.438 107.281C230.016 106.906 229.406 106.531 228.609 106.156C227.828 105.766 226.797 105.359 225.516 104.938C224.016 104.438 222.57 103.875 221.18 103.25C219.789 102.609 218.547 101.867 217.453 101.023C216.359 100.164 215.492 99.1641 214.852 98.0234C214.211 96.8672 213.891 95.5234 213.891 93.9922C213.891 92.5234 214.219 91.2031 214.875 90.0312C215.531 88.8438 216.445 87.8359 217.617 87.0078C218.805 86.1641 220.195 85.5234 221.789 85.0859C223.383 84.6328 225.125 84.4062 227.016 84.4062C229.516 84.4062 231.719 84.8438 233.625 85.7188C235.547 86.5781 237.047 87.8047 238.125 89.3984C239.219 90.9766 239.766 92.8438 239.766 95H231.586C231.586 94.1406 231.406 93.3828 231.047 92.7266C230.703 92.0703 230.18 91.5547 229.477 91.1797C228.773 90.8047 227.891 90.6172 226.828 90.6172C225.797 90.6172 224.93 90.7734 224.227 91.0859C223.523 91.3984 222.992 91.8203 222.633 92.3516C222.273 92.8672 222.094 93.4375 222.094 94.0625C222.094 94.5781 222.234 95.0469 222.516 95.4688C222.812 95.875 223.227 96.2578 223.758 96.6172C224.305 96.9766 224.961 97.3203 225.727 97.6484C226.508 97.9766 227.383 98.2969 228.352 98.6094C230.164 99.1875 231.773 99.8359 233.18 100.555C234.602 101.258 235.797 102.062 236.766 102.969C237.75 103.859 238.492 104.875 238.992 106.016C239.508 107.156 239.766 108.445 239.766 109.883C239.766 111.414 239.469 112.773 238.875 113.961C238.281 115.148 237.43 116.156 236.32 116.984C235.211 117.797 233.883 118.414 232.336 118.836C230.789 119.258 229.062 119.469 227.156 119.469C225.406 119.469 223.68 119.25 221.977 118.812C220.289 118.359 218.758 117.672 217.383 116.75C216.008 115.812 214.906 114.617 214.078 113.164C213.266 111.695 212.859 109.953 212.859 107.938H221.109C221.109 108.938 221.242 109.781 221.508 110.469C221.773 111.156 222.164 111.711 222.68 112.133C223.195 112.539 223.828 112.836 224.578 113.023C225.328 113.195 226.188 113.281 227.156 113.281C228.203 113.281 229.047 113.133 229.688 112.836C230.328 112.523 230.797 112.117 231.094 111.617C231.391 111.102 231.539 110.539 231.539 109.93ZM256.992 93.6406V99.125H241.711V93.6406H256.992ZM244.922 87.3359H252.82V110.727C252.82 111.398 252.898 111.922 253.055 112.297C253.211 112.656 253.477 112.914 253.852 113.07C254.242 113.211 254.758 113.281 255.398 113.281C255.852 113.281 256.227 113.273 256.523 113.258C256.82 113.227 257.102 113.188 257.367 113.141V118.789C256.695 119.008 255.992 119.172 255.258 119.281C254.523 119.406 253.742 119.469 252.914 119.469C251.227 119.469 249.781 119.203 248.578 118.672C247.391 118.141 246.484 117.305 245.859 116.164C245.234 115.023 244.922 113.539 244.922 111.711V87.3359ZM273.305 112.625V102.172C273.305 101.453 273.203 100.836 273 100.32C272.797 99.8047 272.477 99.4062 272.039 99.125C271.602 98.8281 271.016 98.6797 270.281 98.6797C269.688 98.6797 269.18 98.7812 268.758 98.9844C268.336 99.1875 268.016 99.4922 267.797 99.8984C267.578 100.305 267.469 100.82 267.469 101.445H259.57C259.57 100.273 259.828 99.1875 260.344 98.1875C260.875 97.1719 261.625 96.2891 262.594 95.5391C263.578 94.7891 264.75 94.2109 266.109 93.8047C267.484 93.3828 269.016 93.1719 270.703 93.1719C272.719 93.1719 274.516 93.5078 276.094 94.1797C277.688 94.8516 278.945 95.8594 279.867 97.2031C280.789 98.5312 281.25 100.203 281.25 102.219V112.602C281.25 114.258 281.344 115.516 281.531 116.375C281.719 117.219 281.984 117.961 282.328 118.602V119H274.406C274.031 118.219 273.75 117.266 273.562 116.141C273.391 115 273.305 113.828 273.305 112.625ZM274.266 103.508L274.312 107.727H270.82C270.086 107.727 269.461 107.828 268.945 108.031C268.445 108.234 268.039 108.516 267.727 108.875C267.43 109.219 267.211 109.609 267.07 110.047C266.945 110.484 266.883 110.945 266.883 111.43C266.883 111.898 266.992 112.32 267.211 112.695C267.445 113.055 267.758 113.336 268.148 113.539C268.539 113.742 268.977 113.844 269.461 113.844C270.336 113.844 271.078 113.68 271.688 113.352C272.312 113.008 272.789 112.594 273.117 112.109C273.445 111.625 273.609 111.172 273.609 110.75L275.344 113.984C275.031 114.609 274.672 115.242 274.266 115.883C273.875 116.523 273.383 117.117 272.789 117.664C272.211 118.195 271.5 118.633 270.656 118.977C269.812 119.305 268.789 119.469 267.586 119.469C266.023 119.469 264.586 119.148 263.273 118.508C261.977 117.867 260.938 116.977 260.156 115.836C259.375 114.68 258.984 113.352 258.984 111.852C258.984 110.539 259.219 109.367 259.688 108.336C260.172 107.305 260.898 106.43 261.867 105.711C262.836 104.992 264.07 104.445 265.57 104.07C267.07 103.695 268.836 103.508 270.867 103.508H274.266ZM296.344 113.375C297.078 113.375 297.703 113.242 298.219 112.977C298.75 112.695 299.148 112.305 299.414 111.805C299.695 111.289 299.828 110.672 299.812 109.953H307.242C307.258 111.859 306.789 113.531 305.836 114.969C304.898 116.391 303.617 117.5 301.992 118.297C300.383 119.078 298.562 119.469 296.531 119.469C294.547 119.469 292.812 119.148 291.328 118.508C289.844 117.852 288.602 116.945 287.602 115.789C286.617 114.617 285.875 113.25 285.375 111.688C284.891 110.125 284.648 108.43 284.648 106.602V106.062C284.648 104.234 284.891 102.539 285.375 100.977C285.875 99.3984 286.617 98.0312 287.602 96.875C288.602 95.7031 289.836 94.7969 291.305 94.1562C292.789 93.5 294.516 93.1719 296.484 93.1719C298.594 93.1719 300.453 93.5703 302.062 94.3672C303.688 95.1641 304.961 96.3203 305.883 97.8359C306.805 99.3516 307.258 101.188 307.242 103.344H299.812C299.828 102.578 299.711 101.891 299.461 101.281C299.211 100.672 298.82 100.188 298.289 99.8281C297.773 99.4531 297.109 99.2656 296.297 99.2656C295.484 99.2656 294.828 99.4453 294.328 99.8047C293.828 100.164 293.445 100.664 293.18 101.305C292.93 101.93 292.758 102.648 292.664 103.461C292.586 104.273 292.547 105.141 292.547 106.062V106.602C292.547 107.539 292.586 108.422 292.664 109.25C292.758 110.062 292.938 110.781 293.203 111.406C293.469 112.016 293.852 112.5 294.352 112.859C294.852 113.203 295.516 113.375 296.344 113.375ZM318.586 82.9766V119H310.688V82.9766H318.586ZM334.805 93.6406L323.789 106.555L318.023 112.32L314.578 107.305L319.383 101.047L325.336 93.6406H334.805ZM326.344 119L319.57 107.445L325.406 103.297L335.391 119H326.344ZM350.156 111.875C350.156 111.438 350.008 111.062 349.711 110.75C349.43 110.422 348.93 110.125 348.211 109.859C347.492 109.578 346.484 109.297 345.188 109.016C343.953 108.75 342.789 108.398 341.695 107.961C340.617 107.523 339.672 106.992 338.859 106.367C338.047 105.742 337.406 105 336.938 104.141C336.484 103.281 336.258 102.297 336.258 101.188C336.258 100.109 336.484 99.0938 336.938 98.1406C337.406 97.1719 338.086 96.3203 338.977 95.5859C339.883 94.8359 340.984 94.25 342.281 93.8281C343.578 93.3906 345.055 93.1719 346.711 93.1719C348.992 93.1719 350.961 93.5234 352.617 94.2266C354.273 94.9141 355.547 95.8828 356.438 97.1328C357.344 98.3672 357.797 99.7969 357.797 101.422H349.898C349.898 100.781 349.789 100.234 349.57 99.7812C349.367 99.3281 349.031 98.9844 348.562 98.75C348.094 98.5 347.469 98.375 346.688 98.375C346.141 98.375 345.641 98.4766 345.188 98.6797C344.75 98.8828 344.398 99.1641 344.133 99.5234C343.867 99.8828 343.734 100.305 343.734 100.789C343.734 101.133 343.812 101.445 343.969 101.727C344.141 101.992 344.398 102.242 344.742 102.477C345.086 102.695 345.523 102.898 346.055 103.086C346.586 103.258 347.227 103.414 347.977 103.555C349.68 103.867 351.273 104.312 352.758 104.891C354.242 105.469 355.445 106.289 356.367 107.352C357.305 108.414 357.773 109.844 357.773 111.641C357.773 112.766 357.516 113.805 357 114.758C356.484 115.695 355.742 116.523 354.773 117.242C353.805 117.945 352.641 118.492 351.281 118.883C349.922 119.273 348.391 119.469 346.688 119.469C344.266 119.469 342.219 119.039 340.547 118.18C338.875 117.305 337.609 116.211 336.75 114.898C335.906 113.57 335.484 112.227 335.484 110.867H342.844C342.875 111.648 343.062 112.289 343.406 112.789C343.766 113.289 344.242 113.656 344.836 113.891C345.43 114.125 346.117 114.242 346.898 114.242C347.617 114.242 348.211 114.141 348.68 113.938C349.164 113.734 349.531 113.461 349.781 113.117C350.031 112.758 350.156 112.344 350.156 111.875Z" fill="black"/>
<path d="M1134 0H1348C1356.28 0 1363 6.71573 1363 15V148C1363 156.284 1356.28 163 1348 163H1134V0Z" fill="#22B573"/>
<path fill-rule="evenodd" clip-rule="evenodd" d="M1219.98 53C1219.85 53 1219.73 53.0527 1219.64 53.1464C1219.55 53.2402 1219.5 53.3674 1219.5 53.5V109.5C1219.5 109.633 1219.55 109.76 1219.64 109.854C1219.73 109.947 1219.85 110 1219.98 110H1277.02C1277.15 110 1277.27 109.947 1277.36 109.854C1277.45 109.76 1277.5 109.633 1277.5 109.5V64C1277.5 63.8674 1277.45 63.7402 1277.36 63.6464C1277.27 63.5527 1277.15 63.5 1277.02 63.5H1248.5C1247.65 63.5 1246.84 63.1045 1246.29 62.4206L1238.77 53H1219.98ZM1215.58 48.9038C1216.74 47.6848 1218.33 47 1219.98 47H1240.11C1240.97 47 1241.77 47.3955 1242.32 48.0794L1249.85 57.5H1277.02C1278.67 57.5 1280.26 58.1848 1281.42 59.4038C1282.59 60.6228 1283.25 62.2761 1283.25 64V109.5C1283.25 111.224 1282.59 112.877 1281.42 114.096C1280.26 115.315 1278.67 116 1277.02 116H1219.98C1218.33 116 1216.74 115.315 1215.58 114.096C1214.41 112.877 1213.75 111.224 1213.75 109.5V53.5C1213.75 51.7761 1214.41 50.1228 1215.58 48.9038Z" fill="white"/>
<path fill-rule="evenodd" clip-rule="evenodd" d="M1244.16 75.5251C1245.47 76.892 1245.47 79.108 1244.16 80.4749L1238.15 86.75L1244.16 93.0251C1245.47 94.392 1245.47 96.608 1244.16 97.9749C1242.85 99.3417 1240.73 99.3417 1239.42 97.9749L1231.03 89.2249C1229.72 87.858 1229.72 85.642 1231.03 84.2751L1239.42 75.5251C1240.73 74.1583 1242.85 74.1583 1244.16 75.5251Z" fill="white"/>
<path fill-rule="evenodd" clip-rule="evenodd" d="M1252.12 97.9749C1250.81 96.608 1250.81 94.392 1252.12 93.0251L1258.13 86.75L1252.12 80.4749C1250.81 79.108 1250.81 76.892 1252.12 75.5251C1253.43 74.1583 1255.55 74.1583 1256.86 75.5251L1265.25 84.2751C1266.56 85.642 1266.56 87.858 1265.25 89.2249L1256.86 97.9749C1255.55 99.3417 1253.43 99.3417 1252.12 97.9749Z" fill="white"/>
</svg>
