<svg width="1363" height="163" viewBox="0 0 1363 163" fill="none" xmlns="http://www.w3.org/2000/svg">
<rect width="1363" height="163" fill="#737373"/>
<path d="M0 15C0 6.71573 6.71573 0 15 0H37V163H15C6.71573 163 0 156.284 0 148V15Z" fill="#424242"/>
<rect width="1097" height="163" transform="translate(37)" fill="#F0F0F0"/>
<path d="M101.906 53.9219L94.3945 51.2383V48.0859L104.602 52.375V54.6367L101.906 53.9219ZM94.3945 56.1719L101.918 53.4297L104.602 52.7852V55.0352L94.3945 59.3242V56.1719ZM119.543 54.918H115.195V52.1758H119.543C120.215 52.1758 120.762 52.0664 121.184 51.8477C121.605 51.6211 121.914 51.3086 122.109 50.9102C122.305 50.5117 122.402 50.0625 122.402 49.5625C122.402 49.0547 122.305 48.582 122.109 48.1445C121.914 47.707 121.605 47.3555 121.184 47.0898C120.762 46.8242 120.215 46.6914 119.543 46.6914H116.414V61H112.898V43.9375H119.543C120.879 43.9375 122.023 44.1797 122.977 44.6641C123.938 45.1406 124.672 45.8008 125.18 46.6445C125.688 47.4883 125.941 48.4531 125.941 49.5391C125.941 50.6406 125.688 51.5938 125.18 52.3984C124.672 53.2031 123.938 53.8242 122.977 54.2617C122.023 54.6992 120.879 54.918 119.543 54.918ZM131.449 43V61H128.074V43H131.449ZM130.969 54.2148H130.043C130.051 53.332 130.168 52.5195 130.395 51.7773C130.621 51.0273 130.945 50.3789 131.367 49.832C131.789 49.2773 132.293 48.8477 132.879 48.543C133.473 48.2383 134.129 48.0859 134.848 48.0859C135.473 48.0859 136.039 48.1758 136.547 48.3555C137.062 48.5273 137.504 48.8086 137.871 49.1992C138.246 49.582 138.535 50.0859 138.738 50.7109C138.941 51.3359 139.043 52.0938 139.043 52.9844V61H135.645V52.9609C135.645 52.3984 135.562 51.957 135.398 51.6367C135.242 51.3086 135.012 51.0781 134.707 50.9453C134.41 50.8047 134.043 50.7344 133.605 50.7344C133.121 50.7344 132.707 50.8242 132.363 51.0039C132.027 51.1836 131.758 51.4336 131.555 51.7539C131.352 52.0664 131.203 52.4336 131.109 52.8555C131.016 53.2773 130.969 53.7305 130.969 54.2148ZM148.453 58.1406V52.4922C148.453 52.0859 148.387 51.7383 148.254 51.4492C148.121 51.1523 147.914 50.9219 147.633 50.7578C147.359 50.5938 147.004 50.5117 146.566 50.5117C146.191 50.5117 145.867 50.5781 145.594 50.7109C145.32 50.8359 145.109 51.0195 144.961 51.2617C144.812 51.4961 144.738 51.7734 144.738 52.0938H141.363C141.363 51.5547 141.488 51.043 141.738 50.5586C141.988 50.0742 142.352 49.6484 142.828 49.2812C143.305 48.9062 143.871 48.6133 144.527 48.4023C145.191 48.1914 145.934 48.0859 146.754 48.0859C147.738 48.0859 148.613 48.25 149.379 48.5781C150.145 48.9062 150.746 49.3984 151.184 50.0547C151.629 50.7109 151.852 51.5312 151.852 52.5156V57.9414C151.852 58.6367 151.895 59.207 151.98 59.6523C152.066 60.0898 152.191 60.4727 152.355 60.8008V61H148.945C148.781 60.6562 148.656 60.2266 148.57 59.7109C148.492 59.1875 148.453 58.6641 148.453 58.1406ZM148.898 53.2773L148.922 55.1875H147.035C146.59 55.1875 146.203 55.2383 145.875 55.3398C145.547 55.4414 145.277 55.5859 145.066 55.7734C144.855 55.9531 144.699 56.1641 144.598 56.4062C144.504 56.6484 144.457 56.9141 144.457 57.2031C144.457 57.4922 144.523 57.7539 144.656 57.9883C144.789 58.2148 144.98 58.3945 145.23 58.5273C145.48 58.6523 145.773 58.7148 146.109 58.7148C146.617 58.7148 147.059 58.6133 147.434 58.4102C147.809 58.207 148.098 57.957 148.301 57.6602C148.512 57.3633 148.621 57.082 148.629 56.8164L149.52 58.2461C149.395 58.5664 149.223 58.8984 149.004 59.2422C148.793 59.5859 148.523 59.9102 148.195 60.2148C147.867 60.5117 147.473 60.7578 147.012 60.9531C146.551 61.1406 146.004 61.2344 145.371 61.2344C144.566 61.2344 143.836 61.0742 143.18 60.7539C142.531 60.4258 142.016 59.9766 141.633 59.4062C141.258 58.8281 141.07 58.1719 141.07 57.4375C141.07 56.7734 141.195 56.1836 141.445 55.668C141.695 55.1523 142.062 54.7188 142.547 54.3672C143.039 54.0078 143.652 53.7383 144.387 53.5586C145.121 53.3711 145.973 53.2773 146.941 53.2773H148.898ZM157.828 51.0859V61H154.453V48.3203H157.629L157.828 51.0859ZM161.648 48.2383L161.59 51.3672C161.426 51.3438 161.227 51.3242 160.992 51.3086C160.766 51.2852 160.559 51.2734 160.371 51.2734C159.895 51.2734 159.48 51.3359 159.129 51.4609C158.785 51.5781 158.496 51.7539 158.262 51.9883C158.035 52.2227 157.863 52.5078 157.746 52.8438C157.637 53.1797 157.574 53.5625 157.559 53.9922L156.879 53.7812C156.879 52.9609 156.961 52.207 157.125 51.5195C157.289 50.8242 157.527 50.2188 157.84 49.7031C158.16 49.1875 158.551 48.7891 159.012 48.5078C159.473 48.2266 160 48.0859 160.594 48.0859C160.781 48.0859 160.973 48.1016 161.168 48.1328C161.363 48.1562 161.523 48.1914 161.648 48.2383ZM166.617 50.9453V61H163.23V48.3203H166.406L166.617 50.9453ZM166.148 54.2148H165.211C165.211 53.332 165.316 52.5195 165.527 51.7773C165.746 51.0273 166.062 50.3789 166.477 49.832C166.898 49.2773 167.418 48.8477 168.035 48.543C168.652 48.2383 169.367 48.0859 170.18 48.0859C170.742 48.0859 171.258 48.1719 171.727 48.3438C172.195 48.5078 172.598 48.7695 172.934 49.1289C173.277 49.4805 173.543 49.9414 173.73 50.5117C173.918 51.0742 174.012 51.75 174.012 52.5391V61H170.637V52.9141C170.637 52.3359 170.559 51.8906 170.402 51.5781C170.246 51.2656 170.023 51.0469 169.734 50.9219C169.453 50.7969 169.113 50.7344 168.715 50.7344C168.277 50.7344 167.895 50.8242 167.566 51.0039C167.246 51.1836 166.98 51.4336 166.77 51.7539C166.559 52.0664 166.402 52.4336 166.301 52.8555C166.199 53.2773 166.148 53.7305 166.148 54.2148ZM173.695 53.8281L172.488 53.9805C172.488 53.1523 172.59 52.3828 172.793 51.6719C173.004 50.9609 173.312 50.3359 173.719 49.7969C174.133 49.2578 174.645 48.8398 175.254 48.543C175.863 48.2383 176.566 48.0859 177.363 48.0859C177.973 48.0859 178.527 48.1758 179.027 48.3555C179.527 48.5273 179.953 48.8047 180.305 49.1875C180.664 49.5625 180.938 50.0547 181.125 50.6641C181.32 51.2734 181.418 52.0195 181.418 52.9023V61H178.031V52.9023C178.031 52.3164 177.953 51.8711 177.797 51.5664C177.648 51.2539 177.43 51.0391 177.141 50.9219C176.859 50.7969 176.523 50.7344 176.133 50.7344C175.727 50.7344 175.371 50.8164 175.066 50.9805C174.762 51.1367 174.508 51.3555 174.305 51.6367C174.102 51.918 173.949 52.2461 173.848 52.6211C173.746 52.9883 173.695 53.3906 173.695 53.8281ZM190.875 58.1406V52.4922C190.875 52.0859 190.809 51.7383 190.676 51.4492C190.543 51.1523 190.336 50.9219 190.055 50.7578C189.781 50.5938 189.426 50.5117 188.988 50.5117C188.613 50.5117 188.289 50.5781 188.016 50.7109C187.742 50.8359 187.531 51.0195 187.383 51.2617C187.234 51.4961 187.16 51.7734 187.16 52.0938H183.785C183.785 51.5547 183.91 51.043 184.16 50.5586C184.41 50.0742 184.773 49.6484 185.25 49.2812C185.727 48.9062 186.293 48.6133 186.949 48.4023C187.613 48.1914 188.355 48.0859 189.176 48.0859C190.16 48.0859 191.035 48.25 191.801 48.5781C192.566 48.9062 193.168 49.3984 193.605 50.0547C194.051 50.7109 194.273 51.5312 194.273 52.5156V57.9414C194.273 58.6367 194.316 59.207 194.402 59.6523C194.488 60.0898 194.613 60.4727 194.777 60.8008V61H191.367C191.203 60.6562 191.078 60.2266 190.992 59.7109C190.914 59.1875 190.875 58.6641 190.875 58.1406ZM191.32 53.2773L191.344 55.1875H189.457C189.012 55.1875 188.625 55.2383 188.297 55.3398C187.969 55.4414 187.699 55.5859 187.488 55.7734C187.277 55.9531 187.121 56.1641 187.02 56.4062C186.926 56.6484 186.879 56.9141 186.879 57.2031C186.879 57.4922 186.945 57.7539 187.078 57.9883C187.211 58.2148 187.402 58.3945 187.652 58.5273C187.902 58.6523 188.195 58.7148 188.531 58.7148C189.039 58.7148 189.48 58.6133 189.855 58.4102C190.23 58.207 190.52 57.957 190.723 57.6602C190.934 57.3633 191.043 57.082 191.051 56.8164L191.941 58.2461C191.816 58.5664 191.645 58.8984 191.426 59.2422C191.215 59.5859 190.945 59.9102 190.617 60.2148C190.289 60.5117 189.895 60.7578 189.434 60.9531C188.973 61.1406 188.426 61.2344 187.793 61.2344C186.988 61.2344 186.258 61.0742 185.602 60.7539C184.953 60.4258 184.438 59.9766 184.055 59.4062C183.68 58.8281 183.492 58.1719 183.492 57.4375C183.492 56.7734 183.617 56.1836 183.867 55.668C184.117 55.1523 184.484 54.7188 184.969 54.3672C185.461 54.0078 186.074 53.7383 186.809 53.5586C187.543 53.3711 188.395 53.2773 189.363 53.2773H191.32ZM203.238 57.4375L207.258 43.9375H211.172L205.23 61H202.652L203.238 57.4375ZM199.535 43.9375L203.543 57.4375L204.152 61H201.551L195.645 43.9375H199.535ZM217.875 61.2344C216.891 61.2344 216.008 61.0781 215.227 60.7656C214.445 60.4453 213.781 60.0039 213.234 59.4414C212.695 58.8789 212.281 58.2266 211.992 57.4844C211.703 56.7344 211.559 55.9375 211.559 55.0938V54.625C211.559 53.6641 211.695 52.7852 211.969 51.9883C212.242 51.1914 212.633 50.5 213.141 49.9141C213.656 49.3281 214.281 48.8789 215.016 48.5664C215.75 48.2461 216.578 48.0859 217.5 48.0859C218.398 48.0859 219.195 48.2344 219.891 48.5312C220.586 48.8281 221.168 49.25 221.637 49.7969C222.113 50.3438 222.473 51 222.715 51.7656C222.957 52.5234 223.078 53.3672 223.078 54.2969V55.7031H213V53.4531H219.762V53.1953C219.762 52.7266 219.676 52.3086 219.504 51.9414C219.34 51.5664 219.09 51.2695 218.754 51.0508C218.418 50.832 217.988 50.7227 217.465 50.7227C217.02 50.7227 216.637 50.8203 216.316 51.0156C215.996 51.2109 215.734 51.4844 215.531 51.8359C215.336 52.1875 215.188 52.6016 215.086 53.0781C214.992 53.5469 214.945 54.0625 214.945 54.625V55.0938C214.945 55.6016 215.016 56.0703 215.156 56.5C215.305 56.9297 215.512 57.3008 215.777 57.6133C216.051 57.9258 216.379 58.168 216.762 58.3398C217.152 58.5117 217.594 58.5977 218.086 58.5977C218.695 58.5977 219.262 58.4805 219.785 58.2461C220.316 58.0039 220.773 57.6406 221.156 57.1562L222.797 58.9375C222.531 59.3203 222.168 59.6875 221.707 60.0391C221.254 60.3906 220.707 60.6797 220.066 60.9062C219.426 61.125 218.695 61.2344 217.875 61.2344ZM228.305 51.0273V61H224.93V48.3203H228.094L228.305 51.0273ZM227.812 54.2148H226.898C226.898 53.2773 227.02 52.4336 227.262 51.6836C227.504 50.9258 227.844 50.2812 228.281 49.75C228.719 49.2109 229.238 48.8008 229.84 48.5195C230.449 48.2305 231.129 48.0859 231.879 48.0859C232.473 48.0859 233.016 48.1719 233.508 48.3438C234 48.5156 234.422 48.7891 234.773 49.1641C235.133 49.5391 235.406 50.0352 235.594 50.6523C235.789 51.2695 235.887 52.0234 235.887 52.9141V61H232.488V52.9023C232.488 52.3398 232.41 51.9023 232.254 51.5898C232.098 51.2773 231.867 51.0586 231.562 50.9336C231.266 50.8008 230.898 50.7344 230.461 50.7344C230.008 50.7344 229.613 50.8242 229.277 51.0039C228.949 51.1836 228.676 51.4336 228.457 51.7539C228.246 52.0664 228.086 52.4336 227.977 52.8555C227.867 53.2773 227.812 53.7305 227.812 54.2148ZM245.941 58.2344V43H249.34V61H246.281L245.941 58.2344ZM237.926 54.8125V54.5664C237.926 53.5977 238.035 52.7188 238.254 51.9297C238.473 51.1328 238.793 50.4492 239.215 49.8789C239.637 49.3086 240.156 48.8672 240.773 48.5547C241.391 48.2422 242.094 48.0859 242.883 48.0859C243.625 48.0859 244.273 48.2422 244.828 48.5547C245.391 48.8672 245.867 49.3125 246.258 49.8906C246.656 50.4609 246.977 51.1367 247.219 51.918C247.461 52.6914 247.637 53.5391 247.746 54.4609V55C247.637 55.8828 247.461 56.7031 247.219 57.4609C246.977 58.2188 246.656 58.8828 246.258 59.4531C245.867 60.0156 245.391 60.4531 244.828 60.7656C244.266 61.0781 243.609 61.2344 242.859 61.2344C242.07 61.2344 241.367 61.0742 240.75 60.7539C240.141 60.4336 239.625 59.9844 239.203 59.4062C238.789 58.8281 238.473 58.1484 238.254 57.3672C238.035 56.5859 237.926 55.7344 237.926 54.8125ZM241.301 54.5664V54.8125C241.301 55.3359 241.34 55.8242 241.418 56.2773C241.504 56.7305 241.641 57.1328 241.828 57.4844C242.023 57.8281 242.273 58.0977 242.578 58.293C242.891 58.4805 243.27 58.5742 243.715 58.5742C244.293 58.5742 244.77 58.4453 245.145 58.1875C245.52 57.9219 245.805 57.5586 246 57.0977C246.203 56.6367 246.32 56.1055 246.352 55.5039V53.9688C246.328 53.4766 246.258 53.0352 246.141 52.6445C246.031 52.2461 245.867 51.9062 245.648 51.625C245.438 51.3438 245.172 51.125 244.852 50.9688C244.539 50.8125 244.168 50.7344 243.738 50.7344C243.301 50.7344 242.926 50.8359 242.613 51.0391C242.301 51.2344 242.047 51.5039 241.852 51.8477C241.664 52.1914 241.523 52.5977 241.43 53.0664C241.344 53.5273 241.301 54.0273 241.301 54.5664Z" fill="#888888"/>
<path d="M104.344 84.875V119H96.1406V84.875H104.344ZM108.773 106.578V106.086C108.773 104.227 109.039 102.516 109.57 100.953C110.102 99.375 110.883 98.0078 111.914 96.8516C112.945 95.6953 114.219 94.7969 115.734 94.1562C117.25 93.5 119 93.1719 120.984 93.1719C122.984 93.1719 124.742 93.5 126.258 94.1562C127.789 94.7969 129.07 95.6953 130.102 96.8516C131.133 98.0078 131.914 99.375 132.445 100.953C132.977 102.516 133.242 104.227 133.242 106.086V106.578C133.242 108.422 132.977 110.133 132.445 111.711C131.914 113.273 131.133 114.641 130.102 115.812C129.07 116.969 127.797 117.867 126.281 118.508C124.766 119.148 123.016 119.469 121.031 119.469C119.047 119.469 117.289 119.148 115.758 118.508C114.227 117.867 112.945 116.969 111.914 115.812C110.883 114.641 110.102 113.273 109.57 111.711C109.039 110.133 108.773 108.422 108.773 106.578ZM116.672 106.086V106.578C116.672 107.531 116.742 108.422 116.883 109.25C117.023 110.078 117.258 110.805 117.586 111.43C117.914 112.039 118.359 112.516 118.922 112.859C119.484 113.203 120.188 113.375 121.031 113.375C121.859 113.375 122.547 113.203 123.094 112.859C123.656 112.516 124.102 112.039 124.43 111.43C124.758 110.805 124.992 110.078 125.133 109.25C125.273 108.422 125.344 107.531 125.344 106.578V106.086C125.344 105.164 125.273 104.297 125.133 103.484C124.992 102.656 124.758 101.93 124.43 101.305C124.102 100.664 123.656 100.164 123.094 99.8047C122.531 99.4453 121.828 99.2656 120.984 99.2656C120.156 99.2656 119.461 99.4453 118.898 99.8047C118.352 100.164 117.914 100.664 117.586 101.305C117.258 101.93 117.023 102.656 116.883 103.484C116.742 104.297 116.672 105.164 116.672 106.086ZM153.656 84.875V119H145.43V84.875H153.656ZM163.922 84.875V91.2266H135.398V84.875H163.922ZM195.539 109.93C195.539 109.398 195.461 108.922 195.305 108.5C195.148 108.062 194.859 107.656 194.438 107.281C194.016 106.906 193.406 106.531 192.609 106.156C191.828 105.766 190.797 105.359 189.516 104.938C188.016 104.438 186.57 103.875 185.18 103.25C183.789 102.609 182.547 101.867 181.453 101.023C180.359 100.164 179.492 99.1641 178.852 98.0234C178.211 96.8672 177.891 95.5234 177.891 93.9922C177.891 92.5234 178.219 91.2031 178.875 90.0312C179.531 88.8438 180.445 87.8359 181.617 87.0078C182.805 86.1641 184.195 85.5234 185.789 85.0859C187.383 84.6328 189.125 84.4062 191.016 84.4062C193.516 84.4062 195.719 84.8438 197.625 85.7188C199.547 86.5781 201.047 87.8047 202.125 89.3984C203.219 90.9766 203.766 92.8438 203.766 95H195.586C195.586 94.1406 195.406 93.3828 195.047 92.7266C194.703 92.0703 194.18 91.5547 193.477 91.1797C192.773 90.8047 191.891 90.6172 190.828 90.6172C189.797 90.6172 188.93 90.7734 188.227 91.0859C187.523 91.3984 186.992 91.8203 186.633 92.3516C186.273 92.8672 186.094 93.4375 186.094 94.0625C186.094 94.5781 186.234 95.0469 186.516 95.4688C186.812 95.875 187.227 96.2578 187.758 96.6172C188.305 96.9766 188.961 97.3203 189.727 97.6484C190.508 97.9766 191.383 98.2969 192.352 98.6094C194.164 99.1875 195.773 99.8359 197.18 100.555C198.602 101.258 199.797 102.062 200.766 102.969C201.75 103.859 202.492 104.875 202.992 106.016C203.508 107.156 203.766 108.445 203.766 109.883C203.766 111.414 203.469 112.773 202.875 113.961C202.281 115.148 201.43 116.156 200.32 116.984C199.211 117.797 197.883 118.414 196.336 118.836C194.789 119.258 193.062 119.469 191.156 119.469C189.406 119.469 187.68 119.25 185.977 118.812C184.289 118.359 182.758 117.672 181.383 116.75C180.008 115.812 178.906 114.617 178.078 113.164C177.266 111.695 176.859 109.953 176.859 107.938H185.109C185.109 108.938 185.242 109.781 185.508 110.469C185.773 111.156 186.164 111.711 186.68 112.133C187.195 112.539 187.828 112.836 188.578 113.023C189.328 113.195 190.188 113.281 191.156 113.281C192.203 113.281 193.047 113.133 193.688 112.836C194.328 112.523 194.797 112.117 195.094 111.617C195.391 111.102 195.539 110.539 195.539 109.93ZM215.414 116.023L221.977 93.6406H230.461L220.266 122.773C220.047 123.414 219.758 124.102 219.398 124.836C219.039 125.586 218.547 126.297 217.922 126.969C217.297 127.641 216.492 128.188 215.508 128.609C214.539 129.031 213.336 129.242 211.898 129.242C211.133 129.242 210.57 129.203 210.211 129.125C209.867 129.062 209.336 128.945 208.617 128.773V123.125C208.82 123.125 208.992 123.125 209.133 123.125C209.289 123.125 209.461 123.125 209.648 123.125C210.492 123.125 211.164 123.039 211.664 122.867C212.18 122.695 212.57 122.445 212.836 122.117C213.117 121.789 213.336 121.391 213.492 120.922L215.414 116.023ZM213.75 93.6406L218.742 111.383L219.609 119.75H214.312L205.289 93.6406H213.75ZM245.812 111.875C245.812 111.438 245.664 111.062 245.367 110.75C245.086 110.422 244.586 110.125 243.867 109.859C243.148 109.578 242.141 109.297 240.844 109.016C239.609 108.75 238.445 108.398 237.352 107.961C236.273 107.523 235.328 106.992 234.516 106.367C233.703 105.742 233.062 105 232.594 104.141C232.141 103.281 231.914 102.297 231.914 101.188C231.914 100.109 232.141 99.0938 232.594 98.1406C233.062 97.1719 233.742 96.3203 234.633 95.5859C235.539 94.8359 236.641 94.25 237.938 93.8281C239.234 93.3906 240.711 93.1719 242.367 93.1719C244.648 93.1719 246.617 93.5234 248.273 94.2266C249.93 94.9141 251.203 95.8828 252.094 97.1328C253 98.3672 253.453 99.7969 253.453 101.422H245.555C245.555 100.781 245.445 100.234 245.227 99.7812C245.023 99.3281 244.688 98.9844 244.219 98.75C243.75 98.5 243.125 98.375 242.344 98.375C241.797 98.375 241.297 98.4766 240.844 98.6797C240.406 98.8828 240.055 99.1641 239.789 99.5234C239.523 99.8828 239.391 100.305 239.391 100.789C239.391 101.133 239.469 101.445 239.625 101.727C239.797 101.992 240.055 102.242 240.398 102.477C240.742 102.695 241.18 102.898 241.711 103.086C242.242 103.258 242.883 103.414 243.633 103.555C245.336 103.867 246.93 104.312 248.414 104.891C249.898 105.469 251.102 106.289 252.023 107.352C252.961 108.414 253.43 109.844 253.43 111.641C253.43 112.766 253.172 113.805 252.656 114.758C252.141 115.695 251.398 116.523 250.43 117.242C249.461 117.945 248.297 118.492 246.938 118.883C245.578 119.273 244.047 119.469 242.344 119.469C239.922 119.469 237.875 119.039 236.203 118.18C234.531 117.305 233.266 116.211 232.406 114.898C231.562 113.57 231.141 112.227 231.141 110.867H238.5C238.531 111.648 238.719 112.289 239.062 112.789C239.422 113.289 239.898 113.656 240.492 113.891C241.086 114.125 241.773 114.242 242.555 114.242C243.273 114.242 243.867 114.141 244.336 113.938C244.82 113.734 245.188 113.461 245.438 113.117C245.688 112.758 245.812 112.344 245.812 111.875ZM270.492 93.6406V99.125H255.211V93.6406H270.492ZM258.422 87.3359H266.32V110.727C266.32 111.398 266.398 111.922 266.555 112.297C266.711 112.656 266.977 112.914 267.352 113.07C267.742 113.211 268.258 113.281 268.898 113.281C269.352 113.281 269.727 113.273 270.023 113.258C270.32 113.227 270.602 113.188 270.867 113.141V118.789C270.195 119.008 269.492 119.172 268.758 119.281C268.023 119.406 267.242 119.469 266.414 119.469C264.727 119.469 263.281 119.203 262.078 118.672C260.891 118.141 259.984 117.305 259.359 116.164C258.734 115.023 258.422 113.539 258.422 111.711V87.3359ZM285.914 119.469C283.852 119.469 282.008 119.148 280.383 118.508C278.758 117.852 277.383 116.953 276.258 115.812C275.148 114.672 274.297 113.359 273.703 111.875C273.125 110.391 272.836 108.82 272.836 107.164V106.273C272.836 104.414 273.094 102.695 273.609 101.117C274.125 99.5234 274.891 98.1328 275.906 96.9453C276.922 95.7578 278.195 94.8359 279.727 94.1797C281.258 93.5078 283.039 93.1719 285.07 93.1719C286.867 93.1719 288.477 93.4609 289.898 94.0391C291.32 94.6172 292.523 95.4453 293.508 96.5234C294.508 97.6016 295.266 98.9062 295.781 100.438C296.312 101.969 296.578 103.688 296.578 105.594V108.805H275.859V103.859H288.867V103.25C288.883 102.406 288.734 101.688 288.422 101.094C288.125 100.5 287.688 100.047 287.109 99.7344C286.531 99.4219 285.828 99.2656 285 99.2656C284.141 99.2656 283.43 99.4531 282.867 99.8281C282.32 100.203 281.891 100.719 281.578 101.375C281.281 102.016 281.07 102.758 280.945 103.602C280.82 104.445 280.758 105.336 280.758 106.273V107.164C280.758 108.102 280.883 108.953 281.133 109.719C281.398 110.484 281.773 111.141 282.258 111.688C282.758 112.219 283.352 112.633 284.039 112.93C284.742 113.227 285.539 113.375 286.43 113.375C287.508 113.375 288.57 113.172 289.617 112.766C290.664 112.359 291.562 111.688 292.312 110.75L295.898 115.016C295.383 115.75 294.648 116.461 293.695 117.148C292.758 117.836 291.633 118.398 290.32 118.836C289.008 119.258 287.539 119.469 285.914 119.469ZM307.758 99.0078V119H299.859V93.6406H307.266L307.758 99.0078ZM306.797 105.453L304.992 105.5C304.992 103.719 305.203 102.078 305.625 100.578C306.047 99.0781 306.672 97.7734 307.5 96.6641C308.328 95.5547 309.344 94.6953 310.547 94.0859C311.766 93.4766 313.172 93.1719 314.766 93.1719C315.875 93.1719 316.883 93.3438 317.789 93.6875C318.695 94.0156 319.477 94.5391 320.133 95.2578C320.789 95.9609 321.289 96.8828 321.633 98.0234C321.992 99.1484 322.172 100.5 322.172 102.078V119H314.273V103.086C314.273 102.008 314.148 101.195 313.898 100.648C313.664 100.102 313.32 99.7344 312.867 99.5469C312.414 99.3594 311.859 99.2656 311.203 99.2656C310.516 99.2656 309.898 99.4219 309.352 99.7344C308.805 100.047 308.336 100.484 307.945 101.047C307.57 101.594 307.281 102.242 307.078 102.992C306.891 103.742 306.797 104.562 306.797 105.453ZM321.281 105.453L319.078 105.5C319.078 103.719 319.273 102.078 319.664 100.578C320.07 99.0781 320.672 97.7734 321.469 96.6641C322.281 95.5547 323.289 94.6953 324.492 94.0859C325.695 93.4766 327.094 93.1719 328.688 93.1719C329.844 93.1719 330.906 93.3438 331.875 93.6875C332.844 94.0312 333.68 94.5859 334.383 95.3516C335.086 96.1172 335.633 97.1328 336.023 98.3984C336.414 99.6484 336.609 101.195 336.609 103.039V119H328.688V103.039C328.688 101.992 328.562 101.203 328.312 100.672C328.078 100.125 327.734 99.7578 327.281 99.5703C326.828 99.3672 326.289 99.2656 325.664 99.2656C324.914 99.2656 324.266 99.4219 323.719 99.7344C323.172 100.047 322.711 100.484 322.336 101.047C321.977 101.594 321.711 102.242 321.539 102.992C321.367 103.742 321.281 104.562 321.281 105.453Z" fill="black"/>
<path d="M1134 0H1348C1356.28 0 1363 6.71573 1363 15V148C1363 156.284 1356.28 163 1348 163H1134V0Z" fill="#22B573"/>
<path d="M1249.5 69V56.5H1237" stroke="white" stroke-width="5" stroke-linecap="round" stroke-linejoin="round"/>
<path d="M1268.25 69H1230.75C1227.3 69 1224.5 71.7982 1224.5 75.25V100.25C1224.5 103.702 1227.3 106.5 1230.75 106.5H1268.25C1271.7 106.5 1274.5 103.702 1274.5 100.25V75.25C1274.5 71.7982 1271.7 69 1268.25 69Z" stroke="white" stroke-width="5" stroke-linecap="round" stroke-linejoin="round"/>
<path d="M1218.25 87.75H1224.5" stroke="white" stroke-width="5" stroke-linecap="round" stroke-linejoin="round"/>
<path d="M1274.5 87.75H1280.75" stroke="white" stroke-width="5" stroke-linecap="round" stroke-linejoin="round"/>
<path d="M1258.88 84.625V90.875" stroke="white" stroke-width="5" stroke-linecap="round" stroke-linejoin="round"/>
<path d="M1240.12 84.625V90.875" stroke="white" stroke-width="5" stroke-linecap="round" stroke-linejoin="round"/>
</svg>
